<mxfile host="65bd71144e">
    <diagram id="TofNqnEq5zKw65RrRKlK" name="Page-1">
        <mxGraphModel dx="726" dy="591" grid="1" gridSize="10" guides="1" tooltips="1" connect="1" arrows="1" fold="1" page="1" pageScale="1" pageWidth="850" pageHeight="1100" math="1" shadow="0">
            <root>
                <mxCell id="0"/>
                <mxCell id="1" parent="0"/>
                <mxCell id="2" value="" style="shape=image;imageAspect=0;aspect=fixed;verticalLabelPosition=bottom;verticalAlign=top;image=data:image/jpeg,/9j/4AAQSkZJRgABAQAAAQABAAD/2wBDAAEBAQEBAQEBAQEBAQEBAQEBAQEBAQEBAQEBAQEBAQEBAQEBAQEBAQEBAQEBAQEBAQEBAQEBAQEBAQEBAQEBAQH/2wBDAQEBAQEBAQEBAQEBAQEBAQEBAQEBAQEBAQEBAQEBAQEBAQEBAQEBAQEBAQEBAQEBAQEBAQEBAQEBAQEBAQEBAQH/wAARCAEAAQADASIAAhEBAxEB/8QAHwAAAQUBAQEBAQEAAAAAAAAAAAECAwQFBgcICQoL/8QAtRAAAgEDAwIEAwUFBAQAAAF9AQIDAAQRBRIhMUEGE1FhByJxFDKBkaEII0KxwRVS0fAkM2JyggkKFhcYGRolJicoKSo0NTY3ODk6Q0RFRkdISUpTVFVWV1hZWmNkZWZnaGlqc3R1dnd4eXqDhIWGh4iJipKTlJWWl5iZmqKjpKWmp6ipqrKztLW2t7i5usLDxMXGx8jJytLT1NXW19jZ2uHi4+Tl5ufo6erx8vP09fb3+Pn6/8QAHwEAAwEBAQEBAQEBAQAAAAAAAAECAwQFBgcICQoL/8QAtREAAgECBAQDBAcFBAQAAQJ3AAECAxEEBSExBhJBUQdhcRMiMoEIFEKRobHBCSMzUvAVYnLRChYkNOEl8RcYGRomJygpKjU2Nzg5OkNERUZHSElKU1RVVldYWVpjZGVmZ2hpanN0dXZ3eHl6goOEhYaHiImKkpOUlZaXmJmaoqOkpaanqKmqsrO0tba3uLm6wsPExcbHyMnK0tPU1dbX2Nna4uPk5ebn6Onq8vP09fb3+Pn6/9oADAMBAAIRAxEAPwD9fIO32i49/wCY6f1xVyserlt2/wA/3q/5zz/Qg1Ksw9B9D/Oq1FB0FmHoPof51frPrQroAz6KKd5y/wCc/wCFB0Dad5K/5z/jTaKACnQQf59f5Zzj/I6trzHx/wDGLwP8MobX/hMPEFpa3V3j7DovOq6tqX/cvfyxyKrCYT67/wAJ+XnsHqEEFvP/AMfH/Hr+Ht/nrxR5MH+cf41wcHxV8H2/2a3uNYtLW6u7H+0PsV7/AMhbTv5e3+evBz/tQ/BeC9/s/wD4TfSQev8AoX/E14x/n1NdX+r2eY01/wBh8z3iext/6H8ev9B/9esvyP8An4uP8evP1/U5zXiM/wC1D8J4JtUt7fxRaXVrpN9/p17ZWOu/2T06f8JD+H54ryU/tzfA/wDti60i48UWn2qzP9oZ7f2P/wBB4Z6nBHFGE4H4rxv/ADI27at6vTu9Hptq/LXY7PreB8/v/wCCfX32GH0/n/jRPB2/l+Z7/Tgf4ivhmw/b1+G3iOHVP+EfA1S6tL7+z7Gysv8AkLaj1/4n/wDwjv8A0K3t618++I/+CiNvBrGqW+n6dq39l2t9/Z9je3mh67/a3iL0/wCEd8Pf8Ip04/7kEc45HgGvqMJ4T8cY3Hf8iM8rF5tgcEfqBewXHXr/AJ989uOn1NcbfQY9unt/j+Hb8K/L/Sv26PFH9sf8TC4tLoWn/Ib0aysf+Eq/4R3/AKgH/I2eCOf+5G8C+AR6819ffDr9oXwf8VIbW30i40n+1bv/AKfv7U/D/P8AhXvYvw9zzhj/AJGHTTuvv++3dHg4vF4HGnqE/b8P61hX3T8T/M1uzz29x+Hr/n6msKf7Pn+Wfp+WM59/TvXimJgXH+uH4/yrLn7fh/WtS57/AOf7tYM/H+j9P8+vp/QdeaDzzBvO/wDwGsK+6fif5mt2ft+H9awr7p+J/ma6AOMvoP33T25/Ppn888d89q4PUO34f0rvLzv/AMBrg9W/h/4D/WugDznVP/ZR/WvOdd/x/rXo2qf+yj+tec65/wAvP4f0r2DnPJtc/wBcfqf5ivLpz+++0dBac+nfP4+teja33/4BXl9x/rrn8P5CvsMoXut+a/Oz/M5z+ryrUE/P+k9vy/8Arf56982rEHf8f6V/M59AbFaFYME/+fT+eMZ/yOl6ug6DQ8/2/T/69Gf+m/6f/XqvSecff8hQBZoqvSecff8AIV6AFnz/AG/T/wCvVWe48n9Mcf5/p2qr9p9/8/8AfNeI/H74mf8ACsvhl4o8X/6J/alpY/2foX/YY4/p71msJjsb/wAJ2XdWl9+1/n9x0YP+vxPG/wBo39q+3+HM114H8D/ZNU8ZGxze316R/ZPh39f+Rp/PtX5+fDHxHrHjn4nap4v8QT/2rd+HtD1jxALzWuTqOsf8U14b8O9M8f8AFQ98dzz1r5U1zXLjVby6uNRuLv7Vd339oX17e33/ACEu/rzX0t+yvD9u8S+Mbe3t/wDj68K9+x/t/r7ev9fT+jcVwngOC/DrO8wwF/8AWG6vbdJvVrpdLVX07nLlObfXeKsjy/8Ar9Tl/j98VdYg/tTwv/aF1pel/bv7R8Va1e32u/2t4z1j/oADxD08Tc/8UeB406+3f4j/AOE48UTw6pb2/iD+y9B+2/2d/wAIXZ67/wASn+2SOn/CPf8AIoZx/wCo1Xo37UNjqHhX4wapp9uP7L1TVv7I/wBOsr//AIm2nf8ACR+v/FKf9jF6fhXz7B9n/wBF+0fa/wCyrT/jyP24c/pX9Z+GXD2BwXhzkeY/1/TPyXjfNsd/rxnmX/24b8/iK40MfadP8Q/8Uv4ev9H1DW7G9vh/xMcaACdA8PeHv+RQ/wCEp8Z/8I/4i/4WBxjwD4Bz/wALJ6GuXvvFWseKPs1xb6x4htPDF3faPf8AgfRL7xTrh/4SLxgefDuPD55HhcYH/I6AH/hAT4S5H/Cb+Ax4F7w6HbwTaXqOoW32q11bix/07+ytJ8RE8dyf+EZ+Fvgv/inf/ekf8J5x/wAJ15z4Vt7jS9R8Y3+sX93/AMJTaXxJ8aXljnV9P/4SLJ/sHw74d8TdPFHxnH/FHk8/8UF/wiZzj/kevYj/AGHduCu4xsmlJtt3jdK27u1qnZXSUnaywmLxxqjVLfSbq60+41m6tfC/h6/0fT9cF7rn/Eq07xh4jH/Mu+H/APit/CA8U/zPhvxd/wALH/4QPHgMDUmv/C41G7/4R/T/AA7pmu2lkLD7B4Y8D/AzxVqunjBP9geHR4l8WeNvF3ibxQMkHxjnx03zf8XI/wCRI8BkYHiqxuLDxfa2/wBo1XS9LurH/hINDvdFvidX8Ggj/oYefFv/AAlHjIgehJPceNs+OuZsbi+sPFN14f8AE+o21ppviGy/tGxsrK98ceKfCniHSPEeCSvw/wDEvxV8EE5IOB41Hjn/AITzp8SP+EFySM4KLd+eMLUuZ3k/e2XuxbalJNO9OS5HZOUJU3JnqPF/XfPXtb5+Xr+TNWz/AGgYtTsZ/DN1Lb3Nnpt39ij0fxR8RNE0hbFAzIWT4ffDX4qeBx4b8Th1ZC3jE+PPHm9CpOVIr37wP8RvEHgea5uPFFxqwuv+f2+sfHR0nUdIx18RH/hK/wDhEB/2OHPrXiljBq2h6tjV77VtL0y0OdE0fRb7Q/CvhUDxED8vhzw94l8LeNk8NeJzkE+Dz42/4QPx7gYIXO7w7xlfXF9rAOoW/wDZel2n/Ew0Oy+waF/a2ne//Iq+CM5zyePQdayx2DyHObYCD91xSet7NKPNFScY311bXSSTd4u/lrF4/Bf8KD3/AD7dXb/h+6P6MP2c/wBpPSPiNZ2uj3GsWn2q0x/puf18Rf8A1u3TFfWk8/ndBafl3z+fSv5Yfg78VPEHwy8VWmsaNcasLX7di+0X7d/Ltz9fxr+jr4V+P9P8ceD9L1jT7m7ubW7/AB5/D2Hp+HFfyN4scEf6sY7+0MvPf4e4h/tr+tz1Cef/AD6/yznH+R1wZ5+/8vyPb6cj/E1ann/z6fzxjP8Ak9MqbofoP51+On0xmX04/wCPfvn9f54zXLz/AOkf8vHT8cf5/DOK3p5+/wDL8j2+nI/xNcvfz+3+fTr+H6E96AMC+6/gf5GuE1af/Ppj69MfiB79upvun4n+ZrgtWn/z65+vXP4E+3f0DnON1Wf/AJdyPXjP6/z/AF+teX67P/08evf6+9d5qs/+f5nj8OfyFeX65cf8u/0I/oP8n3PeuzC/5gec65P/AE9e3+Hb09+/nN9/rrj8P5V2etz5h/P8SMn+nHQflzwV9P8A8fXYfl+XU5+lffZVF8sXbf8AzSX5nnn9W1aEHf8AH+lYPnL/AJz/AIVqw9R9T/Kv51PqDSh6D6H+dW4P+nj/AD/u5/z+lZcHf8f6Va85f85/woAvVYrHorb6p5P8QNCis+necv8AnP8AhVAJN0P0H86/Lb/goV4xuIJvAfge3/49fsOsa/f2Wen+fX+dfqTN0P0H86/D39ue++3fH7VNP+0f6LpPhXwdp/8A5QBjn65/wr9E8Msp+u8VHDm2L/2E+OIP9d9n9P8APQ/lz+PavtL9i2xt77x5r1uen/CK/wDuf6j/AD3r5Bt7Dzpvy6f8xH8v/wBRr9N/2EfAFxBpuvfEC4t/9F1b/in7H8Mf8JF3659+enIr9a8QsX/xg+eC4e/39/13PBv29f2ZPEHirRx8SPh/p93da9pFj/Z99o1l/wAxHR/f8/1/P8ZdKnuLG9/4qDT7u1tbSx/06y/yf1x9MV/YtPY288P+kd8D/PbnAHp+dfOfj/8AZQ+C/j//AEjxB4H0n7X/AM/tj/xKtW5GeMj2/CuXwn+kfjuC+Ff9T+IMj/1o4d9TzON/DL/WfPP9YMvP5sZ9c1jXftVvb6fq11oPh6+H277F/wAhbUfB/P8AwkXXB4PP/qyeK7O3sbaeG68Q2H/Er/smx1jUPCt5Z9P+EPz/AMI3/wAzNz4m8UY/4o4nxnknGM/8UR/xXf646r/wT88H6VDdf8IvqN3a/wDPl9t5Hv37cfnzXzn/AMO/PHHhybVP7H8UWd1a3d9/aH2K9vtd64+vv/hX6ivFngfG4K/9uL5/8H+umqvfq/1Tx2C/4Tz4Z8R+KtHsfs0GoaPaaX/wiljo2o2WjWX/ACFvBmj+JD/wjZ0Dw7/1NWef/wBdZk8Go+I7s6hcXF1pf9q3o1Cx0UnXNL0nxFrHA8Ra/wDETtnxpn/kcRnwD4974xkfWU//AAT18YT6l/bOsahm6+36xqH/AB/f2p/aOsf2B/yMHr0712fhX9hj/hHJvtFzP/al1/y/Xt77/wD6z645rqxfiHwPgsD/ALBnjb78z3fM3ve7bd276u97uTZy4Th7PP8AmYHxd4x0P+1fCttPqBFqCf8AhH9E1q9vf+JRqOsZ/wCQB/wkPiYHBH/QneM/HHgU4PhH4h46+PvHfxtq1iftl1b/AGf7L9kvul7Y/wDE2HPA8Rf8Iz/k57nmv02/aF+DvjD4Sf8AFU6fb/avC+rWJ8P65otjff2V/aOj5Hv6Dt+Vfm7qtxp895/o/wBrurW7/wCPH7b/AMxH6enr/nNfZ8KY3BZ3gPr+XvS/z9PS7crd22fB8Wf7F/wnmX/x7i1/6dPy/Uf/AFu3fFfsN/wT8+I3n2evfD64uP8ASrT/AImFj/n2+v41+N8/kc/Z89OfXGe2eemPx6V9ffsTeKv+Ec+M2g29wf8ARfEP/FP/ANQeh+vXt2ryfELKf7a4Vzz9P6/rqfL8PYv6ljj+ggz+f09f54/Tp69sVlzz+f8Ar3zjOff/AA6UnnD/AKe/yNVp5/8Al3H+evPA+hP/AOqv4rP2Yy5+34f1rBvp8+/T3/w/Dt+Fas3U/Ufyrlb7r+B/ka5wOYvpx/x798/r/PGa4PVZ/P4+0fn+P+QT7cV2V/P7f59Ov4foT3rg9Vn/AM/zPH4c/kK9gDg9W/h/4D/WvL9cn+n+if5/+v8A1r0bVP8A2Yf1ryXXf8f616GEwn9I5zznVp/8+mPr0x+IHv285vpvW4/If1x9ePw9q7zVZ/8AP8zx+HP5CvL9Vn/z/M8fhz+Qr7/KcPolba2uj/NP+vw862t/6/rVs/rc/wDAOrEH/Tx/n/dz/n9Ky61IPs3P4+ntX80H1JqQd/x/pVis6HqPqf5VZoPQLFOx/wBPC/5/GqtH/Tt+n/2X6/5xQBYqvRRXQAV+D/7Zd9/xkh8UbfP/AB6f8Iee3T/hAfDX/wBbNfvBX4j/APBSbwPrHgf4nWvxYt9Pu7vwt4s0PR9P1zWrKx/tX+ztY8Oc49O3f8c1+teA31HG8cf2fmH/ADVHAm5wZt/uLPL/AILfCTUPjT4w0vwfp+P7L/5CHiu96f2do/8Ang9q/erwr4O0fwdoOl+F9H0/+y9B0ix/s+xsu3t6j6f14NfjN/wTS/aM8Dz/ABUuvhfrHh/VtL1TxZZD7D4mvj/xKu5/sHH/AFOeMHnqRmv3pnsfJ+1Yt/8Aj0z9u7f2dn8vr+dcvjH/AG5knHC4PzHqr/LX+rO3ptf1eHsXgcbgf+E84OeD/p3/AK9T/n1z+HFXyP8Ap3/T/wCtRfeOPh/Y6l/Y9x458EWuqXY/48v+E40L+1h9fD2fr+HQem/5H/Lvxj/P4f5z1r85+qfUvQ+iOMngt/T3+pP0P+cfUVgz2JH+j/Z/f9P5/wCeccd5P9nn462v4d+34fT1rBng/wAeP8/gCfoexr1Prfm/xOg4OfSun2j35/x5+pzmsy+0q387/PH09/b9a7Gfn/R+v+fX1/qevFZc81vAP/r4H1/l/iKoDwf4qfDLR/H/AIJ17w/qFv8Aa/tlj/y+9On+cfocV/MT8d/BFz8OPHmqeGJ7e7N1pF/9gvr09NRI5/yP5Hp/WhPPmH/j4/0o5/w+vfP+efwz/wCCmnw5toNY8G+ONP8A+Yt/bGn3wsr7/Pb/APX0r9t8BeLcfgc9zvIE7cPcTu6a6NNNNdmmk0flniblP/CF/aHl+h+S/wDo9xDk24/0sf57+mK9Q+Feq/8ACOeNvC+sf8+muaPqHsPw5/H075rzr/R/+fUfl/8AWrsfA8H/ABPtLt7e3N1/p3H09Pxzzg/pX9U4vCf7Dnh/P31v/bv6/wAj+myCcz2drcD/ADnP0579fxqpN0P0H86rQYgs7W3/AOnHPX3x+Xp/PnFVpup+o/lX+fJ/QhUn/wCffP8An0IP+eme1cvqHb8P6VvTjyOef5f16fj75rl77P8Ax7+v1/z/AFzQBxt9cdvx5/8Arj8evvjqK43Vp/8APrn69c/gT7d+nvuv4H+RrhNU/wDZh/WvWwnT1/U5zg9Vn5+z9f8AP+Pvjj1ry/Vf3+f9I+g6d/8A63b9DXo2rfw/8B/rXl+q97f6/wCHQfl1+nevUwnT5fkeeec6p/7KP615frh/fi3649M/h/nr9a9Q1T/VXdeTapMSQO5wMfrzj+X5npX6BksW5XSvbbyb1T+Xb8TnP6461Lbt/n+9WXVmHoPof51/Lp9gasHP+j9f8+vp/Q9eKtQDv9o+vH64H6/gfasu27f5/vVcoAsUf9O36f8A2X6/5xRRXQAUT9vw/rRVryV/zn/Gug9A/KP9sv8A4KgfD/8AZQ8a2vwo0fwv/wALP+LP2EahrejG+/snSfBv/Eg/4SPw9/wkHOT4pHJPg4ccYJyRn83vH3/Bc7TfGOkajp+r/staT4wtbz/iX2ej3vxEP9k33rjHhXPhogcnAB9OTivzO/4LF+GLjQ/+Cg/xym1fNpba+3hLxBZG9sjzpHiPwH4bYfTCsMnuRxzXxP8ACr4Yz+OJtd1CwGl2ttpNl/oV7rX/AEFjr4x/wkHueevHQV/o9wd9HfwXw/BnDvF2dZLCtfDYOu6kpThy1qsKdapTj7OUWvZyl7FuPv2hOacaiUl+U4ri3it528vemskrW2TaTaaaffteyaaPtTx1+1v49+Jusfb9et7b4YaCb4f8It8JvgaNc8KfD/TyTknxCAT4u8SjvkliD35IHp3xN/aZ0jxz8NvB/hbX7j4r/Ebx3Z3wY6L4o+I+tr8KPDvO0Y+Hhwx/4Qzwu2T4vQ+BePEpbGFJ8dfNEHwxsNJANz4v8PjU8/6B/Y1hro0nTsegI/M//Xx6N8AvgP8A8Lo+ONroGoaf/wAUbaHR/EF9ZY/so6f4P/6AH6/4D0/Sak/D7KMJLiGUY0+HuGItuMYezioOzaUZc02pPVuU6lScndzbbHlGDzxY3+z1nt9Vq9f8ul+1ux9Q+Av2C/Hfxk8IaX4o0HwhoGm6ZdWJ1DRL3xTfnTNW1AgkdT3z9Pf1rF0DxR+25+whpGieNfhN4/8AEmpfBy6vG0+78A+Mr/8A4WB4UGunA1/QX8P5YeGvEYyWZo18DOwxs3Zr+lODw5o+heD9Lt9P0+1tNMs9D0f7DZfYQNJ07Rz1x+GeP0r8R/2kvin4H1ub4s/De50e71XXh45/4SCx8Zg84/5mPw/4i4I8Tck9OSeo6Gv578NPpIcVcdcVZ/kHEXBPBPFXh/KcX/qTU4J5uWF2v3jlzzlJ3heXNJJKa5GpJw+74i4S/sXAfX8uvHiHo46NNWd1pZLS1mmmm0z9Df2Qv+Csvw/+OB0zwv8AE/T7TwJ8RrzP+m/8T3VfCfiLkf8AIu9fF/Ppk/X0+8fH37RfwY8A6F/b/i/x9pfg+2tB01m9Ol6v6c+HRk+Jufbt3r+KPVdE0/SNZtbnGLYX39nj2PHbnHr+XtX7JeFJ4Pir8N/B+oeNtI/4TDXtK0P+z77Wb2/OTq/OccZIBGO/06V8x46eEnAvBuZZFxfkaqf6t8USfNCn7ONSyjJ+57ZqCfNaL57tLaM2rH1Ph9jMdxOv7Px9ulr3t+Gtv6uj7Q+Ln/BVb9nfwNoN1q/hjULrxlql1/yBPDF5ZeOfC+reIT/0HwfEvhTH/CLf14xX5I/En/gth8fPGV9c6d8E/hD4V8KranF7f3Y1v4gav35Ku8fg/GeOfBCjORu61+aHxq0E2Hxf8Tad9nP2o3ubCyN9/amNIz0/4SH8B/kcfqD+yV+wivjf4J6D8Z/E2n6VdeBLvxv/AMI8dG/tzXNK1XUeOf8AhIdf8NDI8Lg55BycDAB5P6Q/DrwP8OuGMm4x4hyGHEi4k5ZKFb963zxbhFRtBVXaUW21BKzk2rckvK4f/t3ijin/AFeWevVPWOlrbtN3tr6+nVePn/goF/wUq8Q6joU8Fla6IfFq6qdCtNV8D6HpKeIyfvJ4eMiRt4kKjuqOpbjJXkfL3jX9uP4pfFnXrOx+N/ia7+0aBef2ItkNGXTfCum6pvZPERYLnYcqchgGHBwFZc/0W/FH9m7RNDm0Bvir8Pfhp8MvAvxCvtH8A+FfiB8KNYx4p8G+LcMfh5r/AIf17w1k5/4SfG4HB8dEHkEAj8+fjV+zlo3jDx5/wgHjfw/4e+HPxO8E67pHw/8AiLrXhmx/5g/iL/kXvHp8PcDxN4XxjODzkHjNa8F8WeHGMrxT8KqHDMlo3QpRjOMVy+/OtGLjVtKXJOMYxnSl7KU5yVaCXucQeDme45rL8u46bT1vLZ3XSKty9GtGmr2Ssz5A0rw54h1XTf7Y0/w/dm1/5fr2ysc6T3719Lfso/Dm48Y/FrQftH2T7L4e/wCKgvrLj8c8fp9OnNP+Hniz/hAvhDq2gwacNctvD+uaxYWV54lvQuqaho517/hHP+KhVQAo8GHoAAoBwAABW5+zX4xv4P2nPDGn29xzq17q+n3v/MK0kf8AEgHb0IznOO3PXBxHmmeYzhfjlZc00nJJtON1HW7jJ80W1aylrra7dz4biHwy4V4Yx2R/8Ldtttd7aXW/roftrWdN1P1H8q0puh+g/nWFPP3/AJfke305H+Jr+LisX19f1Muft+H9a5e9/wBaP94VvzdT9R/KuWvv3H0/r0/P9KDA5a+6/gf5GuEvv+vg/wAx/wDr/wAnvXZX3+j+2PXnr/8Aq7/p24O9/wBUP90V6GD/AK/EDg9W/h/4D/WvL9W/h/4D/WvUNW/h/wCA/wBa8v1b+H/gP9a9g888v1b/AJe/x/8AZq8b1T1+0e3/ANfOfzP04r2PXf8AVXX0/rXjmrd/+Bf0r7vh7Zvzivugv8znP6+P/AercH/Tx1x/n9f84qpVz/Rv84r+VD7AuVYqvVigCxRVem/9O/PX369Py7ev869AC1Viq9EE9v6+31J+o/zj6GgD8If+C0f7Ilj8RrfwJ8frbSbW6Tw+w8A+ObuyYjVNP0kBh4bYrnG5Q7AHGcN4Txjca/EfT/Cej+F7s6fo9x9l0z+xPF2nCys7Lp/wjug/8JHz7ZI47YPJGa/tk+JvgHw/8VPh74o+H/ii3+1aX4r0P+zwenp+GefT8+tfxr/tM/Aj4kfAn4iap4O8caPqourS/JsPE9nn+yfEWj5JGveHfcnHXj1Pav7F8GOLcdnXC8eDswzv2j4Y9xQbtdSVlyuV7NSelrWvpZts8LN8HgfrzzDbrpb79N9rdenY8x1bxr8OdL8O2kenz+INd8YCz+xXt7rN7oX/AAimT/1AD4VORzyP58mv2O/4Ja/DLwv43+APxi1fQNftbb4iaqdG8IX3jK9sv7U/4R7RjoPza+CBwSVxnGeOOgx/OH8RbG48K+KtUtzp9p/xNv8AiYeFb29sf7V/4k/64/Pt71+j3/BLz9r/AMKfAX4g3GjfETxHB4a0D4hlvD3jWz2tpmleHsAHw948BAwSo8QZ2jBwDwK/YfGvgDiPEeEGdR4PnWrYhqhxlh6MIe0lVVOcXTwyoQpt1YJRtTpRp1eaa5HSnzIXBObZfHxG/wCFG0Vdu7aWrW921rv12u1azP3n8Ofs9/Eaxl1Tw9f/AB98V6nofiGy/s++s72yb+1jq2ONewSeAe/B61+E/wC0Z4HuPCvxs8ZeF7jV/wDhKLq0vv8AkZ+f+JjnQOMZ+v6HJzmv3s/aS/aP+FXwJ+HzeL/7e0vXde8UZsPBWi6Nrehn+39YBx4ePh8YyPC45ByOTxjqB/PrrmueIPGXiTXvF/ie4tbXXvEN9/aF79jvufb15PU7fev5l+jquMcbjM64y4lpOHDk06dO9CNHndGbp1OVKlSc5Qm3SqSUW/ar2dS1WDhD9v8AEx4D6i8vy53tvrffVdXa+6XbXbU8a1zSri+m+zDreX2B9i6+g54/rxX6A/CXx9qWjWfwf+HGlaV/aWu/FjRNX8RaL/xOiTpzL4+8S45xnA/sD6HOQOcn580rwzBqXgjU/i/c6da/8IP4fU2Oh3d6M6V8UvFvhsZGh+HxkHxJ4X8G/eBYD/hPPHePh+AQ/jpq+7/+CcXwW8TfE/4vaH+0F4vtrv8A4Qf4aeCz4S8EazeDQwvxB1Xn/ifc8YLf8JDg9RwM9a/XPGjPcBh+A+IMyzK0cm4WjKThOpUpRlxk6Eo8F4ZqmoyqVq06tDnoxlGdOnCSrKCdRU/J8Psq/sdrME78Q33ST96+kuqSVpWet3t0v+Sn/BQv4WeIfhX8cseIPslrc6p4V8Ia+L3Rb3+1dK03/hJNByQcHr7Z47e/69/8E9fjn+z14l+Aniz4X+PdY8KaYPhr4o8I/E6+TWr3O/wk2iBfiDtPhrn5QGXCnBLc8jir/wAFuv2c7jXdO+Hfxx8P6fjS9Jsf+EA8cfYgedHP/Iu6/wC3U89eOfb+dzxZ8KvHvwo1/W/E3w7n8Z658OU2fYPiHoaav/Zg0nX1YrofiXxB4fUReHvEhGFeCSVVdtp77G/TOCMtyH6R30dvCx4LO5cN57wy4qTi4qpDjSnVhdwjJyXOqEXCEXzOPu25knzfGVOIsf4e8b53mKyFv/WZ8zs2ndJtaKzlFy+KOzV076I+zP23f+CkGofGPxrd+CvgxYX3gf8AZu8O+K4PEPhfwspX+0b3VdEJWLXpZSwIlc7WVRjC8knIr9D9c/4KI/s5eP8A9nDwx8QNYPiGz/a48J+CdX8AWludExqfxC1jxJ4fk8O/8J54j8RMQBIfCuuSlfFbYkkbxCQisQK/ny1D4jfDPxB4U1DTvFngDWR8Qba22eFvHXhHWdB8MaMI/LUaNpPjrwMfCDN4hLuD5vipfGcN0sTQo4ucFhP4B+Kfgjw5piSFJItehaO6upbex/s3VHJdEbRPDviDW4/GzaA6s3mHxRAng+4jUlB5pj3H7DP/AAc4exmQ8G5fg8k4qprhKrRhh1h8TJzrxdNxqKvVXvVaNdRf1iUpUKkJzcadOEOaUPEyfxQnguK5ZjmOf3TcmnKLXKk1oouyUl9lLnTs5OTXur701/4j674A+FeqeD11fSLrS/iXfaP491z+xSRpWgEliPAhGe3THAAHisDPzEfUv/BPXSv+Eq+MFr4gx/onh7Q9Y1D7b9h5Gf8AmP8A+HHv9PwMOoeKfGPiXzfDOm6s/h288S/brDw6L59TEbCTIVgf9YwjBQsUGCQBuC76/qo/4Jw/AjxP8K/hlqni/wAbwfZvGXjc/wDHkeP7P0cZ7D88HnHXmvkfF/DYDgLw6z3B43OoRz7iiXLFRUacpNpSv7JSnJKEVCnzfA+RSTlOrUb+fhxb/wARCzzPcwakrPr1t1T7PpdJ67JJH6Qz9vw/rWDPPz/pH2TuMf8A1+3p6Yq1PP3/AJfke305H+JrLnnt/X2+hH0H+c/U1/BJ7Zlzz9/5fke305H+JrAvuv4H+RrVn5/0fr/n19f6nrxWDqHb8P6UAcdff6/8T/6Ca4y//wCnj8P064/DGfb3rsr79x9f6dfy/WuDvv3H0/r0/P8ASug884PVP/Zh/WvOdW/h/wCA/wBa9G1T/wBmH9a851b+H/gP9a9gDznXP+ff1+vOf8/WvEdU/wBdn7T+vt/nP4V7Jrff/gFeI6p/7KP6193w4tF527bu+v4I58Z/l+h/YFViq9WK/jw/QDQqP/t5/wDHv/rVJU3/AE789ffr0/Lt6/zr0AHUUU3iD06fgR/n8Sa9AAx/08N/n8adRVP7T7/5/wC+a6ANTz/b9P8A69fPvxp8HfDf4xaDqnhfxRo+k+KbrSf+XKyvv+Jt4c9f5ccfTvXiP7Xv7VFt8FvDf9j+F7i0uviN4ssf+JHZH/mHZx/xUHiMfr6cVy/7KHgbULj4P6D4o1C4u/7U8WX2seINcvf7c13/AImOseItf59P+pdzn3719V/qnnmS8K/8RAzDPP8AVd9t+/8AWxtw9i8D/bn9n/1+h+Uf7Xv/AAS+t59PtfEOkahdnwwDnXLvGhjVfB2SD/bp2kHxKCDzjHAOCDivw8+In7NXxe+ET23iLSNBtfEOkC9a/wBN+Jfgmz1zxNosbyOXAOuIhC+IA7MXh8VrGwyfL2ZzX9MP/BRHxlrFho1r8J9P+H/h7/hA7vHiDxx4ovdd13+1tRPbQP8AhIf+ZZ8LcevXH1r4j/Z68R3E/hXx58P7f/kA/EL/AJliyvv7W0nTv+Ec/wCRi/Hnw5+H0r+3/BrjnxFyTws/1hzLOlxVw8uZq+n/ABg7vactJXcW/gaUJJcslq2/n+Lcn4Gx/iNkfD13ws7WTW6Xk+l+6s7XV7Ox+aHwm+L3iO1s9J8KeCvg74W1Txzdf2sNasn+Anws1jVL4E8f8I94g8SB/F+FHO0LuGOBkYr6P+Hn7NPxu+M/iqKbx3pjjRjdsdN+D/h/UYyniFldmA8dp4XUf8JAgQKHkkkkeRgSggQtG31B/wAKxt4Jv+Jfo9pa3V2B/ppsR75+nvz617f8D/2hNc/Z1+Llvo0OgXnju2+IdjpF+bs3x0rVbHVvD3/CSAjI/wCRl8LgZzngr0wRzx8U+KeZZjk2ey8McmUuJY0pWlWqylJ04Wbp0p1p1PZy5OdU4xcZJXjS5JuLf6JlfDeBwWNWX8Xt8T8OptqMfdi5WaTqKCTlHmabT6+8+Zqz+rvgz/wTl8R6/PpfjH9qHxDa69/Y+n6TYeFvg34ZshpXhTwdowGPD+gqPDQwig8f8If4MwwwpI8cH5a/UbSvDmn+HbO10/R9PtNM0u0sTp9jZWX/ABKtK07356g+pznnPNfFtx/wUH13wzqNp4Y+KvwJ8QeDvE13/p+h3h8UgeFfGWkckjw94g/4RVv+Kn6428DkcE4qp/w8m+D/ANs/s/xB8P8A4saDdf8AIPx/YZ1XSf8A1K+3v29a/hDjjI/HXjeo8dmeRUuJIJupToYZw+qUo1EmnRjTqVIe9GMVKpKU60+T99Nzi4x+9wOa8K4LG/2fl+rtZt3vdd20m/JWSStZd/tPxf4W8M+NvDmqeEfF2kaV4m0PVbEWF7o2sWR1TStQ445GCCOuB2r8kvAvw18Nat8K/jB8C/D/AIL0rXPCPwo1HxdYf8K10Sy/tM+MNY8ReIB4iHiDxEQB4u8SeKFUDwgMAAL4aA4A49B/ao/4KMeH/B3hU+H/AIPn+3vHmrWX2/8AtrWrL+ytJ8F+/iLkn/hKMj/kT/YYr5e/4JbeP/FOufEjxjrBuNWutUu73R7/AFuzP9hf2t4i0fxHoJJ18Z44Ph8k+ncdz914beHXH3CPg9xrx/n863C3DdPEUMVClGtWpQ9vRqQcav7urBwqckHThXhy1qalzU6kXGEl8JxbxBkTzzJMvy+2qavZN2a21TuurT0dtVueG+Dv2XPgLb+IvOtvhn4KtLjX7/my1jRtd1UeHdI8Pc+IgfD/AIlPP3e+cYPTmvxx8bfCX4f3MlrqOg6dFp0y65rBNw0jtGultr4fQcIWKZPhkEscEsw3c1/T5+3LoVv4Q8aaJ4/04f2XbePxrHgPxVZf8SL/AIl2r+ItC8Rr4f13HTGDuyQD8vU5Ar+cLVb839p9ng66TfaxYZJ6/wDE/wDU5yT659fpX9c+AfE3EWe1s3z+rxDiK0KkYSpOtXrVYUlQnWozpwjUnKMXGbpxTUVeKTVnJ2+C8Qsny/8A1I+GKcX0jG6bSad7XTtfW6eu57d+z18O9A8OS6Xr32C1x9u5vBY8fkM+uf51/Q38Mp/P8H6WPs/2X/r+9zyM/lX4Z+Fbf+w/CtpqE9wbX+yf+P77b/I59+4r9X/2evibpHjDwVa2+kah9pNpjT8f8xbH9eK+A8ZMJmGd51neYtycY+6m3Jxjf3uWLbaju5cqave9t2fnnCeLwGCwP9n9Xr6/qz6V88eT2xjGO+P88+vfpxVWft+H9aq+f58P5E/1/T8etVZ5+/8AL8j2+nI/xNfh31TyX4HuFWfn/R+v+fX1/qevFcvP0/0i464/z6fyrduLjyPr+oP8q5i+uO348/8A1x+PX3x1Fcx6BhX3T8T/ADNcDfdfwP8AI12d53/4DXB6t/D/AMB/rXQeecbqn/sw/rXnOq/9fPt/n+g+td5ed/8AgNec6p/7MP616K1a9Uc55zq38P8AwH+teIa7/rbr6/0r2/Vv9Tefh/OvB9W/115+H8q/Q+HVovK35pfqc2L6+v6n9jH/AIB1Yg/6eP8AP+7n/P6VTrQr+Kz9RCrFV6sUYTFnQFFU5/3H/wBbv6dc/wCevtxvirx/4P8AA+m3WseJ/E+k+GNLteBeazff2UT0+mc+g+tfZYNPHO2XJtuySV2227JJK7bbaSSu23ZJ3seed7N1P1H8q+VP2k/2jPB3wI8H3Wr6zqNp/al3j/hFfDP27/ibajrGefXoOv8AkV8W/tCf8FSfA/hyHVPD/wAF9PPjzXsZHifWrE6V4T07qPp4m/PH8q/Efxx8RvHPxU8VXXjD4gaxd694o1bH+m3t9gad7c8f5Ff0F4efR74q4nx39o8Yr/Vjh297a2eqdm1rZq+3fufn/EPG+BwX/Cfl59GaHq3jD9pr4zWv9oXH9qa9431z+z/+wdo/HuP+RL4569+K/qA8K+DtP8K+FdB8P6fb/wCiaToej6fnPvz7c/lx37/lX/wS9/Zl1DStNuvjh4p0/wCy6pq1j/Z/hSyvbHnTtH76/g/9Dp/+rrX7M30H2eH/AEf3447+4/z24zXl/SE4hwONzzI+D+H/APkneFz7LgjCY76j/aGYH5bft6/Baw8VeD7rxBc6x/YOleHrHWNQvr2y0P8AtX8e/wDnvX89v7OfxNt/CvxU0G41i4/0X+3NH0+++2/8w7R/Ef8AxTfbPTPJ/wAa/r4+MWleFtV8B6p4f8QXH2q68Q/8S+x0X/oI9f8AhIj3PXPcV/Dj8adD1j4SfFXxR4H1j7X/AGp4e1zWNPvftv8AzEfxx+mOtf0t9E/Cf6z+HPHHhfxAfB+JuL+pZ5kfGGX/APNL/wBf1sf0J654VsLfTtUI+yWmLLg/Ycg4P/1s9+vHFeDfsveHP+Fjftl/DDULjTzdaXpNj4w8QWNl/wBQf+wCee2ePDv/ANbmu0/Zz+Len/tC/s9aFqNvcG58T6VY/wDCH+N7Ec6qdYB514E548Zg+vfnqK+tP2CvgVf6H8V/Hfxm1+e0+zat4XPhDwtZ/bRyP7eHiPxAB4f6jroGeMc+LTyen8uPNMb4fZH4rZfxjU9nxDwvSnwTGL5rym2oKmk0mueLunLenFyvJWv/AEDi8X/bWByLMMvXW3l6/Ly69j239vz4SaP4y/Zw8Y6vPb/atU8En/hINDvO3YgcD15/Cvxu/ZC/aM1f4LePLbUNZ1fV/wDhDtW/4p/XP+occ8694d9P88dMf02eMfDmj+KvCHijwv4gt/tOmeIdD1jT77HGOh454GPxr+QCGwMWtkad1tGOftvP9nc446+or5/wDzLBZ74b8b+H2eqUshdVU1Fap88G4pK91LnjppZ6bvR+XjPryx/9oYC1rN/c/wDI93/bM0TSNV8Ua7r9h9kxqpOoXt7Zf8xD/hIs517B+uT7nuTVT/gmH4jOl/H7Q7e4x9lurDWNPvv/AAReJPEZ9fXPX6ZrxL4yeOjpngS20m41A3X+nf2fodkf+QUB08Q694e/4qpQSMdhzx0r0b/glp4V1DVf2g9N1i3uLu1tvD+h6tr17e59dBHhw47/APMfxn371/TeNwkcp+if4qZdxBKc6caco05zT5pxp06ipWV27uXs4qKlJRbUU7R5Y/G8Q4v+2fEbI/7Pte6bt5tf8H9e5+lf/BQrQ59V1DxVcahrHiHQfh34H+Fmr/E/xULK8/svwmfF/h3X/Dfhvw9oGSSAfGR8QAD+IluOQa/nE8D2P/CR/wBp3H/H19r1z/63p788fhX66f8ABTX40fFD4j6lpf7NXhe41bxPpdtqGkeMfFOiWVj/AMTbxDq45+Heg9OFPhfw9/wl4PIJ8R+Eh2r8+T8JNQ+FfhW10/V7i7uvFGrD7frl7Zf8gnw9jP8AxIPT6+nGPWu/wKyh8L+B/A0cxsuIeJYJRsnFzjKU5RqST1jKcHCTT15fZq3Nfm9TjbF/8If9n73/AAfVffdfeWvibrlv/Y/9n29wbq6/p/L+WOMVy/wI/aM8QfA/XrX/AI+7rQbu+P26y9/ocd+OlZmq/Z/J4x07/p7dfx9K8u8R6V/y8A/8ff8Anp/XrntX6/lOEwP1H/V/MD+VsXi8d/zLz+jr4WfFvwf8VNBtdY8L6xZ3Vr0vrL/oHfjk/j6eleoef53OenOOv698f5ziv5a/hl8Y/HHwP8SWuseD7+7+ynm+0W9vidK1H8OncH9M44r91/2ev2qPCHx30byLe4tdK8UWv/Ib8M336+nr17c9M1/P3ib4TY/Jf+FHLteHEruybt01dtFdpXbSbaSd9D7zh7iz67/wn5gfVM8/f+X5Ht9OR/iawb6fj/r09OfTHXFE8/n/AK984zn3/wAOlYM8/wDhx/n8QD9T2Ffgv1TyX4H1Bl31x/y7Y+n+ByP6+1cbff8AXwf5j/8AX/k963r+fyP5fX/Pp+lcbfTj/j375/X+eM13gcvqn/so/rXB6p/7MP612Wqz/wBBx/I4/l+Z6Vwerd/+Bf0r0AOD1b+H/gP9a8H1X/XXJ+0frnv3P8uODzXsmqz/ALnk89Ov59B/k+9eN6t/y9/j/wCzV9tw8mk0/Jbf3kuv6emxy4v+vvP7JKKo+cv+c/4Ver+IT9aJv+nfnr79en5dvX+dGP8Ap4b/AD+NEA8jnj+X9ev4++adXOdA2eC38k2/r/nn/PrX8W/7Td/4w8H/ALQnxP8Ahv4p1/xDc3Wk+OPF4/0y+/tT+0cAeI849e59Sc8V/aTP+4h6e/8AT0/w/Cv5iP8Agp38Hbj/AIbAGsadp3+i/E3wr4P8QfbQMat/bHHhvxF/wjv/AJbvPav7O+hdm+C/13z3Lsw2fAivtra9tbX6vZq/W6sfk/jHhP8AhD/4Tz4F8OWNxffZevT/AI8vr+fbviv1o/Y7/YYuPGN3pfxA+LGn/ZPC9n/xMLHwxe86v4i//Bb/AOvXrX7Gn7D+n6VZ6X45+JFv9q1T/kIaHot7nn28Reo/LjJr9aIILexh+z6fb2n+ifXr6/yH5n1r9a8Y/G7/AJo/g/8A8Ts+X4T4I/5mGYHeaTPp/hzTbS3t7f7L9k/4l9jZWXp0OR+P+NcH4j8R/FDVTdf2Pb2mg2vH+m2VjoWq6t3/AOhm/l/SrUH+u+0evp3/AA7f5HatQz+R09P5Y/Xp6dsV/IP+w4LHH6weIwT3GlaldafrH9rf8LGu/wDj+vfE/wDxNR4i0cdvDviE/wDFI+9fhn/wVk/Y08UeI/8AjIj4b+H9WutTtLH/AIrjRbKxxq2o6Pn/AJD/AKjr6fzr+jDXND07xHpt1o+sWwurXA7/APMY/wA8/wBa4Ox0rUNKhutG1DUP+JD/AMuOtXtjrvirVtR/+Znr+n41+yeHviFjuC+Ksj8QOD/+Si/6IT/qhDzcXhMDjcDnnD+YH8FnwA/ao+JH7NnjweMPA9ubm6yNP13wxe/8gnxFo/8A0APEX+fx6V/Yb/wTp/bZ+B/7VGj6mPC+vaT4f8e2dgb/AMV+C9avjpWr+H/+xfGSPE3hgZwQCMdGw2Sfl/8AbB/4I9fDH9pCK58dfB6C7+F/ii6z/wAftjoek6T4z1c9dd/4R9SGAIyDtYHBIyM8fzsfHP8A4Jjfti/s4Xj69J8PPEGs6Dbct4q8Haho2rpp+MfKR4X8S3Em4/3shcAbiMCv6Z8VeH/o6/S4yX65/bn/ABC/xkmkr/u+bmWsVzVpwhxxFNK8lODSbV5L3D4DhXGcc+GD+oW/1p4cWt1e/Z6JXenk/Rbr+2f9q39qX4Vfs0fDHVPEHifxP4f1XxPqljrGn+CPh/Za5of/AAlXjHWD/e8P8keFfTxj3xgDNfyy6T451m3W51BrgWlzeX32++vbsAAYHAGTj8T15+tflv4e+Kt98MLm60bxB8L7TSvFMdyX1DXdU02YeKmYMSI7aTXhcLoGAcmfwylix4Uh8A19s+BPFd94i8LWvi7Vrrwj4FtdUyLG/wDEvxE0QBsZJP8Awjvhw/8ACYnPbcinA5Havh+G/ouz8IMjcMrlX4qjxFOjUxXGWKVGm8TVjNqFOFOhUqxVOEJVH7SVWq225pKDgl+w8OcdYHPce1/bnLNJq1pXgnezfNFXba05dHbRuzMn4gy+IPFPia7vtX1C7trTw7on9v8AinW7y9/5E3SOB4dC9f8AiqPGhBCnJ69STX7i/wDBLDwND4B+E/if4j+L9IFr4a146R9i1qxK6bqfh7WBjw54d0EeHwW8WMD/AMJDj5SwP/CR5BP/AAhQA/Pj4EfsleL/ANq/XtBh8MQXXhj4EeHr4a/4p8f3mh6GuleMvF+f+ZdA8U/8Jb8TB2+Hw8ZEEZPQdf6GtK+HXh/4WeFdC8P6fj7NpVj/AGfYi8GP+Ec6dgP+Kl8Ujp/wmI6dAK+J+klxLl9LhbJfCOl7lWc4z409nJJ4elGXNCzi5ONRuMbXnKagmqsOabS9jgfKMDg/7cz/ADHVJW4Fvrdv18vK19nofPt98OtIvvEeqfE7xRpGk/8ACxNWsvsH2z7Doe3TtIAx/YOOQTjjPXoPr+af7ZmueF4IdK8L6Pbn+1LS+/t/W732A8S8c8/h0/Gv0D+NPxUt/Cmm3dvp9xjVP+fLucf4e3GK/D34t+I7jxHr91qGo3H2u6u+b69/zz/n618t4T5Bn2d8U/2/mUptcLxUUnJtJRbcVZtrli3PlirKLk3FRvK/zPibxX9SwP8AZ+m/b7/03+fS3jf277RxcenXv1+p/Lr1qrffZ5/6f59frnp3rL1Dt+H9Kq2975H+j5/X8fw/T8O/9YH86mDrmlfaIef+3Hr/AIeuOnPXivLtK1zxB4A1618QeH9QvNL1TSP+n7r7n/P/ANb3m++zTw9sD/H2x6f/AK68v8U2P/LwPz/yfwJx9PSvoOHs2/5l+YHz+Lwn1L+v6/4J+r/7M37bOj/Eb7N4P8f3FroPjL/lxvf+YT4i7fTjGPfv7/d88/nw/ZxcWnoD/nHPY9/pX8q8/wDoE4Pn3eQf9B6devY+38/pX6m/sh/tbX5Fr8MfiPcYI/4l/hbxLe8YPT+wPEP+znjGcg8HOa/HvFfwZwUlPiHg2ylH3nDZ8t/ecE9+XdxvzKN5LmUXb7Lh7iz67bL8w/r+vz+R+nt/P7f59Ov4foT3rl7+f2/z6dfw/QnvW9POZ4fpn/Afz6fpXG31x2/Hn/64/Hr746iv5oPvjCvun4n+ZrzjVZ+32j16/wCfzH6V2V9Pj26e3+P4d/xrg9Wn6fX/AD16Y/H8e3TFXkl3a/rUDg9U/wDZR/WvJdW/115+H8q9Q1Wf9zdH88cfrzn8K8l1af8Az6Y+vTH4ge/b77IYtdOy+fKn+pzn9i3/AID1bg/6eOuP8/r/AJxWVBP/AJ9f5Zzj/J62oO/4/wBK/hbF9fX9T9gNirFY9aFYgTf9O/PX369Py7ev86+c/i38HfB/j/xt8OfGHiDT7TVLnwkdY+wC9/l/h69/f6Ctu3+f71ZeuWP27R7qC3t8XR4+hx/n0/nX3HCebY7hjPP7Qy85c2wn13AnBwfZ7GE/Zx/ouOL3/DnHb/69H27z/wAfw/x6/wBffnl557iCb7Pcf8fXGbLv/kfT0oN91+zfUf1x+n6ZNfqH1P0+7/gnzH1vzf4neQX39D/M/wCSPcjvVv7cPf8AWuCgvv8Al36fn/h/nH5akF9b/wDLv+A9f8n9PavnzpOy8/8A5d/8+m7+n+c0fbrjr9n+1ell/wBBHPPc9f6E/hy/26H1/n/hWp59zP8A8e9vd3N3d/8AHjZWR6465612YXr8x/XPT7/+Aahvre+vPtH2e7urr/p9/wCQTp3r9fyPPGKtX05n+1af9ntPtVp/x/WWf+JT4dxyPXPuMfhzz434j8f6h4P8a2vw41fwB8QtB8eatff2fof/AAk+h/2VpH9sY4Ix4U5+vHX2q34x+NHwY+AOu6X8OfiB430q18d3Z/t+/wDDNl/xNdV04nn+3vEJPHhnwtjnGenbrXq4rB568c8vy7Im7Jt2Tdoq15Oydkrq7dkrq7V1df2tgPqP9oZhnnp89rf18zK8U/BD9nj4mT/8V/8ABf4feOyP9AF7rWh/2pq+o/44/Tmvmrw5/wAE0v2IPC3iS18UW/wI8P8A9vfbvt9jZa1rmu+KvCmn9+fD3fP8gB0HH3L4O+I3gfx/4buvFHgfxx4T8Z+F9Jvv7P1y90Ww/wCRd/7GI+n+c14R+0n4jt/Cv9l6xb3H2T/Tv+J5ZWXXUdI/sDw1/wAI7r+M/wDYxGuXh7OOOsFjf9Xcvz7j3heKd1G7sn3Su0n52T8zq/4Q8bgf9YDp9V8VeHvCumm3t/8ARbXSf+JfY2Wi8aTp2f1x/kCvg/4xfH64/wCJpb6PcfZf+f697DHX+teS/FT4/efDdafp+oD7L/yD/wDQuPyPH1HH0r4F8ceP7nVf9Ht7i7+y/p6ev8/ev0XhPwn/ANu/tDiA8HNvEL/Yf7Py8Pib8RrjXJrv/iYXd19ryb69ven4/TpwK+S9cvvPm+nr/nP+OenFdRrl95/+f556foefavONVntvO65/P+p/H8K/pbKcJ9S/5F5+I4vF/XccYV/P7f59Ov4foT3rBnnuPw/H/PUdOOnYddSec/8AHt1/w/8Ar/56Vgzz/wDLuP8APXngfQn/APVXvGJanvsw/wDHx7np39en6c/SsHVe/wBouPU9f6//AF/YetW/Ptf+fc/ka5bVZ+n2j+nf8wPbHJr1MJhP6/E4cX19P0ON1bv+P9K7Lw5oY861uLi4/wCPv/PX9f8A6/NZelaV9um+0XGfTHHfp0/n/jXeQHyJrX/P+f5+/evexeL/AOZf/kdWU5T9SP2Q+CHiMeI/hxoP9oG7Op6T/wAS+96ds8+n54/x7K/n9v8APp1/D9Ce9fPv7NmuW8/gP7P/AMvVpfdvftnH4fX3r26+uO348/8A1x+PX3x1FfxbxFhPqee567W1bsr2V3svJX01ukkfqGE/3H5GDfT59+nv/h+Hb8K42+uO348//XH49ffHUVvX0+Pbp7f4/h3/ABrjb+f2/wA+nX8P0J71552HG65P/T17f4dvT37+N6rP++9fz7/l/wDr546H1HXJv3Jz2wcdc8/5x0HHtXkmqf678v5Gvssgp8qTa11/Bo5z+yD7T7/5/wC+atQT/wCfX+Wc4/yevMecff8AIVpwT/59P54xn/I6fwr9T9Pu/wCCfqBvf9O36f8A2X6/5xVr/X4xcfn/AJ/zxjtWXBP/AJ9f5Zzj/J62vP8A+XbHv/XGf65oN/rfm/xNio/+nf8A8e/T/P5+1Zdalt2/z/er1ML1+Yzznxx4WuJ4f7Y0e2/6/rL/AKCHHP8AX/A9/EZ9V/z+nJ/nx6Cvr7yPPxbXHbrjv/kfpXz78VPA9xY/atf0e3u/snW+/wA+/Xn/ABr9G4ezb67/AMJ+YHyuLwhwf9t/9PP+i/559evb9K1P7c/5Yfrn9f6dffFeIz6qPO+zn/Rf65/z0xzVU+I7eD27/wD1/wAfp/8AX+oxfD39bHl4TFn0ZBrltBnv7/X36V9ffsy+FbjxF4q/4Si4+1/8Sn/jxsv+YT/bHPv/AF9K/NPwrrn/AAkevaD4fNx9lutW1zR/D9je3tj/AMSnTh4j8Qf8I3+HXrkfSv2GvvHHwP8A2H9S8L/C/wCIHijxDdDxZfawLHxPZaH/AMSn/kAH/hHdA/4pn/ir/E3ijxp4p8Q+HfB/w+8HeC/A2f8Aipciv6C8BvD3A43PP9YMw/5pc/OfE3iz+xcD/Z//AEVB9A/8Id/wnGpap4g8QeKPEOqaDd+KtY/4RXRb3+wv7I04+HP+Kb8Rf8I76H/hKfD2efrmv4mf2tfC3xA/Ze/bS+PHhj4r3PiDX7rxZrp8X2OtfbxpWreItI8RH/hI/Duvjn/oVgfB58G/nX9svwP8SeKr7w5odv8AFHT/AA9pnxj1fRF8Y+NvDHhe9H9lfCjwd4j13xIvw98AEljv8VDwyG8Jf8JmFQePvHfhzxb8QQPAvw5TwJ4Dbyf9sT9h/wDZ/wD2xNH0H/hbGkfZde8EWWseILHxPol9/ZWreHdH+g9+1f0b9T+o57nnEGXtPiLy1v8Agn18uvkLhLiLA5N/wn8QacOq61Vuv3dPPRrY/j08KftDfEfw5rOl+MPAGr6T8Orn7dpH9uXmi2Wu6pq3iHSMf8VBoXiLw9z4Q8T/APCZeGP+Eh8I4PX/AISPHHUfpF8RvgB+0f8AEb4J+Mv2mPHHh+08L6nd6Fo2oaH8Mb3A1bw78N/Dv/IvZx/zNI/5G/4g5+vB6fp/8Af+Cb/7K3wrm0Hxh4X8P3fjLVNJzqGheJ/E+uf2rpOnf9R8eHsf8Ih/jX19BBp/jjUtf+D+PtV1q3hXWNQ1z/sD/wDIt+Iv+Ed6/wDM0+Hv/rivmP8AUn/WjGLPuIMiXC6i207Lm9617yWslorKV+XXl5eaV/V4s8QuFckyPPMv8P8Ar+l/8z+FPxH4juL7/R/tH/1x3+g9j+FeSarqvn/XueD1H+f6e2r4xnGleJNd8P8AX+ydc1nT+cZ/rj+f4V5zfT/8u/8Ay9Z49enTjnj8fw615OEwh+c/W/NfgZWq33nn3/z/AJ6nHNcdfT3E/wDz6f8A6jz7fj9K1L6f9z/+rr/9cZ5yPauXn/6d/td1df8A1/x/z1469WE6ev6nVhevzMybqfqP5Vkzf6k/Qfyr1HSvhX8QNc/0fR/B+rXXf/jx9/U+/U/hnvXL+I/B3ijwd9q/4SjR7vQT0+23tj6npj8/b29fUwnS39aHX9U8n+J5zPPcT8f4d+vbI7/562rHQ7ifFxf/APHtdknP5dCMHjHH5dq1NDm0fVLsQWFx/wATO1/4/vtuf7WOOMDkg89q7Ke3t54fs9uf9F9/89P8969bF80brWLdnqrO1+ZNXSavo01urWbQvqn1L+v8zjfJt4If1+2jH0//AF//AKqy55/Im+z9Px65+voe/wCXSt6+g9/9F5/x9M9f8cVy99+4m+0fj19/x9f/AK1ceG1v31PSPvr9lfxH++1TR7j/AI+s/wBo/wCfr+fr0r69nn8+H3/H6fhyelfmB+zL4jt7H4hWtvcC7/4m3HTnp079geefzGK/SKe+/wCXfr+f+H+c/n+EeIeUPA8VJ6pNJq/XdXXdXTXyPWynF/7D/X4lW/n9v8+nX8P0J71xurT/AOfTH16Y/ED37al9Pj26e3+P4d/xrjb+f2/z6dfw/QnvX51HC2knZ6PzPojjtcn/AOXfv/If1/8Ar15Jqs/pcehOfx/zn9a7zXL/APz/AJ/X8c968v1Wf+g4/kcfy/M9K/Rsnw3LZ+fl6dU/63R55/YX9uH/AE6frWrBfdTcXHt/Lsf6/SvL4NV/wOR+GT/X8D7VvQX1v/x79O3H5fX6fTviv4X+qeT/ABP1A9Ggvv6H+Z/yR7kd61IJ+/8AP8h2+vJ/wNecwX36+3r/APq6da1IL63/AKj8en9T/wDXrl+q+f4gd5BP/n1/lnOP8nrpw9B9D/OuOsb6D19u/X16etWr7xJp+lWd1qFxcf6Laf1/rn2x7V72U8PY7Osd/Z+XnPi82wOCwP8AaGYHo9vceR9P0A/nXjXxF+Kng/Q9B1S2/tm01TVLux/48rK+7f0/PmvB/Ef7RfiixvPtOj+B/D11pf8Ay/aLrZ13/iY6P0P/ABUPhnxXjHb/AAq1ffCTwf8AtC+G9U8cfAfWNWtfGWk/8jx8JPE98f7W0726/XrxzX9VYT6J/HGCwP8ArBxAfjeE8buB86x39n5fnh8v32q+f+PT7b+vccde+emay59V8j/l4zdfh/n+R9D0rCvodQ8OaldaPrGn3el69Z/8S++sr2x/5B2e39cj610/hXwrqHiq8+z6fb/6Laf8hy9P/MO9fwPr+tdWE4Tx2Nx39n5eepi82wOS4H+0MwOD/wCKg1bWLX+z/tf2r7d/Z9iev/E4P+een5819QfCr9qH40eOPiT4O+DFxo/w++LPx48W+Khf/s6fE79pyy0LVfCX7K2rjQCfiJ8XQCf+Eu8TeKf+EW/5J8f+E4z/AMU0Ph38N/8AhBB428eAZf8Awh1vquj6pc6fb/8AFG6TY8Xp/wCZi1j/AKl318Lc/wDI44AB9ORXl/iPwB/w0Z4V0v4fXH+i/FrSb7WdO8K/E6y/t3+1vGej/wDQg9/+KpPqeK/qvhLgnA8L4FZit1/Vt1o+q7Np7tH808Q+Jv8ArPnn9n5e/wDkqP8AkhP9ez+iT9lfXfhzD8Mvs/w48feLPjFanxTrLa58dPE1kT4r/aW8Y5/4RvxH8Wv+EhPhQeEvE4Hinw8PB6nwYW8BeAvAPhrwl8OiQfBA8A+BfcPibP4wg+G/ii58P/2TqnjK7sdH/sOy1rQ/+Eq0nTdY/t/w1/zL3/Mzep6Gvyg/4Jl/EbUP+Ek174P/ALQGoeIdB+I3wxsD4f8Ag9Za1oZ/4RPw74P/AOKa/wCEh8A/DvxF/wAzN/wmn/CPeHvGB8HEf8J8f+Eb8W8+O/huD/wgp+1R/wAFFtAntNe8E+CINX8HfDjSb7Rr+9+OfjUa5pWq+MtY8Oa+fEnh7Qfh38Pcf8Lf8TeGD4p8P9T4HK+PQAFUfDcsWG8dg89eAduKG7t2VldtvRJJLfZJJLaysl90s2wOccKrH5g3wztdu10ratvS+3S7fN2Wn1/4x+MWj/Cu0tNH+MH7VH7Pfwv17Vdc/s+xOteB9d+C3b/kAeHfD3ib4rf8VN4p/wAmvEdL/ah+G/7MvwN+KH7VHxYt/wDhV+vatYnw/wCB/hj4nH/FWf2x8Of+Lb+HfhF4d8Pc+L/E3hb/AIp7w74x9vAPiX/hYn/Q+1/Pvrn7W3w/0Pxtr3xI8LfB/wAPeMvjx4svv+Egvvi38Tv+Jr/Z2sHr/wAI78Pf+K3/AOEZ+v09a4OD9mz9rj9uDx5/wnHxQ/4SHS7W7sf+R08T/wDEq0n/ALl7w96nP/Ml9K+n4hzb6lkf/GQf8Yv+Op+Y8PcQ/wBtf8J/D/8AxlH9f1sfl/Pqtx4k8SaprGoAXWveIdc1jUD/AOD/APznr/OvtL4SfsJfGj4qWf8AaGoaOfAeg3f/ADGvFH/IW1H/ALl7/Pr71+5n7PX/AAT1+C/wPmPiC40e08ZePOP+Kn8Tj/kHf9i74e/5lnoD/k19Vf8ACK6fAf8AR9PtP6/59/8AGv5f4h8TcDgsd/Z/D5+3ZTw9jv8AmYH5B/Dn/glf8H7H7LceMNY8WePNU/6cv+JVpOnf/X74/DtX2T4O/ZK+AHgEf8SD4YeCdL1P/n81o6Fquqjnr/xU/T/PPFfXk9hbf8xA/av+v39fT/P0pT9ng/5d7S1/7cfT06evpx/P8vzXiLH5ymsfnrV1Z2bSa3s0nqr62aaur9E19lhMJ9S6f16nksHgfw/Yw/6Po+k/+AP/ABKdO5wP8n88dfjf4+/8E2k/aS1u08Z6D8Q9M8C3dpp7afofhrV/C2satpOHTw7G+ueI9e8PSKvhvemgsrZUjBPzY3LX1V8afjT4H+FfhXXvEHijWLT7VaaHrGoWOi2Vj/xNtR/Dj8859evP2V8DPiL4C8a/C74Q3eg3nhiDwte/Dnwhqen3V7ret6bqmvIFQf26mzxKr/8ACLtjI8XFpCSeMkkn+g/oycD4DO88z3iDMcjTVvhd7Su0raW2Wrvo13P3zwXzfH8F43OuLuHlJcQTbU6iVNqnGMXK8o1E1JTa5LRi5X1dkmz+dzSf+CAXxP8AiP4K8feO/hN8dPgl8TdU8N3506bTvhl4p1nVY08WeHjG3iDQ5td1TQCvhvxL4SfVonC7JGEmtRvJHFsUt+IereFtZ8O3l1o+paReW2qWd6NOvtGvrLJ07V1G1Rk54AAAGcKAAMCv9EH/AIJh+IdY+JFv+038TNZ+zW0+q/tIeLPB90+l2LaT4b1D/hXugeGm0L+wtB3bC3g3wrr0HhBgAp8eP4YYklWUL/Eb/wAFXIv7M/4KGfteaTp1ti0b43eLtSsRZHoPEg/4SXBHt0Oehz7V/R3HWTZbHBZH/ZlNQtpK0pSTaukkpaxtGKja7fdu2vieKvFdTjLifjrIOJMp4Dq8ReGnJUhx0qNKi+TjmnTXHXA0nQap1eaVRuM1ThpZwjGMuSP5+6r9nnh/0i4/8Avb/P5ivL76+t5z/nOB6/559OOO81WDyPtVtP7/AI57+v8A9evOdVg8j/l3x162P6fh2Pb09PgPqn9aH4QWvCviq48LeJNL1jz8XVpfdumMfie+f/rV+uWieI9P1zQtL1DT7j/RdWsenf8Aoe/49O2a/FuexuJp/wDj3+1EHtxgdAR9D/8Aqr7++CN5f2fg/wCwX3Jx/oQz3wPxx2GfXGM5r898VsmwMsuybMk1zQcfc0TlGV03FdeRr3klZRd+g8pevl3+SPpK+nx7dPb/AB/Dv+NcbfT+f/y8f4fX9Ov8jRPqtvx/j9ev9fqPx5e+vv8Al3/I4/Ukj655/DvX4fHCPmVk7+l7d3Z6aI+ne3+X/AMHVJ/P9Oc4/X8P89q851Wf/P8AM5/Ln9K6jVbj9z1/I/4D/J964y+6/gf5Gvtcqw1uVpaK6S9N/wBDnP6vYNW+vr9e/wCIP6ge1akGrfT1+nf8CP0J968vgvv+Xfp+f+H+cflqQX3H+j9c/iP8/wA/ev48/sn+tD7z615fgeowX3H2e4uM/rx/LOPzrdsb7sfrx+fb/PcdjXksF95H/P36fz/z1rUg1b6+v17/AIg/qB7Vy/U/T7v+Cdf1vzf4n0Z4VsdY8Y6xa6Bo9v8AatUu/wCZ/Mc8e38q9Q/aF+Dmn+APBNrb3Fz/AMTW7/4/vTUe4/z+dfRn7Hfwr/4RXwrdfEjxBb/ZdU1ax/0KyvR/yDtH79e3/wBYcV8l/tQ/Fu3+I3jy6t9H1D/iQ+Hv+JfY4z/xMT/0H+P8/lX9keA3BH9i47+0P+aiP5y8Y+LPruBzzh//AJp0+BdV0r99df8AL1c/h+Htj+vBNYMEHijwprGl+OfhvrGraD478Pf8TDQ72yx/xMef/UWx1/pxXsl9pX/Tv/x6c/6bYnOnEfp/k4rB/srzzn7ReYu/+XGxvv8A6/8AntzwP7S/tb6kfyD9V8/xPoLwPpXw3/4KI6b9muPsnwv/AGjPCdj/AMVVo1l/zMWjn/oXfb1Fey/Fv9nP4b/A/wCGOg6h8QPGGk+DfBtpoX+g+GM6Fquraj4w9P8AhHv+Zm/zmvzc8VfCvWJ9Y0vxx8P9f1bwJ8UPCZ/tDwr400W+/wCJtp3Hp649MHp7Z948R/Fvwf8AtUaba+B/2kPD1p8G/wBpbw9Y/wBn+FfiDY32fh78RNYOgf8Au6f9Cd+Pw2rlwnCfCv8ArV/aH/NO8UH2WbcQ8VZ1wP8A2fl+R/60cRcL/wDJCf8AVdniPiP4m/8ACcaln/ibaD4N0n/iX2NlZf8AI2ahz27/APCU/l4B8A/9T7VrVfHHw/sfDel+GP8AhF7TVNeu/wDiX+FPhJ4L/wCJr/wjusf9B/xF4h/5G/4meKc/+ED/ANT51rB0r4SeKdJvbX/hMP8AhHvBul/8/t7rh1bVsf8AUu/8Iz29vr7V9ffDL4EahBDdf8K/8L3fgO11ax/s/XPid40sf+Lhajo//QA8O4/4q/wz36/8IJX3niF/xB3gvI/7QzDPP+MdP5B8Pc28fvE7PM8/s/I/+Mi/6rs+I9c8K/EDVYdU/wCFkf8ACQ6nqlnY/wDFD+GL3XP+Eq/s7VxydA8RfD0d+e/Xv615f4O/YK+MPxU17+0PFGn/APCuvC13/wAf17rX/IW/8J7/AJG/n3//AFfub4H+Eng/wP8A6Rb293qmqXf/ABL77xPrX/IW5xn/AIR3/oWfX6V3c8FvAP8AR+/T8On0/PtX8b8Q/SEx317PP+IX5H/quf3Nwn4DY7G4HI8w8YM8/wBaOIv/ADRP/wAez4t+C37CPwI+C32XWLDw/wD8JRr2f+Rn8af8TX+zsf8AUvdfTr+PpX19BYW9v/o9vb/8emfsPftz/LHWrfkn3/MUTdT9R/Kv59zbNs8zrHf2hxBnn+tB/RmU4TA5Lgf7Py/IzAngt8/6Rcf456c/596y54O38vzPf6cD/EVqTz20EN1/06fh6E+/+e5NfPvxU+MXg/wBpt1cahqFp9q+wH/QrL/PI/P8a+X/AN9/5F/9f1ue/wDXPT7/APgHZeI/Eej+HLS6uNQuB/onXr/njPXj+efzx+OH7VNtYw3Vvo+oWml2v/Qa/wCYtqP1/wDrfr1HyD8d/wBtLUNVu7rT/C9xafav+oL/AMTX/P8AhnmvgXXPFXiDxVefaNY1D+1Lrj/Qvt3/ABKdO/8A1Z+vPpgV+ocPeHv/ADMOID84zbjf/oX/AKlr9o34m3Hj/RtUt7i4uzpd3/0/f8TbUdY5/wAR7/hXx7+zf8T/ANrz4efFHwv4Z+EUfj3x5oXh7xV4S8XaH4Cu76ZPgzp2qnQCf7c8SfD5XSFlfwxoTYk2+BbhBHgOsaRq3r3jj7PB9ltri4/0q7wP+ot27YHr3/DpXsv7Hc9vY/H7XtPuLf7V9ssfB/8Ax+9dR/4kHibkduniHH5V/S3CWLXBfC2d5jgFfld0m5LWzSfuyV7X2d07JNNXRyZBxrxTk/FP1/Ic7/1YW9rvs000mrpptNO6aeq7f2FfsP8Ax91f4S/sgXWkaz4fFr8UNW8b/EjX+n/Eq07WPiNr/ibxKOf+Zm/4Qr/hIf8AhD1zj/hPT4aJGcmv5+P20v2LdQ+I/wATtU+JGn6hq2vXXiHXNY1DxxfXn/IW1HWPEZ/4ST9Pb8wa/Xzw5rgEP2f7R9l0vScajff6dj/iceIz/gR/+usvxJff2rNdfZ/+Pu0/48fT/P8AyMRz/M9fxviHxC444nzzI+IMwPvcXmyxuOzzMP8AoqXr5n8v/jH9h/xR9j/4l9t72Nl/yFdW/wD18jnv9K+BfEfg7WPB2vap4f8AEFv9l1Tw9ff8I/fWX/IVx6HH1555x1r+z7wPofh+C81TWLe3tLq1+3f2h/bV7/yFtRyP88D9K/kH+LniK38b/FTx54nHXxF431fUbHOO+v5/livf4S4sz3OsdnmBzC9k1drpdu3o21o79Dy8Z/uS9Wcx4c8HW97/AMfFzj7L9fw+n1789ele8aUILGH/AEcWots9O5Pfrzx0ry7wrffuc/X/AD+vOf613n2z3/8AHa8viDGY7G42zb01S6a77/LX8wwf+f6nRTan3ac/Qcnn6fT1H9aoz3/T/Pr/AJ498d6xLi+OBCTnngfqCfTOMkY79s1Snn7/AMvyPb6cj/E181QwXLbRq97baro9Ej6AL+f2/wA+nX8P0J71xt9PzxP2+vb8T9fbrWpPP/n0/njGf8npy99Pj26e3+P4d/xr6XB4Wz9PJP8AO4H9O327/l3z+H9P8j3zVr7d/wAu+Dj8f85/T+dcH9o9rr86tedbf8+/6iv5e/sn+tT6f635v8TvIL/yJv8Ap69/8ehz39z3r2T4O+HP+E/8eeF/D9xxaXd9o/27p/yB+Tnr/n3r5p/tX7DCbj7Pnr1/DHqPTP8AhX6vfAj9jvWIPAdr4o1jxBq3hf4jeIbD+0LH7EP+RM0bH/IA/T9K+y8PfD3/AFnzz/qnTkzbNv7FyP8AtA+jP2k/jvo+h6DdfC/4f3H2rVPsJ0/W77RbHXdV0nw7o/8A81PP+civzTn0q4gm5+12n/X7/wAhbTvb2/n6ivWtc8Aaxod7/wAI/wD2fd/arS/P2H/mKj/sP/Xt/wDXrg9dvvhv4Ah+0fEjxR/ZfH+g+GNFA1XxZ4i/7l7/AJG/xLnnP5fX+3MpwmBwWB/4Tz+N82zbHY3HHL2Oh3E832e3t7QfZB/x5df7O6/0z9PY9PRvDnwr8Q65N/o+n3Ztbu9x9u+w/wCP8q5fQ/H/AMcPFU3kfBb9l/8A4RfQf+h1+Ot9wMf9U98M/wDFX+vHjTxznnvW9qvwI+OHj+b7R8YP2iPjHa2vfwX8F9c/4Ut4T6/9Uz/4q/xN6f8AFaeOfHf5dfBzbxCyPJf+E/MOOOBD1Mp8PeOM6/5F+Rn0FP4V+B/we0e11j4seMPCfhfp/wATrxp4q0LwppOMkDH/AAk/P+e9eTeOf2hf2F/GOj3cFv4w0nxQLT/jx1r4feB/iv8AFTSdO/8ADZ+FP+Kmx/QVwfhX9jr9n/wBqX/CQaP8P7O68UXef+Kn1r/ia+LOO3/CQ+J/+Kw/WtPxH4csIJv9H0/H/PiT/jXweL8QuFfr3/Cf/r3xQfUZT4OZ5gv+FDMM8MH9nr9tj9iifxrd/DjV9X+HvgP4jWeB4Ws/Gn9vfCvVfGZOcDw94e+JY8EeLxkA4z6Ejpmv0i/tXR9VhFxp9x9qtff/AImv+TjH/wCvFfg/+0L+yv8AD/4xaPdW/iDw/aXV19h/0G9/5i2m/XH+HOPwr5z/AGc/2r/jB/wT18SWvwv+PF/4h8efs0/bv+JH4oH/ABNfFnwpP/uzeFv+pOzXv4zhPIvFvhXPOIOH88f/ABEThda8CaavXay2tbR3d762at6n1vHcF47/AIUP+Sd/r+ux/SzN1P1H8qwJu32X9f1xn8c1wfhz9ob4L+MvBNr8QPC/xI8J694NHN941stc0P8AsnTv+xi8Qn/kWe3/ACOnbivlX4j/APBRj9lfwd9q0/T/ABxd+PNetP8AmCfD7RP+EqHOc/8AFQ/8ih9f84/nz/V7PP8AkX/2GfZf2tgP6sfbk58jjj+X9Ov4e2K43xH4x8L+FdIutY8QaxpOg6XaH/Ttavb7+ydJ078P/rn+lfi544/4KMfG/wAcQ/8AFr/hOPhzpd3/AMgPxP40vv8AhKtW1H/uXs//AFu3oK+GPHGufEn4m6l/bHxQ+IGra9df8uP+nZ0nr/8Aq/TpX1GE8Pcdjf8AkYZ4eXi+LMDgv+Refpt+0L/wUf8AB+lC68P/AAn+1+KNUtMf8Tn7DrmlaTp38/F/ibp361+Qfj/4m+OfiNeXOoeMPEF3dWt3/wATD7F/P8Pw9zW9/YdvYwn/AI+7W1/5cbL7doWPocjpjPevjr9oH9p7wd8GI7jT7KE+JPiEbMLaaR9tLf2YpYBm8QKMHw6VB3bFOT7Akj77hzhHBYTH/wBncO5E3xF17JXS5pPaMVdXlJqKvq+/y+bZvjsb/wAjH5f1/keieLvFHhn4eaHca54l17S/DWnW7KqJd3pZmdiAqqoyWYnAAAJYnA61+cvxY/b41S9juNH+EekjRbUuynxf4jlXUNXIAxu8PaM0bweGVJ6bTIWAwdmQ1fIPjbxh8QPjB4hOu+LdVudTuS2LW0s966ZokZYHytC0ATAJH8uSkWzcTl3YpGy0tO+H7Kc3MB/7e8KB1zwMY7545x24I/fck8OuFMlnDMOIpw4kz96upVjzQi1t+7vedn3jZ9mrp/Kyxbxu1n6PX8P+H2PoH4AePde1Tx/plxr9vc6oNXvyb/xLrF6+q6pfHP8AqwZBn5fcsM/xNzX7K/AG+/sP9pz7R9oH/Hjo+oZ4/wCgB6+3/wCoYr8aPhHof9l+JtM6/wDH6Sfsd7/Zh49QM8Z9+nHNfqj4Vvv7K+PFrbn7Xa/a7HR9P68/5yf6ivL4oxP13MM+wmXJKFTgmtypWslGey20XMklyxWmitouvh3/AH63Zr8kf07eHNV/4oLS9Qt7j7X/AGt4q/tA/bf+Yj/xIOufx/Hucc1V1bVbjVftWn6f9r/4m99/Z99e/wDYuf8AIxdOnoB/hXL+FdVt5/Deg6fb/wClaX4esf7PsbPH/IS1jxHoH8/Qe9anhX7P9s1S4Nx9qtdJ/wCJf9t/6COsH/ipfEXP9efzxX8hH7LhMWb3xM8Rn4dfs0/Fnxh9otba60n4V6x9hvf889cf4ev8asP+kG7J75/Dr9Md+np71/Vn+2Vqxt/2BPi14gP/ADMHhXRrDj/qY/H/AIa7/wBPT8q/lYtYAWGcen8/x6j9Pz/QeBo/VcFnWOXxSmo26a2S8927+nqeXm3T5foaWlT/AGebj7Jj/H/PXB9K7yC4/c2v/wBb/Pf2656dODg/1P2f19O/49v8ee1dRBP+59f8/hwfbj6V0Zoru3Vu3/BOvCdPX9TUnnGP85J/z+f0yay55/8An4uMgfp/iMZ9felm6n6j+VYE8/8Ahx/n8QD9T2FefhsMn+F9Ff5N3t5/5noJW8292E8/+HH+fxAP1PYVg30+ffp7/wCH4dvwq1PP3/l+R7fTkf4muXv5/b/Pp1/D9Ce9fR4TCf1+J6J/dF4q/Zy8L332r+z7e0tc/wDPl/n1/wA8Cvn3XP2XvEFhN9o0e4u/y9fx471+qk9h5/8Ay8c9fxH6fn3NEGh6f/z79/8AH3P8/pk5Ffwf/rDnmCP2n+ycD2Pw9vvA/iDwdeaXrGseH9W1618J65o/iC+0Wysf+Qjo/hzX/wDiotA//V+lf07eFdc8LeMdB0rxR4P1i017wv4h/wCJhY3tl/X6jt2r4j1z4c+H9ch+z3Gn/l6ED/8AX+hzX54/FT4ZfFj4O2Wqaf8AB7SPG+q3Piz+x/sOi+GNc13StJ1HAP8AyMX/AELPPH1r+tPAbxC4VzrA/wCr/EH/ABi/ER+JeJvD2eYL/jIOH/8AjKOHQ8Y+OPih+1f+0h48+B/7O3igeA/hz4IOj6f8VPjRovuP+Ki0D4d9/wDkaf8AmcT/ANC19a++vg7+yj8F/gfZm48H+Hxqnii6/wCJhrnxB8T3/wDwlXxC8RHr/wAjD4m/P3rL/Yt/Zl/4Z6+Etr4f1AWd14y8Q/8AFQfEbWrP/mI6x9f8/hX19PpP+HX8PwI/Qn34+N8WPE3HcaZ5nnD/AA/nn/Gu+Fz3vD3w9yPhjA/2hmH/ACUX9fqcH9ig9f5Vl32h3E//AC8j+h6d/wA8fjXqP2G19/1qpPY2/wCP+cH8s9fx7Cvxr6p5L8D9Q+t+a/A+OPFX9o+HJv8AiYW93/Zef+P3Of7OB/8A1H8a841WD7dD9o9P+X2y68++e3THpmvtLxj4O0/XNNurf7P9q+1/h+fHHB9sc9sV8H+I4Lj4Za9a+H9X+1/2Xq3/ACAr3P8An/PtX6Pw9i/7a/4Tz4PiHKfqX/Ch/X5HnOuQfZ5ux5x6fy/X/OPCPH/gfwv4x0260/WNP+1Wv/L9ZXvbt+vp/IV9P659nnz9ot7T7V3+xYz/AIf/AF+ueteN6r9ng/l9tz9fT29u/UV+jZTi8dgv+FDLz8lxXT5H5f337DHwfsdS/tjT9P1a1/6crK+13Pcf/W/Ku8sfhl4P8HQ2v9naOLX/AJ8f9A0L8/pz/TFfWniP7Pz/AKOf+33+wu/frx689O55rxrVYPIm/wCfW1uv+4V/aP5f575719R/a2eY3/kYHxuLwmBwX/IvPn7Vfs4/0fT7ez74+xX3Gen/ADLPivtj2/U44y++0Qfarj7R/pXH+m9/w/4qv/J4r2/Vb7T7GzutQuNQ/wCJX/0Gr2++mM/8VXn/AOv7V+M37Xv7W1x4onufhf8ACi//AOJX/wAg/XPGdnff8hHPA0Dw9z/yK3HuDz2r6DJ8Fjs8f9nYB8sbpSk03GKb3dk29LtRV5StaKb1Xl4t/UvX8Wc1+1L+1suh/wBp+AfhXc2uqeJbsj+3fEqnbpegAEZXw0//AAlEiqSP4irAf3T0r809F8F6h4k1K51HXpdT1m6ubwX19e3W4knqWJYsxYknPIHQKOOPQvDnhS31XUrXT7e3u9Uusf59/pj0r7dt/gDceG9CtdQ1jV7vTM2P9ofYvsJ0r+zhxx/xUpBz06dfzr9UxGOwPBWSQy3LP3b2dRc0puT6pxXMkr2jCCTs9XKTPBynCPOsa8fmGqdr6Lo7pXav56NXe97WPkrS/BGj2UP/AB72p+uf89+nAq1/wjtuJv8ARoLUd/8Ajy4+v/6/8a9HNxbWN3cgT6rc23/Lliy0Q+wHUj2469+9cvfarfzzf6Pb2nP/AE+5/Pnt/nFfP/Xsxxkr+0cm1dyc5JNvXW8ru3W/XY+o+p4Hs/u/4BmaXplvousaV9onP+k33NlZcnnGOwHQfT2xX2h/atvrn7Tmg+H7f7J9q0n+x9O5/wCgx/YH/IA+nB56/Wvhu/i8mb7fPcEXI/58z1OfwwB79M8mtL4c+ItQ0P4m6DqNvcE3QOr6gbz65P5V72WNzbk5OcuVuTemsb3s+qStq9X1EtPI/ra+GWufbtN0u3uB9rtdJvv7P5/5iPjDxHj/AMtb2/6mUDtXt0EFvB/ak44/4nmj6fff9AnUf+oB4dwf5ntXyF8HfFX9uab4X1DR7e0tfsmh6wbHwx/bmun+ztZ8R/8AIxePvEXiH/hFPfxFivtvwdb6PBoNrrFxcDXrXSbL/Tta+w/8jDrH/Uu4+nH1r+Zc2wn1LHH6RhOnr+p43/wUY+zwfsNePbf7RaWv9ra54PBsrL/sfvDX/Eg9P85NfzAiywc8/k1f0Nf8FGL7WLH9lfSrfUP+Zh8c6P8Abv8AqHf8jKPX/wDV6d6/AH9x/nfX1OUN4HJFgFumn9235fMwMuCx6/n/ACxn9ev0Patdc4P2jrxn9cf5H+NM/wCvb8P/AGb/ACf8KtiWE9B+q/4Vz4mUm9bvzW69H0PQwf8AX4mXN1P1H8qwJ+34f1rUue/+f7tYF91/A/yNejg/8/1Ogwp5/wDn4/z29PqDgfU9qwL645/4+B0789vx/H2rVnn/AM+n88Yz/k9OXvp4P5j/AOt0/D056Yr6nBp9nr/wTnP9Kb/X4/0e7/H047D8On5Vbh6j6n+VfPnwy+Lfh/x/o9rqGj6h/an/ADD+/wCmePbH6ivoKxn/AA4/58R/nHb0xX+dx/SBvQD/AKePYf8A6/5ceoreg0q3nP8ApA7/AM/x+p6cVl2M+ffr7/4fj3/Gunsev4D+Qp/VPJfgeeb9jb+R/wAe57e3t/8Ar/XpVj/Rv84qvBP3/n+Q7fXk/wCBrU8/2/T/AOvX2eF6/M88y/s3t/n/AL6o8j/p3/T/AOtWp/r/APPX+ec5qt54/wCfc/ka9Q5zKn5/0fr/AJ9fX+p68V8g/tNfDL/hOPAeqfZ7j7LqtpY/6De/0/zz2r7Iue/+f7tcH4jsft9ndW/p3/z0ry/9uyXHf2hl56GD/r8T8Ffgf8frfxx/b3w/1i4/sv4jeCb7+z9csv8AoI+mv+Hc/wCR06Zr1HXPtE/SC76c+34evrzX5Gf8FefB3xA/Zl+MOg/tQfDfWLrQbq0zfg5wNQ5/4qLQfU8dMdveuh/ZZ/4Km/BL9onRtL8Ma1f2ngP4n5IvtG1rnSNRPceHfQj0OCBxjvX9l4rJcJxTkOScZ8O5C5RivfcU3yLRJzsvdi76Sfu9HJPR/wAv8WYXHZLnn9n9enn6H3vrk/a3Hr/x4/zxn/Pp1r5z+Knjfwv4B0HVPFHjDV7XS7W04vr3Wr48+gwPw6d+nHT51/aS/wCCi3wX+FY1TQPB+of8LF8dnj/hGtF40nTvX/hIfEI5JA7DJwfSvxa+I/xi8f8Axw1/+3/iBqGbXJ/sPwzZceFPDw7cDgfmT9BXVlPB+YYxRlmacYys1fSU13gnq01e02uTTeR8Hm3EX1Lz/T1/y/A9k/aM/ao8UfGKW68P+F/temeDvp/ZfivxFkfn/wAIuOvOQOQcngfGxgtyTBb2/wBltf8An+/5Cv6Yxjj3HrW9Pff8w/T9Pu7q7/5/b39eePT0P+G9ofgfUPO+0f8AH1qh/wCX29sf+JTpw7fz9fXr1r9OwuGwOCSS0itbLq9rvq359Fokuvxv1vHY3+uh618HdW8H+B5jnT7S1167/wCYzrOuaFpek+Hc+vh7/hFfG35/8ULz+dfa3hzQ9A8Qw6ppHheCzu/FF5Yf2hfeP/Ex/ZVGk/MMY5+Ko8IfDMr16nx6T0/4QUZz+dtj4V/sq8+32+njXrW0PH20DS9J9P8AkXvDXI4HQY6c11F/8YfHOuS2vhfT7gaXpdqPsAsbKx/srSdO/Lp75xycDHNfEZ/ln9sY1uKcpaPnvKLi7y3Sl791KzUvce3LJ3kfUcPL6l/l/X6aknxq8ET+Dtduhq+oWmu6oRyNF8U/8JT/AGaTj/kP+IR4V/4RJj/2JuR6kcCvnr+3SD0wf+wh/iK+tT4Ct9V03+2PE+v/AGkHt11U5x65GOB/jXz5448K2GiXh/s64vD2xeDQvXp7ce46c96eQ4/BVHDL8frOKsnFNJpbcqtolvays3LZWjH75Hl9xe+d/wAsLo54JvCD1ODk4/z+WcPU9VGlHS9Y0/7WNT0m+zZe2O457fl3OSMVPfXtvAPIt7f/AEnODej15I4HH49ziuYvZ7f7J58+cf8AT4TyBwSPwOfpjj1+8wWGUakZckuW9uRSbclJOMldNu0k+V2SbXnY8jF7NX1s9beX3aH9BH7F37UHhfW/GH9jHUPsvgTVb7RtPsdZx/ZOk/2z/YHhr/hIgQT/AMiv/wAJTz+XXNf0DwaH/blna/aLe0/G+/4lP/Yf8RY/P/Cv8/8A+EvxtuPhp4hutLvoA1uL/wC36Nci9bdpo4A0XO3btYnafm3CTGQdwJ/qP/YS/bR8MePdN0rwedfNzd3l79gvbK+41bTwemPUdfwr8j8UeBMfgcfk2ZZYpSpRatNJySjKyjzTUeVSb0a91c6lGOijzfUZRm98D/Z70fVem+nbqvJ3PT/+CteueR8K/hf4Xt/+XvxxrGofbbL/AJiP/FP4HP8AnHtX4FjjjyDc9uO/v2+nXt07V+qn/BTv4qaP4q8SfDDwPp9xjS/D1jrGoWXQ/wBo/wDMtf8Auvds4z0GePzAIIAJ79P8/jXj4pPA/wCw2bS16pb99PvT0fW56uEwhlG4hzzbWeffOf51b8+4/wCfe0/JqPOPv+QqpPPb/h/P/PXr9ewHPv0b9bs9TCdPT9CrPfY/4+bfOf6/lnr+H5Vy99ewE488/wD6vw654+vbtW9PP1/0j1PT6dj+v5msG+nt/X+f5/19f516eFSuvdl6K/8A7dFsj5r+vmcvfT59+nv/AIfh2/CuYvpz/wAe/kD19cn/AD75yK3b77P/ANOtr37/AOeP8+/HX32fHPr2+v8AjnFfZYPC276fnvfdbepgf//Z;" vertex="1" parent="1">
                    <mxGeometry x="10" y="170" width="256" height="256" as="geometry"/>
                </mxCell>
                <mxCell id="7" value="&lt;div&gt;5.58 8.10 8.66 4.71 3.87 3.60 6.82 2.18 1.18 0.69&lt;/div&gt;&lt;div&gt;8.10 1.03 2.35 4.20 1.71 7.24 3.16 5.55 6.10 5.80&lt;/div&gt;&lt;div&gt;0.85 2.01 6.36 0.67 3.71 0.02 5.87 8.74 3.10 2.02&lt;/div&gt;&lt;div&gt;4.75 8.22 7.56 3.03 8.85 5.88 8.44 6.73 3.36 4.77&lt;/div&gt;&lt;div&gt;2.80 7.82 7.54 2.56 5.33 0.68 3.38 7.41 4.08 4.10&lt;/div&gt;&lt;div&gt;5.12 4.72 2.84 3.25 7.77 2.45 1.68 0.59 0.15 5.06&lt;/div&gt;&lt;div&gt;5.83 6.97 6.13 5.18 3.03 8.30 5.15 5.97 1.71 7.18&lt;/div&gt;&lt;div&gt;7.24 4.67 8.16 2.04 1.68 2.91 1.44 5.64 4.62 7.44&lt;/div&gt;&lt;div&gt;8.55 3.23 4.61 3.20 3.63 5.43 8.41 7.10 4.59 4.68&lt;/div&gt;&lt;div&gt;6.21 0.04 0.26 6.37 8.33 3.26 2.98 5.55 4.71 6.08&lt;/div&gt;&lt;div&gt;7.35 5.31 2.77 3.95 4.84 4.87 0.31 5.23 1.20 1.60&lt;/div&gt;&lt;div&gt;8.72 7.71 6.88 4.79 4.93 8.00 3.47 7.21 4.17 2.71&lt;/div&gt;&lt;div&gt;7.65 6.47 3.90 7.88 6.06 6.44 4.58 1.60 0.05 5.17&lt;/div&gt;&lt;div&gt;2.49 5.48 0.33 8.58 1.30 8.62 1.15 2.36 2.44 2.39&lt;/div&gt;&lt;div&gt;7.33 5.85 8.97 7.60 8.35 4.40 0.46 6.38 5.27 1.84&lt;/div&gt;" style="text;html=1;strokeColor=none;fillColor=none;align=center;verticalAlign=middle;whiteSpace=wrap;rounded=0;overflow=hidden;" vertex="1" parent="1">
                    <mxGeometry x="310" y="178" width="280" height="240" as="geometry"/>
                </mxCell>
                <mxCell id="8" value="" style="shape=table;html=1;whiteSpace=wrap;startSize=0;container=1;collapsible=0;childLayout=tableLayout;" vertex="1" parent="1">
                    <mxGeometry x="250" y="640" width="100" height="90" as="geometry"/>
                </mxCell>
                <mxCell id="9" value="" style="shape=partialRectangle;html=1;whiteSpace=wrap;collapsible=0;dropTarget=0;pointerEvents=0;fillColor=none;top=0;left=0;bottom=0;right=0;points=[[0,0.5],[1,0.5]];portConstraint=eastwest;" vertex="1" parent="8">
                    <mxGeometry width="100" height="30" as="geometry"/>
                </mxCell>
                <mxCell id="10" value="a" style="shape=partialRectangle;html=1;whiteSpace=wrap;connectable=0;fillColor=none;top=0;left=0;bottom=0;right=0;overflow=hidden;" vertex="1" parent="9">
                    <mxGeometry width="33" height="30" as="geometry"/>
                </mxCell>
                <mxCell id="11" value="b" style="shape=partialRectangle;html=1;whiteSpace=wrap;connectable=0;fillColor=none;top=0;left=0;bottom=0;right=0;overflow=hidden;" vertex="1" parent="9">
                    <mxGeometry x="33" width="34" height="30" as="geometry"/>
                </mxCell>
                <mxCell id="12" value="c" style="shape=partialRectangle;html=1;whiteSpace=wrap;connectable=0;fillColor=none;top=0;left=0;bottom=0;right=0;overflow=hidden;" vertex="1" parent="9">
                    <mxGeometry x="67" width="33" height="30" as="geometry"/>
                </mxCell>
                <mxCell id="13" value="" style="shape=partialRectangle;html=1;whiteSpace=wrap;collapsible=0;dropTarget=0;pointerEvents=0;fillColor=none;top=0;left=0;bottom=0;right=0;points=[[0,0.5],[1,0.5]];portConstraint=eastwest;" vertex="1" parent="8">
                    <mxGeometry y="30" width="100" height="30" as="geometry"/>
                </mxCell>
                <mxCell id="14" value="d" style="shape=partialRectangle;html=1;whiteSpace=wrap;connectable=0;fillColor=none;top=0;left=0;bottom=0;right=0;overflow=hidden;" vertex="1" parent="13">
                    <mxGeometry width="33" height="30" as="geometry"/>
                </mxCell>
                <mxCell id="15" value="e" style="shape=partialRectangle;html=1;whiteSpace=wrap;connectable=0;fillColor=none;top=0;left=0;bottom=0;right=0;overflow=hidden;" vertex="1" parent="13">
                    <mxGeometry x="33" width="34" height="30" as="geometry"/>
                </mxCell>
                <mxCell id="16" value="f" style="shape=partialRectangle;html=1;whiteSpace=wrap;connectable=0;fillColor=none;top=0;left=0;bottom=0;right=0;overflow=hidden;" vertex="1" parent="13">
                    <mxGeometry x="67" width="33" height="30" as="geometry"/>
                </mxCell>
                <mxCell id="17" value="" style="shape=partialRectangle;html=1;whiteSpace=wrap;collapsible=0;dropTarget=0;pointerEvents=0;fillColor=none;top=0;left=0;bottom=0;right=0;points=[[0,0.5],[1,0.5]];portConstraint=eastwest;" vertex="1" parent="8">
                    <mxGeometry y="60" width="100" height="30" as="geometry"/>
                </mxCell>
                <mxCell id="18" value="g" style="shape=partialRectangle;html=1;whiteSpace=wrap;connectable=0;fillColor=none;top=0;left=0;bottom=0;right=0;overflow=hidden;" vertex="1" parent="17">
                    <mxGeometry width="33" height="30" as="geometry"/>
                </mxCell>
                <mxCell id="19" value="h" style="shape=partialRectangle;html=1;whiteSpace=wrap;connectable=0;fillColor=none;top=0;left=0;bottom=0;right=0;overflow=hidden;" vertex="1" parent="17">
                    <mxGeometry x="33" width="34" height="30" as="geometry"/>
                </mxCell>
                <mxCell id="20" value="i" style="shape=partialRectangle;html=1;whiteSpace=wrap;connectable=0;fillColor=none;top=0;left=0;bottom=0;right=0;overflow=hidden;" vertex="1" parent="17">
                    <mxGeometry x="67" width="33" height="30" as="geometry"/>
                </mxCell>
                <mxCell id="35" value="" style="shape=table;html=1;whiteSpace=wrap;startSize=0;container=1;collapsible=0;childLayout=tableLayout;" vertex="1" parent="1">
                    <mxGeometry x="650" y="190" width="100" height="90" as="geometry"/>
                </mxCell>
                <mxCell id="36" value="" style="shape=partialRectangle;html=1;whiteSpace=wrap;collapsible=0;dropTarget=0;pointerEvents=0;fillColor=none;top=0;left=0;bottom=0;right=0;points=[[0,0.5],[1,0.5]];portConstraint=eastwest;" vertex="1" parent="35">
                    <mxGeometry width="100" height="30" as="geometry"/>
                </mxCell>
                <mxCell id="37" value="-1" style="shape=partialRectangle;html=1;whiteSpace=wrap;connectable=0;fillColor=none;top=0;left=0;bottom=0;right=0;overflow=hidden;" vertex="1" parent="36">
                    <mxGeometry width="33" height="30" as="geometry"/>
                </mxCell>
                <mxCell id="38" value="0" style="shape=partialRectangle;html=1;whiteSpace=wrap;connectable=0;fillColor=none;top=0;left=0;bottom=0;right=0;overflow=hidden;" vertex="1" parent="36">
                    <mxGeometry x="33" width="34" height="30" as="geometry"/>
                </mxCell>
                <mxCell id="39" value="1" style="shape=partialRectangle;html=1;whiteSpace=wrap;connectable=0;fillColor=none;top=0;left=0;bottom=0;right=0;overflow=hidden;" vertex="1" parent="36">
                    <mxGeometry x="67" width="33" height="30" as="geometry"/>
                </mxCell>
                <mxCell id="40" value="" style="shape=partialRectangle;html=1;whiteSpace=wrap;collapsible=0;dropTarget=0;pointerEvents=0;fillColor=none;top=0;left=0;bottom=0;right=0;points=[[0,0.5],[1,0.5]];portConstraint=eastwest;" vertex="1" parent="35">
                    <mxGeometry y="30" width="100" height="30" as="geometry"/>
                </mxCell>
                <mxCell id="41" value="-1" style="shape=partialRectangle;html=1;whiteSpace=wrap;connectable=0;fillColor=none;top=0;left=0;bottom=0;right=0;overflow=hidden;" vertex="1" parent="40">
                    <mxGeometry width="33" height="30" as="geometry"/>
                </mxCell>
                <mxCell id="42" value="0" style="shape=partialRectangle;html=1;whiteSpace=wrap;connectable=0;fillColor=none;top=0;left=0;bottom=0;right=0;overflow=hidden;" vertex="1" parent="40">
                    <mxGeometry x="33" width="34" height="30" as="geometry"/>
                </mxCell>
                <mxCell id="43" value="1" style="shape=partialRectangle;html=1;whiteSpace=wrap;connectable=0;fillColor=none;top=0;left=0;bottom=0;right=0;overflow=hidden;" vertex="1" parent="40">
                    <mxGeometry x="67" width="33" height="30" as="geometry"/>
                </mxCell>
                <mxCell id="44" value="" style="shape=partialRectangle;html=1;whiteSpace=wrap;collapsible=0;dropTarget=0;pointerEvents=0;fillColor=none;top=0;left=0;bottom=0;right=0;points=[[0,0.5],[1,0.5]];portConstraint=eastwest;" vertex="1" parent="35">
                    <mxGeometry y="60" width="100" height="30" as="geometry"/>
                </mxCell>
                <mxCell id="45" value="-1" style="shape=partialRectangle;html=1;whiteSpace=wrap;connectable=0;fillColor=none;top=0;left=0;bottom=0;right=0;overflow=hidden;" vertex="1" parent="44">
                    <mxGeometry width="33" height="30" as="geometry"/>
                </mxCell>
                <mxCell id="46" value="0" style="shape=partialRectangle;html=1;whiteSpace=wrap;connectable=0;fillColor=none;top=0;left=0;bottom=0;right=0;overflow=hidden;" vertex="1" parent="44">
                    <mxGeometry x="33" width="34" height="30" as="geometry"/>
                </mxCell>
                <mxCell id="47" value="1" style="shape=partialRectangle;html=1;whiteSpace=wrap;connectable=0;fillColor=none;top=0;left=0;bottom=0;right=0;overflow=hidden;" vertex="1" parent="44">
                    <mxGeometry x="67" width="33" height="30" as="geometry"/>
                </mxCell>
                <mxCell id="48" value="$$max$$" style="text;html=1;strokeColor=none;fillColor=none;align=center;verticalAlign=middle;whiteSpace=wrap;rounded=0;" vertex="1" parent="1">
                    <mxGeometry x="180" y="645" width="100" height="80" as="geometry"/>
                </mxCell>
                <mxCell id="49" value="" style="shape=image;imageAspect=0;aspect=fixed;verticalLabelPosition=bottom;verticalAlign=top;image=data:image/png,iVBORw0KGgoAAAANSUhEUgAAAzYAAAESCAYAAAAv7UBIAAAABHNCSVQICAgIfAhkiAAAABl0RVh0U29mdHdhcmUAZ25vbWUtc2NyZWVuc2hvdO8Dvz4AACAASURBVHic7L17XJRl/v//mmFgOAgDiIAIysGRk+YBy8xToqZmaq4SpFio1UNSw7XU/Cm5bWZqqZ3UNT9adNg0XV2+ICZSgrlSpra7CQoeVgUU5DAch8PAvH9/oAhzuOe+ddS47+v5eMwfcl9zw/W834f7uue+RxkRERj3RFZWFkaNGvWw/4xOD/NoHZhH68A8Wgfm0Towj9aBebQOzKN1YB6tQ3uP8of8tzAYDAaDwWAwGAzGPcMWNgwGg8FgMBgMBqPTwxY2DAaDwWAwGAwGo9Mj8oVNC4q+X42p/X3Rzd0NXqFPY2VaIVrMDadKnPksDo+o7BG5pRD6tg06XE1Zicn9usPVRYWuPR/DzE0nUCGZp5P0KM5YgxmDesDNRQV3vwg8t/4YyszMnyp/wUezHoW/Z1e4e4Vg4spDuK4HGg/Ews3BHvb2d15KhQI9F2VB92An9JAgVJ/agheGBMDTwwPefUZj0e58NJocy+Vc2PEQHU1pmOuhgF27OLJ3fhzv5ZrNbAAAVaTh5UA7+MRnoAkAy2tw1DxDuGop88gH4/izzljxIDCOuGKXd1xLDf69g/VrCIgjfl6lmNfC4ojLYzMK0xIxZaAa6pBg9A4eitgPs03WB1EvbPQFu/DSrD3wfDsbRRUlOP1BEFLnvIyd10yEJ1Xi0MIn8VJWAIaFKjru59I2xMWlIXDDryip1uDygWm4viYWb/9k+pRUbOivf4lXYr6A4xuZKKyqxNWDs1H1QSwSf2gwHkxl2L8wGv+negs/FZaj5LcN6HN8E5LONEE57Wto6hvQ0HDrVZaBhH79EBMzGLYPfloPnrofsSLmfTTEp+NqWSnyd4/H2YRYbDzbbDSUy7mg4yFGmqpQqRuBzRe1d2Kp5mesCLMx/x4qR9ryZTgq82grelLPa66aZwhXLZW8Rz6YiD+rjBURguKIK3YFxLXUENI7JN+vhdRHPl4lmtdC4ojLI5X8HQteSEafj08h/3wezmfEo37980g8ahy7ovarPXEY2f6xWDzZD3awg+/TiXhtUDa+O3jDxMpbgYC5u3Hsq/kYqDLQoozA/F07sXqCL5SQQzVgBiYFl+Li5TpI4qKkPBSzPt6FtTFqOMlkcO47Hc+Ea3DxosZo/lR8ADvS+2PpX5+Bnx1g6zMFH2UdwYrBdgYjG3Bqw2KkDH0fq55welAzeag0/msPkpXPY2msGg6QwWXQIiSMu4q9/8iF0dKGy7mA4yFGqLoSVVDB1TBPzb8DZanLsPxCLNbG9rhT9KSe11w1zwDOWip5j5YwE3/3PFZkCIojrtjlH9eS4657h/T6taA4suhVwnndAQtxxOGxueA8LsgjMPoxFWQAFD1GYaS6HHl5FUaxK36/erozaZkTXJwJl/IuG9+OJuuCkIgQdJEZ70LuOwzRUwfBXQagpQaX0rZiT+FwTBnpChPDRYfcewiiZ46E761o0Rcexvd5oYgc4Wk0f13OaeR4d0f51mg8HhqAXuohiFmXiVKDyNNf3ok3v+qFVW+NgYsUJEKPm3n5qA4Khbrt4o891KG+uJKbb/SRLJdzGwHHQ4zoqzSo1l9EUuxgBHX3go96OF788ATKzd0aWZqCpW9eQtzWBIS3W19LPa+5ap5JzNRSkrpHC5iLv3sdKzYE5SNX7AqNawkhpJe3R3r9GoLiyJJXKed1eyzFEZdH29CxGOOWjf2HitAEoP5CKtL/F44xw41jV9QLG8dhEzHsWhLW785Dra4O1zLWY1tmExobGu/qSmLN7ii4KF0REpeFiA2fIC5Q1PpM0lx0EEumr0XTsh1YHG5864++SoOK/MP42SsR6TmXkZs6H/ptMVi4t6ydcy2ObtyM4pjliPKWSpUk1NVpIXNwhEPbz2RwdHRAi1Zr5jmbVricWzoeYkRmr8bYmKcwOWE/fi8qwtlvo1C+4U+I33PTOK+pFMlLV+DKvG1ICLMz2bxZXluGTy1lHk3AI/7uaqyIYXH0YODfO6TYr+8eI68sr28hLI6MPDqNxuotU/DfuWr49OyB7gPWoD5+Mxb0Nb5NUNQVQ+4bh+1fRkOzLhKBPQdi5teuGP+UJ9zcXe9q4s4xe1HdVIuCwwtQuzoSL+65IcJbLQjXdz4LHw8PeHh4wGfaLtyg1p9XntyEaaOXozQ+Bcl/7t/uBP0OMqU97N3GYd6cfnCRy+AUHIuEGV2QdfhU26cSpEnB9n0emD0nAuK9eGHo8QvUOTmBtFrUtxtTV6uFTZcuUJrZh3nn/I5H58c4Hkv8o/Dejk1YFNkTjnIF3Ae/ihUxTshIzTZYIBJuHngdiYWvYNuiULP3hUsjr+8NPrWUeTSEX/wJHysGzPUZFkfW4956edteJNmv78SjkH0Ye2V5fdsj/zgyHZ8tuZsxfc5JTE0rQMm1Ity8lIQB+6IwO6nA+NESkhLN+bRhaDd67rtK82P0xbT9KWca/WkBtbT+gKrPptDO/3eWtG2DmuinxYHU9YUUaiCizMzM+/yHP1hatBVUfOMG3bhxg4ortNRCeqo88TaNCBpJb2WWkp7jvc3n19Fjbn+iv2tu/6SJjv85iHxeSafGWz+p3hdDHv1X0390Hd8rdo/1GfPJL3gpZTfdHlFFe6M9KGJNDjUbvZvLOffxEL3H4t/pp9PXqKFtRCMdXdiTPOJS22KslSraHeNFHj49qVevXtSrVy/ycVOSwtmLAp/6gE7+V1p5bRajmseDtlqqkVx95A9X/G2knGZhY8XmsWNe11GlhTgyCVfsmtkmNo9c3Esvv41U+3VbzPCqj+a8Sj2v73g0F0cdMedRT0Vbx1CXER/S/9oOgo5+XtaHXGceMOozol7Y6Ev30oshI2nVvyqoRV9H53dFkX/veEqvJiK9hv79zy/oYG6dwZuMg1j74wIKcB9F7/yrlHREVH/lnzQ/zJmGbcynZhJfYBqir0ileUHh9NqPGuNCaOix+QJ99KQnDVpymK436Ul7IYmie/lQ7P6KW+9touw31OQxO7ldA2tF7B5Je4z+HOxLz/4tl2r1zVT20yoa6jWSNuc3G3nkcs55PEj8HrVHF1Gg2wj6y083SUfNVPHrRprg1YNmHygnvbm8JiKiZspZM5j85h+hRmJ53Yapxm0Yjxy1lHnkS8f4M9uDTI0l8XvkjCMB/drSNrF75EJQLyciSffr2/CpjxZ68h2kl9etmIkjAR4bMhdRgMd4+vhc6x70Vb9Q4qMu9OjaHKM+I+qFDVE95eyaS0P83MnV3ZMCnphHO/5d07qpOZfejXC6E6y1eyhapSSlUkm2NjKS2ypJqXQg/4U/UqO+kn7dOo9G9u5GKhcXcvUOo/FLvqMLty4jiT0wtXujyFFuQ3bKVj+tL0cKWpxFTYYeiUh3LYXenBhCnq6u5N5jAM1Yl0WlbVFaT/uinUn9RjY1GfwesXskIqr5bTvFDelJ7ipX8gweT8uSr5KOyCgeuZxXcR0PkoBHfRWd/ts8Gh7oTs7OKuoWOJzmbj1JGj0Z53UHDE8spZ3XnDXPyCNHLZW6R94YxJ+QWCUJeOSKIyH9mmsbScAjB0J7uaT7tYD6yOm1w04lmNdEZDaOhHjUa+iXT+fQiOBe5B8URL38w2nca99Q7q2VUnuPMiJit6/eI1lZWRg1atTD/jM6PcyjdWAerQPzaB2YR+vAPFoH5tE6MI/WgXm0Du09ivrLAxgMBoPBYDAYDIY0YAsbBoPBYDAYDAaD0emRZWZmslvRGAwGg8FgMBgMRqeGPWNjBdg9ktaBebQOzKN1YB6tA/NoHZhH68A8Wgfm0Towj9aBPWPDYDAYDAaDwWAwRAVb2DAYDAaDwWAwGIxOD1vYMBgMBoPBYDAYjE6POBY2VIkzn8XhEZU9IrcUQs93m5D93B5SkYaXA+3gE5+BJqtO4o+MHsUZazBjUA+4uajg7heB59YfQ5nJp7OaUZiWiCkD1VCHBKN38FDEfpiNCoOx0vQI/vHYlIa5HgrY2dvD/vbL+XG8l9tyaze/4KNZj8LfsyvcvUIwceUhXOcMbjHBL8ZaIVSf2oIXhgTA08MD3n1GY9HufDQK3o9I4V0fuWoA88g7H1lem8eCG0M4XQnp+2JDoMfbGPbkxgOxcHNotw97eygVCvRclAXdg5nJQ0XY/FtQ9P1qTO3vi27ubvAKfRor0wpx27gk8tpsznH1YEN0uJqyEpP7dYeriwpdez6GmZtO3Ool/PtM51/YUCUOLXwSL2UFYFiogv82IftpG1OOtOXLcFTmIQJx/NFf/xKvxHwBxzcyUVhViasHZ6Pqg1gk/tBgNJZK/o4FLySjz8enkH8+D+cz4lG//nkkHm03VqIeBcVjUxUqdSOw+aIWDQ0Nra+an7EizAagMuxfGI3/U72FnwrLUfLbBvQ5vglJZ6SxROQVY7ep+xErYt5HQ3w6rpaVIn/3eJxNiMXGs83C9iNGBMQjVw1gHgXkI8tr83C5MYTLlZA6K0aEeLyNiZ6snPY1NPUNd/ZRloGEfv0QEzMYtg9kIg8XIfPXF+zCS7P2wPPtbBRVlOD0B0FInfMydl7TSyOvuXKOowcbor+0DXFxaQjc8CtKqjW4fGAarq+Jxds/NQrqMyI4r1QgYO5uHPtqPgaqDKfDtU3IfgCAUJa6DMsvxGJtbA8xiOOPPBSzPt6FtTFqOMlkcO47Hc+Ea3DxogaGi+WWgvO4II/A6MdUkAFQ9BiFkepy5OVV3BorYY8C4pGqK1EFFVxNjKPiA9iR3h9L//oM/OwAW58p+CjrCFYMtrtff/gfCssxdofGf+1BsvJ5LI1VwwEyuAxahIRxV7H3H7loFLAfcSKgPnLUgGaJexSSjyyvzcPlxmgspyshfV98CPF46x08enIDTm1YjJSh72PVE07W+2M7Ddzz1544jGz/WCye7Ac72MH36US8Nigb3x28gRZJ5LX5nOPqwUZLG2UE5u/aidUTfKGEHKoBMzApuBQXL9cJ6jOdP+tlXRASEYIuMoHbBI6l0hQsffMS4rYmIFxM8cgDufcQRM8cCd9b0aIvPIzv80IROcIThroUoWMxxi0b+w8VoQlA/YVUpP8vHGOGt46Vskch8aiv0qBafxFJsYMR1N0LPurhePHDEygnQJdzGjne3VG+NRqPhwagl3oIYtZlolQKZ5GwHGN30ONmXj6qg0KhbruIZA91qC+u5OaDeO9HpAiIR64aYCtxj0LykeW1ebjcGMLpSkjfFyFCPAL8erL+8k68+VUvrHprDFwk6JXX/PV05wRb5gQXZ8KlvMtokEJem8057h5seEuf3HcYoqcOgrsMQEsNLqVtxZ7C4Zgy0lVQn+n8C5sHAZUieekKXJm3DQlhdpJo1uZoLjqIJdPXomnZDiwON/HRttNorN4yBf+dq4ZPzx7oPmAN6uM3Y0FfBfMoAJm9GmNjnsLkhP34vagIZ7+NQvmGPyF+z020VGlQkX8YP3slIj3nMnJT50O/LQYL95ZJ4go5Z4x1gFBXp4XMwREObT+TwdHRAS1aLRp574fRHqMaIHGPegH5yPLaPFxuDOcvxLnUEOKRX0/W4ujGzSiOWY4obyl2bcvzdxw2EcOuJWH97jzU6upwLWM9tmU2obGhUeJ5baEHm3lXze4ouChdERKXhYgNnyAuUC6oz7CFjUUINw+8jsTCV7BtUagk7i01DaHy5CZMG70cpfEpSP5z/3aBeoeW3M2YPuckpqYVoORaEW5eSsKAfVGYnXQNxZLySLi+81n4eHjAw8MDPtN24YaAKiYPiMJ7OzZhUWRPOMoVcB/8KlbEOCEjNRtNSnvYu43DvDn94CKXwSk4FgkzuiDr8CkRPtRp7LEwx1yMFRg8JCyDUxcnkFaL+nb7q6vVwqZLFyjMxqrhfhitmK4B5nNeGh5lAvKR5bV5uNwYngAJcS5ujOtjiT9fj/zObUiTgu37PDB7TgTEe5OF+X7NZ/5y3zhs/zIamnWRCOw5EDO/dsX4pzzh5u4KG9HFqpBzG+4erDTzLueYvahuqkXB4QWoXR2JF/fcQLOAPiONS2r3RA2O7k1H8bksTFBvBgDoqotxszkWoZeXISVtyUP++x4EhKrsdzBl9g8YvTMTfxnlYebKDqEkKw1nAqYh6bGusAFg4xOJ6HFOmHDkODL0UvIog/fMz/HbpEYQAJlShW4CLnY1lZzFySIVHh3kdyv5CTpdM2xsFbBTh6F340mUa4G2SkuAjYLj4dBOi6FHF+h2TzETY6ehi/NrVyzl8AoNgeunZ3FeBzxuCwB1OJ9TgKB+wdBkbeXcD6M95moAV85Lw6NCQD6yvDYPlxujp2cl7uoOxn1GdfMsjvPyaPncJswGqP3xnzjafQJWBYrZrfl+zW/+NvCd9C5SJ73b+s+WC3h/xDr0naqGvehiVci5DVcPDjFYKBJqcg5i7+UAPD85HA5yB3gPfgHxk9bi2bRTKKzg32ek+4kNVeI/yUlIO6e1MNAF0d8Wo7ToKq5cuYIrVy7hyOv90H3W1zh3uDXxxQ5p0vD67O8wcEey8aKmg0cZuoaFodu5Q0jJb12fU/UZHDxaDHXfAXheYh7lDm7w8vaGt7c3vNwcuJPNIB5bzn2GF8fOwrrjpWhGCzSnPsX6vS2YOHUo7HtPx6z+x/HBO+m4oSPUX/wWn+yvR+QEcX5bTUePjuhmNsb6QGHg0e6JmZiBb7F+1znUUQvKj7+PTZlhiH0uBJ5c+3los/2DYODRfA3gynlpeLThykeW17zhcmPokdP5Q57Hg8awzxBvj3zObXTI+fk08Migds9IiBPT/drM/A3rY9k+xIWOQuIJDfSkRd6XK7G1dAZemqASZawKObcx34ODYWNw/qi4+T3WxC3AxhNlaAbQcDUN36SXIqS/wH5NnZ3aPRStUpJSqSRbGxnJbZWkVDqQ/8IfqZFrW3MuvRvhRKM/LaAWS/vp8AubKWfNYPKbf6Tt55mZmQ961g8U7d4ocpTbkJ2y1U/ry5GCFmdRk6FHvYZ++XQOjQjuRf5BQdTLP5zGvfYN5WoN9yo9j5wxZuSxik7/bR4ND3QnZ2cVdQscTnO3niSNvnVXumsp9ObEEPJ0dSX3HgNoxrosKr21TfQeuWLM0CMR1fy2neKG9CR3lSt5Bo+nZclXSWdpPyQBjwLikbMGSN0jceQjy2v+cLkxkddmXVno5cxjR493MO7JRPW0L9qZ1G9kU5PBaNF7JCKz8zfyWE85u+bSED93cnX3pIAn5tGOf9e0DRd9XlvIObM92Kg+VtKvW+fRyN7dSOXiQq7eYTR+yXd0oYEE9WsZEYn/+aX7TFZWFkaNGvWw/4xOD/NoHZhH68A8Wgfm0Towj9aBebQOzKN1YB6tQ3uP0r0VjcFgMBgMBoPBYIgGtrBhMBgMBoPBYDAYnR5ZZmYmuxWNwWAwGAwGg8FgdGrYMzZWgN0jaR2YR+vAPFoH5tE6MI/WgXm0DsyjdWAerQPzaB3YMzYMBoPBYDAYDAZDVLCFDYPBYDAYDAaDwej0sIUNg8FgMBgMBoPB6PSIY2FDlTjzWRweUdkjcksh9Hy3dUCP4ow1mDGoB9xcVHD3i8Bz64+hjG7v5hd8NOtR+Ht2hbtXCCauPITr5ncmMrjddKApDXM9FLCzt4f97Zfz43gvtwWNB2Lh5tDu5/b2UCoU6LkoC7oHPqeHgQ5XU1Zicr/ucHVRoWvPxzBz0wlUmHzKjXustOPRWgiIazHCkavG8HNFFWl4OdAOPvEZaHogk/ijIyTnpR2PwvpDMwrTEjFloBrqkGD0Dh6K2A+zb3nl2iYtLOdjC4q+X42p/X3Rzd0NXqFPY2VaIdoqAO/zJzFyd3Fk7FxIDejEmI0V65w/tv4Kfuc9nX9hQ5U4tPBJvJQVgGGhCv7bDNBf/xKvxHwBxzcyUVhViasHZ6Pqg1gk/tAAUBn2L4zG/6newk+F5Sj5bQP6HN+EpDPSaN2cbgxpqkKlbgQ2X9SioaGh9VXzM1aE2UA57Wto6hvu/LwsAwn9+iEmZjBsH/y0Hjj6S9sQF5eGwA2/oqRag8sHpuH6mli8/VOjsLESj0drISiuxQhHrhrCyxWVI235MhyVeYigsVgHQTkv8XgU0h+o5O9Y8EIy+nx8Cvnn83A+Ix71659H4tEGzm2Sgkc+6gt24aVZe+D5djaKKkpw+oMgpM55GTuv6QWdP4mRu4ojE86F1IBOC0esWOv8Uch5jwj6jwIBc3fj2FfzMVBlOB2ubQbIQzHr411YG6OGk0wG577T8Uy4BhcvaqAvPoAd6f2x9K/PwM8OsPWZgo+yjmDFYLv7Nqs/FBxuDBfdVF2JKqjgask3GnBqw2KkDH0fq55wul9/+R8LZQTm79qJ1RN8oYQcqgEzMCm4FBcv1xl55Bor+Xi0FgLiWozwz1XwcEUoS12G5RdisTa2hxgai3UQkvMSj8eOcPeHloLzuCCPwOjHVJABUPQYhZHqcuTlVaCZY5t0PPLLR+2Jw8j2j8XiyX6wgx18n07Ea4Oy8d3BG9ALOX8SIVwxZjqOzDgXUgM6LRyxYqXzRxJw3tP5o1XWBSERIegiE7jNALn3EETPHAnfW0b0hYfxfV4oIkd4ojnnNHK8u6N8azQeDw1AL/UQxKzLRKl4opITLjeGavVVGlTrLyIpdjCCunvBRz0cL354AuUGrvSXd+LNr3ph1Vtj4MLj+IgBue8wRE8dBHcZgJYaXErbij2FwzFlpKuRR66xUo9HayEkrsUI31wFLLui0hQsffMS4rYmIJytr9sQlPMSj8f2WOoPitCxGOOWjf2HitAEoP5CKtL/F44xwz1hy7FNKh4F5aOe7pxgypzg4ky4lHcZLQLOn8QIV4yZUmLOuZAa0GnhiBVrnT/qBJz3dP6FzX2guegglkxfi6ZlO7A43Ab6Kg0q8g/jZ69EpOdcRm7qfOi3xWDh3jIRrbj5YejGEJm9GmNjnsLkhP34vagIZ7+NQvmGPyF+z812rrQ4unEzimOWI8pbNKnNm5rdUXBRuiIkLgsRGz5BXKD5NDQ1lsWj9bEU12KEX64aY+SKSpG8dAWuzNuGhDA78TRrKyIk5wFpxuMdePQHp9FYvWUK/jtXDZ+ePdB9wBrUx2/Ggr4K7m1SQEA+Og6biGHXkrB+dx5qdXW4lrEe2zKb0NjQyHqJkDji4VxoDRAj93L+2CLgvEd6ZjkhVJ7chGmjl6M0PgXJf+4PBwAypT3s3cZh3px+cJHL4BQci4QZXZB1+JREHnoHzLkxRB4Qhfd2bMKiyJ5wlCvgPvhVrIhxQkZqNm7fUUqaFGzf54HZcyIg3ou7hOs7n4WPhwc8PDzgM20XbtzKPueYvahuqkXB4QWoXR2JF/fcMNtETI0Fi8e7wNzx4BfXYoRPrnbElCvCzQOvI7HwFWxbFCqJZ+XuBv45L914vA2f/tCSuxnT55zE1LQClFwrws1LSRiwLwqzkwqg49gmvoffDevaTvy+n38+yn3jsP3LaGjWRSKw50DM/NoV45/yhJu7q8RODo37Q2EO3zjiVwOF9P0/NubPbbjec6/nj00CznukFbucEKqy38GUmckYtCMTX88Nh+OtLQp1GHo3lqNc22E4bBRSuZJm3o0hTSVncfxMQbsTI4JO1wwbW0VbsNX++E8c7T4BEwPF7E8G75mf47ezZ3H27Fn8tisGjrmp2JWSg3oAkDvAe/ALiJ9ki4y00wbfWEOoyTE/Vi/5eLwbDI/H8/CS8Y9rMcInV9Fum2lXNTi6Nx3F5zZhgtof/v5BGLfxd9z4Jhah4zfB5BesSQbuPDZ+5FXa8Xgby/2BUJKVhjMB0xD7WFfYALDziUT0OCccO3IKRWa3nRbhhR/DuvYMcvYJyUcb+E56F6m/F+HmjXwc3zkZ8sv16DtQDYl8vnUL436NY3zjiKsGbsSvvwupAZ0BU72Ua7x1zh/tBJz3SHdhQ5X4T3IS0s61WiJNGl6f/R0G7kjGX0Z5dPgo0ab3dMzqfxwfvJOOGzpC/cVv8cn+ekROkMa3eXG5MfTYcu4zvDh2FtYdL0UzWqA59SnW723BxKlDb7nSIefn08Ajg6AWeeWUO7jBy9sb3t7e8HJzhN3N77EmbgE2nihDM4CGq2n4Jr0UIf2DoejgUQYFx1ilxOPxbul4PBwg44prCcCZq7zrowuivy1GadFVXLlyBVeuXMKR1/uh+6yvce7wEpj4gjUJwZ3HCgE9SDqY6Q8G9bFrWBi6nTuElPz61s3VZ3DwaDHUfYPhaXZbH1GerHesa16I4cpHuUHMle1DXOgoJJ7QQE9a5H25EltLZ+ClCaqHPKsHj2G/7sYVRx3ikasGvo6+ZRw14KHO+O4x7KVcCwlrnT/aCznvoc5O7R6KVilJqVSSrY2M5LZKUiodyH/hj9TIta05l96NcKLRnxZQCxFp90aRo9yG7JSt41tfjhS0OIuaiEh3LYXenBhCnq6u5N5jAM1Yl0Wl+tY/ITMz82EauO9wujHwSPoqOv23eTQ80J2cnVXULXA4zd16kjT623urp33RzqR+I5uaDH6P2D2SvpJ+3TqPRvbuRioXF3L1DqPxS76jCw1EZOSRYyxJOx6thaWcF71HrlwVWB/v0Ew5awaT3/wj1HjrJ6L3yIWAnJd8PBKR2f5gVB819Munc2hEcC/yDwqiXv7hNO61byhXa2EbScXjbQzy0dAj1VPOrrk0xM+dXN09KeCJebTj3zWtb+U6fyIJeOSKIyOP7TFwbqGXi8IjR6xUWvH8ke95j4yIOudtfn8gsrKyMGrUqIf9Z3R6mEfrwDxaB+bROjCP1oF5tA7Mo3VgHq0D82gd2nuU7q1oDAaDwWAwGAwGQzSwhQ2DwWAwGAwGg8Ho9MgyMzPZrWgMBoPBYDAYDAajU8OesbEC7B5J68A8Wgfm0Towj9aBebQOzKN1YB6tA/NoHZhH68CesWEwGAwGg8FgMBiigi1sZzdTPQAAIABJREFUGAwGg8FgMBgMRqeHLWwYDAaDwWAwGAxGp0ccCxuqxJnP4vCIyh6RWwqhb9vQjMK0REwZqIY6JBi9g4ci9sNsVJh8qohQfWoLXhgSAE8PD3j3GY1Fu/PRCABNaZjroYCdvT3sb7+cH8d7uS0PaIIPCLMedbiashKT+3WHq4sKXXs+hpmbTgj3CIAqf8FHsx6Fv2dXuHuFYOLKQ7iuN7WfToxZjxa2taPxQCzcHNrFm709lAoFei7Kgg4tKPp+Nab290U3dzd4hT6NlWmFEFk0ciAgHjlyl9uxFODO1Y5wOdejOGMNZgzqATcXFdz9IvDc+mMoY09vQphj5pGrPvLvHUL6lfgQXNfMOZf8eY+FbR3g6skS6ddmXQmogTxjjirS8HKgHXziM9BkYjedf2FDlTi08Em8lBWAYaGKjptK/o4FLySjz8enkH8+D+cz4lG//nkkHm0w3k/dj1gR8z4a4tNxtawU+bvH42xCLDaebQaaqlCpG4HNF7VoaGhofdX8jBVhNg9okg8ADo/6S9sQF5eGwA2/oqRag8sHpuH6mli8/ZOJ0OTySGXYvzAa/6d6Cz8VlqPktw3oc3wTks6YCs1OCodHzm0GKKd9DU19w514K8tAQr9+iIkZDJuCXXhp1h54vp2NoooSnP4gCKlzXsbOa2JbIZpGUDxy5C6XY9sHP60HD1euGsDlXH/9S7wS8wUc38hEYVUlrh6cjaoPYpH4g4k6KzWEOJa6R87ayb93CKoPIkRQXeNyLvHzHiH9Ws/Rk7m2iQYuVwJqIK+Yo3KkLV+GozIPswuYzr+wgQIBc3fj2FfzMVDVcTotBedxQR6B0Y+pIAOg6DEKI9XlyMurgOHFm8Z/7UGy8nksjVXDATK4DFqEhHFXsfcfudBVV6IKKriqRKDLLOY9QhmB+bt2YvUEXyghh2rADEwKLsXFy3XCPBYfwI70/lj612fgZwfY+kzBR1lHsGKw3QOb5f2HwyPnNi4acGrDYqQMfR+rnnCC9sRhZPvHYvFkP9jBDr5PJ+K1Qdn47uANjitKIkJAPBLv3O3oWApw5apRy+FyLg/FrI93YW2MGk4yGZz7Tscz4RpcvKgxOh5SQ5BjyXs0Xx9JSO8QUB/Ej6W6xuFc6uc9Avo1V0+ulUS/Nu9KSA20HHOEstRlWH4hFmtje4h4YSPrgpCIEHSRGW9ShI7FGLds7D9UhCYA9RdSkf6/cIwZ7omOw/W4mZeP6qBQqNsWm/ZQh/riSm4+Gqs0qNZfRFLsYAR194KPejhe/PAEysVUJTk8yn2HIXrqILjLALTU4FLaVuwpHI4pI10FedTmnEaOd3eUb43G46EB6KUegph1mSiViEfObRzoL+/Em1/1wqq3xsDl9nv1dKdJy5zg4ky4lHdZfB9vm4B/PAJ6nrlr0rGo4c5Vw1tWuJzbeA9B9MyR8L3VTfSFh/F9XigiRxjWWakh0LHUPXLUR52A3iGkPogdi3WNwznf2tmpsWa/5urJYu/XZl0Jq4GWYo5KU7D0zUuI25qAcI7r4Z1/YcOF02is3jIF/52rhk/PHug+YA3q4zdjQV/DjxUJdXVayBwc4dD2MxkcHR3QotWiyV6NsTFPYXLCfvxeVISz30ahfMOfEL/npqSuANXsjoKL0hUhcVmI2PAJ4gINw4fbY0OVBhX5h/GzVyLScy4jN3U+9NtisHBvmaQ8CkOLoxs3ozhmOaK8W6uG47CJGHYtCet356FWV4drGeuxLbMJjQ2NkvJoOR4BGa/cNXYsfrhz1dxNO5acNxcdxJLpa9G0bAcWh4volpW74u4cA8yjIfq76B186oO4ube6xq92MgDunuwg6X4trAZyxhyVInnpClyZtw0JYXacFylEnektuZsxfc5JTE0rQMm1Ity8lIQB+6IwO6nA4CNAGZy6OIG0WtS3/YxQV6uFTZcucAiIwns7NmFRZE84yhVwH/wqVsQ4ISM1m7M5iQ3nmL2obqpFweEFqF0diRf33DBITG6PSqU97N3GYd6cfnCRy+AUHIuEGV2QdfhUJ31Ym3B957Pw8fCAh4cHfKbtwg0rVyrSpGD7Pg/MnhOB2xco5L5x2P5lNDTrIhHYcyBmfu2K8U95ws3dVYQJbd6x5XgE5Dxy15Rj8WMhV828y7xzQuXJTZg2ejlK41OQ/Of+7RqZVDCM1S9Q5yTUMfNoCtld9A4+9aHzY74+3mtd41M7Oxf3r19z9WSF6Pq1EI/C+oz5mDuBwgOvI7HwFWxbFGrxGdjO6ZUXhJKsNJwJmIbYx7rCBoCdTySixznh2JHTBsVQDq/QELheOIvzbRvqcD6nAEF9Q4CSszh+pqBdMhN0umbY2CrELPAWhJqcVOxKyWkNTLkDvAe/gPhJtshIO23wjRTcHh3VYejdWI5ybYfdw0bRWa9IyuA983P8dvYszp49i992PQ8vK1/wr/3xnzjafQImBrZ3ZAPfSe8i9fci3LyRj+M7J0N+uR59B6rB/YhjZ8TQcQwcc/nGI9DEI3dNOxY73Lna8UTIUg0gVGW/gykzkzFoRya+nhsOxwc8mz8GhrE6E+FhfB0DYB7NouDdO4T0KzFgvgfda13jUzs7F/ezX3P1ZLH1ayEehfQZrpjT4djedBSf24QJan/4+wdh3MbfceObWISO3wTDL+rrnPHJCxm6hoWh27lDSMlvXStS9RkcPFoMdd8+UFAl/pOchLRzrZXS7omZmIFvsX7XOdRRC8qPv49NmWGIfS4YOPcZXhw7C+uOl6IZLdCc+hTr97Zg4tShEvj2JBkUN7/HmrgF2HiiDM0AGq6m4Zv0UoT0Dxbk0a73dMzqfxwfvJOOGzpC/cVv8cn+ekRO6LzfQiV3cIOXtze8vb3h5eZw9wll4LEVHXJ+Pg08Mqjd/akAle1DXOgoJJ7QQE9a5H25EltLZ+ClCap7mMkfl46OHWEnIB5bLOauacdSgCtXbTp45K4BNpo0vD77OwzckYy/jPKQ3HMM7TGsB/a8HQPEPJrFhqt3CIhVMaa46R5kpq6Z7DOmsVw7Ox/3q19z9WQx9mshHvn3Ga6YG4OZ3xajtOgqrly5gitXLuHI6/3QfdbXOHd4CYy+qI86O7V7KFqlJKVSSbY2MpLbKkmpdCD/hT9So15Dv3w6h0YE9yL/oCDq5R9O4177hnK1RNScS+9GONHoTwuo5dauan7bTnFDepK7ypU8g8fTsuSrpCMi0lfR6b/No+GB7uTsrKJugcNp7taTpNG3vi8zM/PhzN2acHqspF+3zqORvbuRysWFXL3DaPyS7+hCAwnzSES6ayn05sQQ8nR1JfceA2jGuiwqlYpHrm0mPBLV075oZ1K/kU1NHX5JPeXsmktD/NzJ1d2TAp6YRzv+XdO2VRQeuRASjxZy17xjCXgkjlw18mjeuXZvFDnKbchO2RrbrS9HClqcRU0kDY9c8HUseY9c9ZE4eoeAWCWSgEciMlvXDF1x9n2Jn/cI6tdcPVkC/dpC7vLvM5b69W2aKWfNYPKbf4Qab/2kvUcZEYnvttMHTFZWFkaNGvWw/4xOD/NoHZhH68A8Wgfm0Towj9aBebQOzKN1YB6tQ3uPIr4VjcFgMBgMBoPBYEgFtrBhMBgMBoPBYDAYnR5ZZmYmuxWNwWAwGAwGg8FgdGrYMzZWgN0jaR2YR+vAPFoH5tE6MI/WgXm0DsyjdWAerQPzaB3YMzYMBoPBYDAYDAZDVLCFDYPBYDAYDAaDwej0sIUNg8FgMBgMBoPB6PSIYGGjR3HGGswY1ANuLiq4+0XgufXHUEYAQKg+tQUvDAmAp4cHvPuMxqLd+Wg0sZfGA7Fwc7CHvf2dl1KhQM9FWdABoMpf8NGsR+Hv2RXuXiGYuPIQrusf7EwfGk1pmOuhgF07N/bOj+O93BYTg80fD0uORQNV4sxncXhEZY/ILYXQ893WgRYUfb8aU/v7opu7G7xCn8bKtEK0GueKeWlBFWl4OdAOPvEZaDI9grsG8D4eYoR/fWwdbtqVZPLaLM0oTEvElIFqqEOC0Tt4KGI/zEaFhXw0il1BdVaECJg/d8xJvD4KiiOuPgOJ10cuhNTOu6sPYkFQf+CMXQux2p77/P+R3ndaij6nyV2DaPY3+VSr11P1fzbTUx5+NP9IPVFtBr0a1IuiPs8nLemp6vR79KTno/Tu7zrLO675iZYOGEBLj9cS6Utp36xe1Df+/9G1RqKmomR6beRYWvtr6/95Kor/OZaLmr/TNJcn6dOCFotDOY+H0X7bOSaReNRrKO3V/jRw5l9o/pD2/zOxhW0GtFz7jCa4B9NLB65RIzVSQepCesRzAm2/2mLRsSg88kFfRqkvhVNQYHfq0e5/IO4AVw2wcDxE71FIfRQQu6LMaw70xUk0pWs/ev1YJemJSHctif7k3Yte/cFEzWt7k4nYtVBnxe5RSJ8xfu+dmJN8fRTSrzn6jOTrIxcCaqel+iA5jwb9oeM287HLGavU0WPn/8RGHopZH+/C2hg1nGQyOPedjmfCNbh4UYOGf+1BsvJ5LI1VwwEyuAxahIRxV7H3H7lo5txpA05tWIyUoe9j1RNOoOID2JHeH0v/+gz87ABbnyn4KOsIVgy2e0CTfLhQdSWqoIKrike4cByPjhcoOjoWDwoEzN2NY1/Nx0AjX1zbOqI9cRjZ/rFYPNkPdrCD79OJeG1QNr47eAN63o7FDKEsdRmWX4jF2tgeZj96buSsAfyPhxjhdmMIX1dizWvztBScxwV5BEY/poIMgKLHKIxUlyMvr8JMPpqOXUF1VoTc/fwNYk7i9VGIR84+I/H6yIWQ2im8PogZ7v7AFbvcsdqRTh+tcu8hiJ45Er63ZqIvPIzv80IROcIDpXn5qA4KhVpxe7Q91KG+uJKbz3mLhP7yTrz5VS+semsMXGSALuc0cry7o3xrNB4PDUAv9RDErMtEqUSiUl+lQbX+IpJiByOouxd81MPx4ocnUG5i/uaPhydk7fdp4Fg0yLogJCIEXUzNiWubKfR0p/DJnODiTLiUdxnE07GYodIULH3zEuK2JiDc7PUFPW5y1QChx0NUWHBjOJynK9HmNQeK0LEY45aN/YeK0ASg/kIq0v8XjjHDTeejudgVUmfFyN3O3zDm+PYgsSLYo5k+0yLp+siFsNoptD6IGUv9wWLsmotVg/10+oVNe5qLDmLJ9LVoWrYDi8PlqKvTQubgCIe2ETI4OjqgRas1fx85tDi6cTOKY5YjyrvVvL5Kg4r8w/jZKxHpOZeRmzof+m0xWLi3TBIrbpm9GmNjnsLkhP34vagIZ7+NQvmGPyF+z03O+Xc8Hjbtthg7ZnTEcdhEDLuWhPW781Crq8O1jPXYltmExobGDs7NOxYxVIrkpStwZd42JITZcTQHussaIAXuhxuJ5rXTaKzeMgX/nauGT88e6D5gDerjN2NBX4XxWI7Yvds6Kxbubv7cMSfF+ijEI98+w2iPwNoppD6IGsv9gSt2HQTEqkgWNoTKk5swbfRylManIPnP/eEAGZy6OIG0WtS3G1dXq4VNly5QmtuTJgXb93lg9pwI3L6YJlPaw95tHObN6QcXuQxOwbFImNEFWYdPSeLhWHlAFN7bsQmLInvCUa6A++BXsSLGCRmp2WZOgEwdj3ZbTTjunBCu73wWPh4e8PDwgM+0XbhhpW4g943D9i+joVkXicCeAzHza1eMf8oTbu6ut5KW27F4Idw88DoSC1/BtkWhsOUce3c1QBpY34148poL45wvzNmM6XNOYmpaAUquFeHmpSQM2BeF2UkFBrdIcMeu8DorLu5m/uZjTir10TgeS/z5e7TcZxjGjr9AnRP/2tmSy7c+iAHz50R8+gNXDdAJiFURLBkJVdnvYMrsHzB6Zyb+Msrj1lUwObxCQ+D66Vmc1wGP2wJAHc7nFCCoX4hZsbU//hNHu0/AqsA7V3cU6jD0bjyJci3Q9kYCbBTSuALUVHIWJ4tUeHSQ362kJeh0zbCxVZgofuaOxx1MOe6cyOA983P8Nqn1ioFMqUI3q12otoHvpHeROund1n+2XMD7I9ah71Q1FDwci5caHN2bjuJzWZig3gwA0FUX42ZzLEIvL0NK2hKEtYXV3dUAaWB9N+LJay4Mc94Fut1TcCZgGpIe6wobADY+kYge54QJR05DF+fX7kSHO3b3f/4Uaor51lnxIazPtGI65qRUH417kOrmWRzn7ZGrzzBaMeH4zCm4buFTOwklWWmc9UFcmD8n4tMfuGsA/1jt9PWSNGl4ffZ3GLgj2aiA2T0xEzPwLdbvOoc6akH58fexKTMMsc8Fw4Yq8Z/kJKSd07Z7hw45P58GHhnU7t5JwKb3dMzqfxwfvJOOGzpC/cVv8cn+ekROGGzhirE4aDn3GV4cOwvrjpeiGS3QnPoU6/e2YOLUobA18Mh1PFox7bizIndwg5e3N7y9veHl5nD3CWXosWwf4kJHIfGEBnrSIu/LldhaOgMvTVDxcCxmXBD9bTFKi67iypUruHLlEo683g/dZ32Nc4eXIEze0SNnDXjIM3nYCK+PXIgrr7nomPOO6BYWhm7nDiElv/X6LVWfwcGjxVD37QNFB4/csdsnn6POPtwpPxCE9JlWTMec1OqjYQ8iIf2ao88w7mDo2J537ZShK1d9eLjTui+YPicy0x8M4pGrBiiExOp9+0q3B4R2bxQ5ym3ITqkkZdvLkYIWZ1ETEdX8tp3ihvQkd5UreQaPp2XJV0lHRNScS+9GGH6FYT3ti3Ym9RvZ1GTwe3TXUujNiSHk6epK7j0G0Ix1WVSqb90m+q/r01fR6b/No+GB7uTsrKJugcNp7taTpNGTkUdLx4PLsSg81u6haFXrvG1tZCS3VZJS6UD+C3+kRq5tRvFYTzm75tIQP3dydfekgCfm0Y5/1xCRZcei8MibZspZM5j8bn9lrom8NlsDuI4HScMj7/powZXo85oLvYZ++XQOjQjuRf5BQdTLP5zGvfYN5WrJTJ+5jUHsctVZkoJH/n2mFdMxJ/n6KMij+T7D6iM3vGsnV30gqXg00x+MXHHVQI5YpY4eZUTEnhG7R7KysjBq1KiH/Wd0ephH68A8Wgfm0Towj9aBebQOzKN1YB6tA/NoHdp77PS3ojEYDAaDwWAwGAwGW9gwGAwGg8FgMBiMTo8sMzOT3YrGYDAYDAaDwWAwOjXsGRsrwO6RtA7Mo3VgHq0D82gdmEfrwDxaB+bROjCP1oF5tA7sGRsGg8FgMBgMBoMhKtjChsFgMBgMBoPBYHR62MKGwWAwGAwGg8FgdHrEsbChSpz5LA6PqOwRuaUQ+rYNLSj6fjWm9vdFN3c3eIU+jZVphWgxtY+mNMz1UMDO3h72t1/Oj+O93BYLv0MK6FGcsQYzBvWAm4sK7n4ReG79MZSZeDqr8UAs3BzaObS3h1KhQM9FWdABoMpf8NGsR+Hv2RXuXiGYuPIQrktGZjMK0xIxZaAa6pBg9A4eitgPs1Fh6ik3znjkfzzECaH61Ba8MCQAnh4e8O4zGot256PR5FgdrqasxOR+3eHqokLXno9h5qYTt5wLOB6iRIjHdu+qSMPLgXbwic9Ak4BtosVS7+gAV0+Sel4LmD9P55KMx3ZYnr9555Z6ufgRko/m+4zkPVqtPt7BYlzf//9x9D6j11Daq/1p4My/0PwhHf9n4pZrn9EE92B66cA1aqRGKkhdSI94TqDtV43/D2iq+TtNc3mSPi0wsY3jdxCJ/3+ObSn6nCZ3DaLZ3+RTrV5P1f/ZTE95+NH8I/WW31zzEy0dMICWHq8l0pfSvlm9qG/8/6NrjURNRcn02sixtPbX1v+7XOwe9cVJNKVrP3r9WCXpiUh3LYn+5N2LXv3BhEeOeLR0PMTukWoz6NWgXhT1eT5pSU9Vp9+jJz0fpXd/1xkNbbn4ET3pPoBeSyugBmqhylNraZRbAL2W1WDxeDCPJtCXUepL4RQU2J16zD9CjTy2id4jV+8wgKsnST2vBfUZPs6lGo+34crVWwhz3q6Xk/g9CnHD1WeMkJhHa9XHNnjktQg+sVEgYO5uHPtqPgaqOk5He+Iwsv1jsXiyH+xgB9+nE/HaoGx8d/CG0ScuVF2JKqjgqjKlxPzvkATyUMz6eBfWxqjhJJPBue90PBOuwcWLGnBfTGzAqQ2LkTL0fax6wglUfAA70vtj6V+fgZ8dYOszBR9lHcGKwXYPaCIPl5aC87ggj8Dox1SQAVD0GIWR6nLk5VUYeeSMx7s+HuKg8V97kKx8Hktj1XCADC6DFiFh3FXs/Ucumg0HKyMwf9dOrJ7gCyXkUA2YgUnBpbh4uQ7NAo6HGBHkEQBAKEtdhuUXYrE2tofBx/1c28QNd+/oCGdPknheC6lrlp1LNx5b4Tl/3s479nJJICQfOfqM1D1arT627o1XXHf+fJd1QUhECLrIzGzX053AkjnBxZlwKe+y0Udb+ioNqvUXkRQ7GEHdveCjHo4XPzyBcuLxO0SO3HsIomeOhO+taNEXHsb3eaGIHOEJLiX6yzvx5le9sOqtMXCRAbqc08jx7o7yrdF4PDQAvdRDELMuE6WS6NqAInQsxrhlY/+hIjQBqL+QivT/hWPMcGOPXPF4t8dDHOhxMy8f1UGhUCtu/8we6lBfXMnNN/poX+47DNFTB8FdBqClBpfStmJP4XBMGekKWwHHQ3wI8wgAVJqCpW9eQtzWBITb8d8mdjh7h8k3mO5JJOm8FlbXLDmXcjwC/OfP17lhL5cCQuKRq89I3aO16mMLBMS1dafwx8Jx2EQMu5aE9bvzUKurw7WM9diW2YTGhkajFbfMXo2xMU9hcsJ+/F5UhLPfRqF8w58Qv+emNK6W8aS56CCWTF+LpmU7sDjchmOkFkc3bkZxzHJEebdmsL5Kg4r8w/jZKxHpOZeRmzof+m0xWLi3TBqOnUZj9ZYp+O9cNXx69kD3AWtQH78ZC/oqjIbyjUf+x0MsEOrqtJA5OMKh7WcyODo6oEWrNft8SM3uKLgoXRESl4WIDZ8gLlAu6HiID4EeqRTJS1fgyrxtSAiz69jYubZJACG9g29Pkl5ed8TS/DmdSzwe7zYfzTs37uVSg28+muwzbUjTo9Xqo4C4FvXCRu4bh+1fRkOzLhKBPQdi5teuGP+UJ9zcXY0mLg+Iwns7NmFRZE84yhVwH/wqVsQ4ISM12+LDtNKAUHlyE6aNXo7S+BQk/7l/uxMiE6M1Kdi+zwOz50Tg9sJaprSHvds4zJvTDy5yGZyCY5EwowuyDp8S4UN0hOs7n4WPhwc8PDzgM20XCnM2Y/qck5iaVoCSa0W4eSkJA/ZFYXZSgdGtkZbjUdjx6LwYevwCdU5OIK0W9e3G1NVqYdOlC5Rm9uIcsxfVTbUoOLwAtasj8eKeG2jO5X88xIcMTl34eiTcPPA6EgtfwbZFobDlvU2MGOd1iT//3mG5J0klr83Bb/7m6+MJFEo6Hnfi9/1C58/t3FQvlw7C8tFUn7l98i4Nj/erPqpQJiCvRX5p0ga+k95F6qR3W//ZcgHvj1iHvlPVRhNvKjmLk0UqPDrI71ZTJ+h0zbCxVYh79ccLQlX2O5gy+weM3pmJv4zysHgVqPbHf+Jo9wlYFXjn6oZCHYbejSdRrgXaMpsAG4UYr0jK4D3zc/w2qfVKrEzpAt3uKTgTMA1Jj3WFDQAbn0hEj3PChCOnoYvz63AyyR2Pwo9H58XQowqqM6fguuUszuuAx20BoA7ncwoQ1C/EoGEQanIOYu/lADw/ORwOcgd4D34B8ZPW4tm0UyisSOM8HuJGDq/QELh+ysdjDY7uTUfxuSxMUG8GAOiqi3GzORahl1/Dq27mti1DStqSBzyv+42JeLx5Fsd59w6uniSlvDYF//mbr486HDMbq1KIRxmOvrqSc/5hHdqtZeemerk04BuPXH3mNJqin4ESUvF4v+pjd/wkJK+t/P0HDw99MW1/yrnDN5bpS/fSiyEjadW/KqhFX0fnd0WRf+94Sq8mIr2G/v3PL+hgbh0REWmPLqJAtxH0l59uko6aqeLXjTTBqwfNPlBOeo7fQST+b7XQV6TSvKBweu1HzR0XbRs7emylibLfUJPH7GTSth/bfIE+etKTBi05TNeb9KS9kETRvXwodn8F6Un8HhsyF1GAx3j6+FyrFX3VL5T4qAs9ujaHmgXEYwvX8SDxeyTtMfpzsC89+7dcqtU3U9lPq2io10janN9snNc/LqAA91H0zr9KSUdE9Vf+SfPDnGnYxnyq4zoexDwa5/VtmilnzWDyM/lNS8bbxO6Rs3cYeOTqSZx1lsTvUUif4dWviUiK8dgRg/kbxqOFmDPby0n8HgXFI0efaSYiKXu0Vn3sCHded/6FTe0eilYpSalUkq2NjOS2SlIqHch/4Y/USPWUs2suDfFzJ1d3Twp4Yh7t+HdN6/uac+ndiHZf3ayvotN/m0fDA93J2VlF3QKH09ytJ0mjt/Q7JBCYe6PIUW5DdspWB60vRwpanEVNhh6JiKie9kU7k/qNbGoy2JfuWgq9OTGEPF1dyb3HAJqxLotKb1UNsXskvYZ++XQOjQjuRf5BQdTLP5zGvfYN5WpJUDxyHg+SgEciqvltO8UN6UnuKlfyDB5Py5Kvko7IhMdK+nXrPBrZuxupXFzI1TuMxi/5ji40EPfxIObROK9vwxY2HeDqHUYezfckqee1oD7D5bwDEozHDhjM38CjpZjj6uVi9ygsHjn6DBFJ2aO16mNHuPNaRkSSeG77fpKVlYVRo0Y97D+j08M8Wgfm0Towj9aBebQOzKN1YB6tA/NoHZhH69DeI3t8hMFgMBgMBoPBYHR62MKGwWAwGAwGg8FgdHpkmZmZ7FY0BoPBYDAYDAaD0alhz9hYAXaPpHVgHq0D82gdmEfrwDxaB+bROjCP1oF5tA7Mo3Vgz9gwGAwGg8FgMBgMUcEWNgwGg8HCUkq/AAAgAElEQVRgMBgMBqPTwxY2DAaDwWAwGAwGo9MjjoUNVeLMZ3F4RGWPyC2F0HfY9As+mvUo/D27wt0rBBNXHsJ1vamd6HA1ZSUm9+sOVxcVuvZ8DDM3nUAFCd2PSOFwbDAQ1ae24IUhAfD08IB3n9FYtDsfjW27kbDHpjTM9VDAzt4e9rdfzo/jvdwWE4ObUZiWiCkD1VCHBKN38FDEfph9Kx5bUPT9akzt74tu7m7wCn0aK9MKYWovYocq0vByoB184jPQZG6MuZgTdDzECHfNM8JsDWDxeBvL8ahHccYazBjUA24uKrj7ReC59cdQdts57zorUu5i/qacS7rPALw9Nh6IhZtDu/pnbw+lQoGei7Kgk3hec7sxj3E8cvVyaXA3+XgvHjv/woYqcWjhk3gpKwDDQhUG28qwf2E0/k/1Fn4qLEfJbxvQ5/gmJJ0xbjn6S9sQF5eGwA2/oqRag8sHpuH6mli8/VOjoP2IEi7HhtT9iBUx76MhPh1Xy0qRv3s8zibEYuPZZuaxqQqVuhHYfFGLhoaG1lfNz1gRZmM0lEr+jgUvJKPPx6eQfz4P5zPiUb/+eSQebYC+YBdemrUHnm9no6iiBKc/CELqnJex85qUOjcAKkfa8mU4KvMwX8i4Yk7A8RAjnDXPEI4awOLxFjziUX/9S7wS8wUc38hEYVUlrh6cjaoPYpH4Q4OwOitG7mb+ppxLvc8I8Kic9jU09Q136l9ZBhL69UNMzGDYSDyvudzYmnuTiXjk6uWS4G7y8R49dv6FDRQImLsbx76aj4GqjtOh4gPYkd4fS//6DPzsAFufKfgo6whWDLYz3o0yAvN37cTqCb5QQg7VgBmYFFyKi5froBeyH1Fi3rEhjf/ag2Tl81gaq4YDZHAZtAgJ465i7z9yoZO4R6quRBVUcLXgEABaCs7jgjwCox9TQQZA0WMURqrLkZdXgboTh5HtH4vFk/1gBzv4Pp2I1wZl47uDNyR0hZdQlroMyy/EYm1sD7OFjKsGCDkeooSj5hlfBDNfA7QsHsE3HiEPxayPd2FtjBpOMhmc+07HM+EaXLyoAQmos+JE6PxNOxfU90XJ3cZRA05tWIyUoe9j1RNOLK870NGNaUzHI1cvl8KHNsLz8d49dv7qKeuCkIgQdJEZb9LlnEaOd3eUb43G46EB6KUegph1mSg19dGV7zBETx0EdxmAlhpcStuKPYXDMWWkK5oF7EeUcDjuiB438/JRHRQKdduFInuoQ31xJTcfWol71FdpUK2/iKTYwQjq7gUf9XC8+OEJlJuYvyJ0LMa4ZWP/oSI0Aai/kIr0/4VjzHBPyABAT3eSWeYEF2fCpbzLkrlNgEpTsPTNS4jbmoBwjvMVrhog5HiIEa6aZ5TqlmoAi0de8Sj3HoLomSPhe6vz6gsP4/u8UESO8ISMd50VKQLnb865kL4vSu4yjvSXd+LNr3ph1Vtj4HL7vRLP69uYdGOAuXi02MtFjtB8tIbHzr+w4UBfpUFF/mH87JWI9JzLyE2dD/22GCzcW2Z2pVyzOwouSleExGUhYsMniAuU39V+pAmhrk4LmYMjHNp+JoOjowNatFo0SNyjzF6NsTFPYXLCfvxeVISz30ahfMOfEL/npvH8nUZj9ZYp+O9cNXx69kD3AWtQH78ZC/oq4DhsIoZdS8L63Xmo1dXhWsZ6bMtsQmNDoyQ8gkqRvHQFrszbhoQwO87mwJW7EHI8RIypmicEFo/847E9zUUHsWT6WjQt24HF4dK4/dFqcDhn/fpu0OLoxs0ojlmOKO9Wm5LP6zaM3RjBVQM4erkUEJSPVvIo6oWNTGkPe7dxmDenH1zkMjgFxyJhRhdkHT5l9uEv55i9qG6qRcHhBahdHYkX99wA7mI/nRfC9Z3PwsfDAx4eHvCZtgs3eFcxGZy6OIG0WtS3219drRY2XbpAKXGPJf5ReG/HJiyK7AlHuQLug1/FihgnZKRmw/CphpbczZg+5ySmphWg5FoRbl5KwoB9UZidVAD4xmH7l9HQrItEYM+BmPm1K8Y/5Qk3d1cRJrShx534ff/rSCx8BdsWhZq/1/kWXDWgJYD/8RAzpmqekBMXOYtH3vF4ex+VJzdh2ujlKI1PQfKf+7e7ECQV7qXPEG4eMO/8bvp+5+VePLbbiyYF2/d5YPacCNy+SC6tvDaPKTcGIzjjkauXi++WPhPnPXZ889F6HkW9ZFSow9C78STKtUBbRBJgozC8OkaoyTmIvZcD8PzkcDjIHeA9+AXET1qLZ9NOQ///8d2PGJDBe+bn+G1S61UZmVKFbrw/L5XDKzQErp+exXkd8LgtANThfE4BgvqFwFF9QdIeVTfP4niRCo8O8oMSAEDQ6ZphY6swaBSEkqw0nAmYhqTHusIGgI1PJKLHOWHCkdPQxfnBd9K7SJ30buvwlgt4f8Q69J2qFmFCG3qU4eirK1F8LgsT1JsBALrqYtxsjkXo5WVISVuC9s/+c9WAppKzOMnreIgR7prXFP3MLSd8sGHxyDMeAUJV9juYMvsHjN6Zib+M8pDE7SjG3EufqcHRvelmnSdvZv1aKLU//hNHu0/AqsD2jqSU1+Yx7aY9XPG4FDunHOLs5eLCOB7db5byzEfreRR1/7bpPR2z+h/HB++k44aOUH/xW3yyvx6REwbDlirxn+QkpJ3TApBBcfN7rIlbgI0nytAMoOFqGr5JL0VI/2AoufbzsCd5H5A7uMHL2xve3t7wcnPgDpIOHgG7J2ZiBr7F+l3nUEctKD/+PjZlhiH2uWDYSdwjnfsML46dhXXHS9GMFmhOfYr1e1swcepQo3jsGhaGbucOISW/9bMvqj6Dg0eLoe7bBzZl+xAXOgqJJzTQkxZ5X67E1tIZeGmC6uFO+D7R0aMXYr4tRmnRVVy5cgVXrlzCkdf7ofusr3Hu8BKEyTvGI1cNkHMdj4c85/sPd81TGOQ1F8TikXc8kiYNr8/+DgN3JEt4UdPK3fcZF0T//+y9eXgUVfb//+4kpLNvhCRAWJLQJiEgq+ICREA2/QgywCQDQQPoPEZBHBSEB1HnKyroCOpIGGTAiaMjDPxAhhhlERJljLLpjCRAEAaysIWQvbN0us/vj4SQ9HK7Coulq87refIH3Sc3Xa8+5557q6sagfM+sdruM3L6dTMm5H1/GLhzYJt7Y7VX1/ax70Z6Pj6Pe/s47uVq3CBa52MHyetwBT2Sq1OziZIC9aTX66mDu47cOuhJr/emnnP2UgMRmQp30KLxcRQWFEQhXfvTlOU5VGohoqZ8en2QL434oIjMRESWCjqYPpuG9+pEgQEBFBTRm8bO/yedrG/+Mw7HIaLs7Oxbc+w3C5Fja49EVP3jWkod0p1CAoMoLHYsLdx+lkwtz2nao6WSDv9lNg2NDiF//0DqFD2UZqUfoHK7+VhOP3wwk4bF9qCeMTHUo2cCjX72U8o3EhHVUd6GWTSkWwgFhYRR1H2zad1P1a1/RvUe29FEecsGU7endlMDka1HEuSc6P0gDXgUzXnWHoXzLOfjNcT5aNw8lXzc3MlT3+yy+ceHYp7LoUYnvUz1HmX2mWtYOSeN9xnZHutoS5I/GV7IpcZ2A3FdO3QjJx+FvVwbHiWvw9tx/R51RKSt+8BuADk5OUhMTLzVL8PlYY/KwB6VgT0qA3tUBvaoDOxRGdijMrBHZWjrUdWXojEMwzAMwzAMow14Y8MwDMMwDMMwjMujy87O5kvRGIZhGIZhGIZxafgeGwXgaySVgT0qA3tUBvaoDOxRGdijMrBHZWCPysAelYHvsWEYhmEYhmEYRlXwxoZhGIZhGIZhGJeHNzYMwzAMwzAMw7g86tjYUAWOfJiKOwO9MHJ1MSz2Qq5k4cloT3RJ24NGu4M0oThrKSYMMMAQF4tesfci5d1cXCGgYVsKgr294OV17Ufv4YHuc3NgurFHdptgwYU9yzBlYFcEBwQipNsg/HbFN7hs5+4ssSvp46gd5/koiG3MwqxQD3i2cezlfw/ezDffhFd+E3FY14SqQ6vx2JAohIWGIuKOEZi7sQAN9sZw4ooqfsB70+9Cz7COCAmPw/glX+KcvQlEpUg/flHtcl3LySNRrLbzUU4eOZ4DuF9fw3mfEc2ljtdE2kCpPmNGyVevYGK/SHQKCUZ4/ENYklUMlXVrZfq10JWM+eGG/5ejNxpLOWU93Y8GTHuVnhri4H8wtVymzCcSKCa6M3Vt878Ttwu5kEETOval57+pIAsRmQoz6DcRPejpr+tsg6u/pQX9+9OC/TVEpP7/OdZc8hE90jGGZnxaQDUWC1X9ZxWNCe1GT+2248aaNq6cjaN2j61IyEdhbPU/aFLAA/RBke3/1UukEo+iuq7ZQ0/H9KCpHxWQkSxUefhNeiDsLnr9Z5PtOCJXllLaMr0H9Un7FxU2EDWWbKdnhz9IbxxsfkdU4VGEk+Nvi6h2NV/XMjwKYzWej7L6jKw5QFv9uhUpfUbg0dmaSPUeFeoz5sIPaVxILD2xrZAaqIGKMufQnWHjaO3Z5lhVeFSoX4tcyekzKtjYVNOxQ8eo2nyB1o7xt7OxsVDpv2ZRQuKbtOnlwdTNQYGbDi6m+E6plFnf8oD5DL07zI9GpZeQpV1kHR1cOoji0nZTZcsTqkhMAebz39PGT3OotWbNhfR+oh89uOaclRtr2rtyNo7aPTYjLR9FsZaSdBoZMJE+qbL/W6rwKKjr+p1PUtfei+hA67xYQ9umh1H/V/9D1lOlyJXl3Ic0ttMEyii1n8Wq8CjA2fG3RVS7TRqvazkeRbFaz0c5fUb6HKC9ft2MtD4j8ljnZE2kdo9K9ZnqjZMpcOBrdLTpavBF+uu4QBqVXkxmUolHhfq1yJVJRp9x/UvRdH6IGxQHP539p6l0BxYsOoXU9HlI8HQ8jEf8gxgVnIutX5agEUDdyUzs+l8CRg0NQ9uhLafXY9Hfe+Cll0chwMHfVBtuEUOQNG04IluyxVK8E1+diMfIYe3dWGPt6nrHURNS81EUa6ksR5XlF2SkDEZM53B0MQzF4+9+hzI1XSLgsK4tuHSiAFUx8TB4XH3MC4b4SJzJL7C51ETkypR3GHkRnVGWnoR74qPQwzAEycuzUaomjwLkHL+odt01XtdyPIpitZ6P0vuD9DlAi/0akNpnxB5J4ppInSjXZ5oDCK1lrPNFgD/h1InT6rkcTaF+3fwr9l2RjD7j+hsbEVSK7QsW48zsNZjX21NcjL4j8MrqCfjvLAO6dO+Kzv2XoS5tFZ7p49EmyIh976zCheQXMTVC/aVtj6aSLzB/8htoXLgOzyW4CyLFrqSPoyLk5KMgVudlwIPJY/DIvK34uaQERz+birK3foO0TZeg/jUQobbWCJ23D7xbH9PBx8cbZqPR5rpdkStzZTmuFOzE9+FLsSvvNPIzn4JlTTLmbL6sAY/Nzfh6jl9Uu1qsazkeRbFaz8e2iPNI6hyg0X4tuc848ShpTaRWlOsz3vePx/2FGVix8QRqTLUo3LMCa7Ib0VDfoIG6lufRR6IrZ31GxRsbwqVtz2Np8e+xZm48OjiJNuevwuSZBzAxqwgXC0tw6VQG+m+ZihkZRa03QVH5DqzdEooZMwfBycl2F4Zwbv2j6BIaitDQUHSZtAHnqfnxigMrMWnEiyhN24Htf+jXJlHtjOLQlbxxXBdrj+vx81ap+SjOXbeoqXhz3UrMHdkdPm4eCBn8NBYn+2JPZq6DG/JudxzlnD108PXzBRmNqGvz+7U1Rrj7+UFvFS1y1aj3glfwaMye2RcBbjr4xqZg3hQ/5Ow8pImbjHWyj19Uu1qpa1vkeBTFNmk8H5uRkkfS5gBt9ms5fUbs0UPCmki9KNdnTJGpWPtxEsqXj0R09wGY9kkQxo4JQ3BIkIsuwG9gv3bqSlqfUfHWuxr7Nu/ChWM5GGdYBQAwVV3ApaYUxJ9eiB1Z89G7daNHuJiThSNRk5Bxd0e4A3DvMhJJo30xbvdhmFK7QQ+gZu/n2Nd5HF6KVvOZSB0ipn2EHx9u3iHr9IHopCNU5r6GCTO+xoj12Xg1MdTpR9H2Xckfx3Wx9qjDvqeXSMxHce5u/WgMqi8E4q6B3VomBoLJ1AT3Dh4uOlHayzlHsW4Ij49D0AdHcdwE3NMBAGpxPK8IMX3jbBYwjReP4kCJfVeeht7o1XAAZUag9RcJcPdQc31fw0PW8YtqV0t1bYscj6JYee+HGpGaR9LmAG32azl9RuQxFuU56cI1kbpRrs+4wR2RD7+OzIdfbw42n8Tbw5ajz0SDiy7Ab1y/htCVjD5zo+4luulYHH15wFWaKG9Zm5voLOX00+d/oy/ya4mIqD57LkWFjqX3jxmbh6v8gZbeFUB3vZFHzfcxNVLuCwYKnbGdjFYjq+LmLwGWK5k0OyaBnt1bbvtlAVYem7HvSjgOqd9je8T5KIo17ptL0cHD6NVvL5GJmujKwXdoXHhXmrGtTH03ddqra+M39IfYSHr0L/lUY2miy9++RPeGD6dVBU02HoWumk7Sew+E0cD5O+lco4WMJzMoqUcXStl6RX0e7SE6fiuPotrVfF3L8CiM1Xg+yuozojmAiLTcr9vjpM8IPDpbE6neo0J9xly6mR6PG04v/fsKmS21dHzDVOrZK412tXzRgKo8/sp+bRG4ktNnXH9jU7OJkgL1pNfrqYO7jtw66Emv96aec/ZafQuIVYE35dPrg9p8LZ2lnH74YCYNi+1BPWNiqEfPBBr97KeU3zor1tGWJH8yvJBLjVYvQVWJaQfj5qnk4+ZOnvpmz80/PhTzXA41WnskIkeuhOOQ+j22x0k+imItlXT4L7NpaHQI+fsHUqfooTQr/QCVq+lbf5zUdfWPayl1SHcKCQyisNixtHD72eZvWLGpa7ErU+EOWjQ+jsKCgiika3+asjyHStXk0QkOj9/Ko6h2K7muJXsUxjp5Tu0e5fYZh3MAEWm5X7fHeZ9x6NHJmkgLHpXpM3WUt2EWDekWQkEhYRR132xa91N1699QhUel+rXAlZz1o46I1H//0g0mJycHiYmJt/pluDzsURnYozKwR2Vgj8rAHpWBPSoDe1QG9qgMbT265iX5DMMwDMMwDMMwbeCNDcMwDMMwDMMwLo8uOzubL0VjGIZhGIZhGMal4XtsFICvkVQG9qgM7FEZ2KMysEdlYI/KwB6VgT0qA3tUBr7HhmEYhmEYhmEYVcEbG4ZhGIZhGIZhXB7e2DAMwzAMwzAM4/KoemPTsC0Fwd5e8PK69qP38ED3uTkw2USbUfLVK5jYLxKdQoIRHv8QlmQVw2wVRVey8GS0J7qk7UHjzTmM24AmFGctxYQBBhjiYtEr9l6kvJuLK3bvznLsUd77oUZMOLtjCR7p2xlBAYHo2P1uTFv5nQOPAFX8gPem34WeYR0REh6H8Uu+xDkLewQIVYdW47EhUQgLDUXEHSMwd2MBGhxFO/DY8iSOfJiKOwO9MHJ1MSwOxlAncjw6iWWPEj06mUs17dFJrUqOldbLVY3kPBLlrtY9KjU/asSjw5yTs+4RubLgwp5lmDKwK4IDAhHSbRB+u+IbXLY3zk3930lvNdXf0oL+/WnB/hqbp8yFH9K4kFh6YlshNVADFWXOoTvDxtHas23+H3jLZcp8IoFiojtT16v/ky+p5H+OFWC5kEETOval57+pIAsRmQoz6DcRPejpr+tsYiV5vIrV+6F2j+Zf3qMHQvrTs1lFVE9mqjj0BiUGR9GzOfW2wZZS2jK9B/VJ+xcVNhA1lmynZ4c/SG8cbLCN1ZhHqtlDT8f0oKkfFZCRLFR5+E16IOwuev1nk22syKOlnLKe7kcDpr1KTw1p/79xE7FHybHsUbJH4VyqdY9y5jxBrLMepH6P4jxqhyB3Ne9RoflREx4FOSdn3SNyZS75iB7pGEMzPi2gGouFqv6zisaEdqOndjevQ9t61NDGpo4OLh1EcWm7qdJi+2z1xskUOPA1OtrU8oDlIv11XCCNSi9ueYMsVPqvWZSQ+CZtenkwddPQxsZ0cDHFd0qlzKt5aD5D7w7zo1HpJWSt0rnHq9i+H2r3aC7aTxs/P0xlV6U1FdBb9/jRQx+V2Xi0nPuQxnaaQBmldpK1HdrzWL/zSeraexEdaO0vNbRtehj1f/U/ZN1yhB4t1XTs0DGqNl+gtWP8NbeQlONRGMseJXsUzqUa9yh9zhPHOutBavfobF5riyh3yzXuUan5URMeBTknZ90jql3T+e9p46c5VNQ6cCG9n+hHD645RxZq71HVl6K1xXJ6PRb9vQdeenkUAnSOggitn2rpfBHgTzh14jTMAKh0BxYsOoXU9HlI8Lw5r/l2wSP+QYwKzsXWL0vQCKDuZCZ2/S8Bo4aGwa5KgcfWECnvh8pwi7wfSRMHIkQHwFyNU1np2FQ8FBOGB9l4NOUdRl5EZ5SlJ+Ge+Cj0MAxB8vJslFp97Ko9jxZcOlGAqph4GDyuPuYFQ3wkzuQX2FyKJ/So80PcoDj4acKbNXI8Oollj5LzUTiXatqj9DlPUqyEHqRaJOeRhNzVrEcF50dA/R4FOSdn3QPAoSuKGIKkacMR2bJrsRTvxFcn4jFymO06VCMbGyP2vbMKF5JfxNQI+9Xuc/943F+YgRUbT6DGVIvCPSuwJrsRDfUNICrF9gWLcWb2Gszr7Wn/zVAzviPwyuoJ+O8sA7p074rO/ZehLm0VnunjYRMq9Nga5fz9UDPVG6ciQB+EuNQcDHrrz0iNti1DS2U5rhTsxPfhS7Er7zTyM5+CZU0y5my+rHGPhNpaI3TePvBufUwHHx9vmI1Gm+ufpXnUInI8ynOuLWS6kTGXag05tSqK9ZbUgxhnueuuaY/KzY/a9ngNKeseaetHoKnkC8yf/AYaF67DcwnuNuNoYmND5TuwdksoZswcBEcftrhFpmLtx0koXz4S0d0HYNonQRg7JgzBIYG4vO15LC3+PdbMjUeHm/rKbwWEc+sfRZfQUISGhqLLpA0ozluFyTMPYGJWES4WluDSqQz03zIVMzKKbG5KdOwxqDXZpLwfasY/eTOqGmtQtPMZ1LwyEo9vOm8zwen0XvAKHo3ZM/siwE0H39gUzJvih5ydh1rPFmnTow6+fr4goxF1rY8RamuMcPfzg946WoJHbWBd139Dra9Uj/Kcq5tf4xEw50ufS7WGnFoVxZol9CAGcFbX3pryeOPmR/V5tF0jnpewQ5Oy7nG+fiRUHFiJSSNeRGnaDmz/Q782m8k24/zqY3QBavZ+jn2dx2F8tO3O7hruiHz4dWT+XIJL5wuwf/0jcDtdhz4DOuPbzbtw4dhKjDP0RM+eMRj9zs84/2kK4seuRL5qPku8ig4R0z7Cj0eP4ujRo/hxQzLwTRaORE1Cyt0d4Q7As8tIJI32xTe7D9tZHDryaMDVc5LS3g+1QajOy8SGHXnNk5+bNyIGP4a0hztgT9Zhm2/Y8zD0Rq+GMpQZ2w0Bd49rzrTp0Q3h8XEIOnkUx1uTrxbH84oQ0yfOZoMnxaM2sK7raUjoLdWjPOfq5td4JFzMkTOXags5tSqOdd6DGMB5XWvJ442cH9Xm0drV7xDu8IIReesece0SKnNfw4Rp2zFwXTY+mZUAHwd/VQMbGxPyvj8M3DmwzfWPAKgC/9megaxjzTMjXd6C1PhELP2uHBYy4sTHS5BeOgVPjItE0mcXUFpyFmfOnMGZM6ew+/m+6Dz9ExzbOR+9Vbg+cvMORnhEBCIiIhAe7INOvXuj07EvsaOg+XwEVR3BF/suwNDnDnhI9hjYMrqD90P16OBx6SssS30G73x3GU0A6s9m4dNdpYjrF2vj0b3XZEzvtx9/em0XzpsIdb98hj9vrcPIcYNbPjXUqkfA875pmILPsGLDMdSSGWX738bK7N5I+W0s3GV71A7t69obXjI8Cp3f4uO62Vy/Rx06iubSW3tYtxxhrcqoaw+nPUjDyKhrN415vFHzoxo9WrtyvJGQt+4RrR+pPAvPz/gnBqzbjlcTQ8W3hNywb0m4baijLUn+ZHghlxrbPtyUT68Pavu1dHWUt2EWDekWQkEhYRR132xa91O1nfGaKG+Ztr4VjSzl9MMHM2lYbA/qGRNDPXom0OhnP6V8I12HRwfvB2nBYwUdTJ9Nw3t1osCAAAqK6E1j5/+TTtaTHY9EpsIdtGh8HIUFBVFI1/40ZXkOXfsSIA17JKLqH9dS6pDuFBIYRGGxY2nh9rPN31Qjx2PNJkoK1JNer6cO7jpy66Anvd6bes7ZSw3EHq09Ooxlj9I9iuZS9ui4VmXNj+IepHqPojySU9da90gKzY9a8CjKOVnrHseujJunko+bO3nqm/9O848PxTyXQ43U3qOOiLR0/9INIScnB4mJibf6Zbg87FEZ2KMysEdlYI/KwB6VgT0qA3tUBvaoDG09auBSNIZhGIZhGIZh1A5vbBiGYRiGYRiGcXl02dnZfCkawzAMwzAMwzAuDd9jowB8jaQysEdlYI/KwB6VgT0qA3tUBvaoDOxRGdijMvA9NgzDMAzDMAzDqAre2DAMwzAMwzAM4/LwxoZhGIZhGIZhGJdH5RubJhRnLcWEAQYY4mLRK/ZepLybiyv27ipqzMKsUA94ennB6+qP/z14M98sbxxXhipw5MNU3BnohZGri2GxF3IlC09Ge6JL2h40OhvOKrZhWwqCvdv49fKC3sMD3efmwHQDDud2xrlHM0q+egUT+0WiU0gwwuMfwpKsYphlj6NGpLlpRZDXVPED3pt+F3qGdURIeBzGL/kS5+wlviohVB1ajceGRCEsNBQRd4zA3I0FaPgVsdrMRwHCvmIHCXOwFnCeRyac3bEEj/TtjKCAQHTsfjemrfyupSdbcGHPMkwZ2BXBAYEI6TYIv13xDS6rrV9fL5JzTOMe5dSuMFbjHgFBzsnoQTLeD1VvbOjiP/DMY9txx/uHUHD8BI7vSUPdirv+BxIAACAASURBVN9h6b562+DGSlSYhmHVL0bU19c3/1R/j8W93eWN46pQBb6c8wCeyInC/fEeDmLKkPXiQuzThTpPHDux+kmfoLyu/prfy3swr29fJCcPRgcFD+W2R4JHS9EGPDF9E8L+mIuSKxdx+E8xyJz5JNYXWmSNo0YkubmKKK/pMrbOScJfA1/Gt8VluPjjW7hj/0pkHNHIkrx2LxYnv436tF04e7kUBRvH4ui8FLxztOn6YjWaj0IEfcUGKXOwFpAyP55ag9TULES/dRAXq8pxetsknFuWgj9+2wDLuY/x++S/weeFbBRXVuDsFzNQ+acULP1aRf36epGRY5r3KKd2BbGa9yjKOTk9SMb7oer+Yy46jpNugzDi7kDoAHh0TcRwQxlOnLgC680yVVWgEoEICrRVImcc18UDUbM24pu/P4UBdhwAhMuZC/HiyRS8kdLVSeJIia3Hobeew45738ZL9/kq8PpdBWkejd/tRG7PFDz3SDd4whORDy3FswNz8c8vzrec7ZDzfqgL527a4jiv6cI2rNvVDwv+3/+hmyfQocsEvJezG4sHe96sQ7mlNPx7E7brf4cFKQZ4Q4eAgXMxb/RZbP7/8mHdVpzHajcfRYj6ii3O5mAtIDGP9IPw1Ib1eGVcJPRwQ2D/KXg4thS/nK4FucVj+vsb8EayAb46Hfz7TMb/JZTjl1/KVdSvrxcZOaZxj3JqVxircY+inJPTg+S8H6qePT3iH8So4Fxs/bIEjQDqTmZi1/8SMGpoGHRWsZbKclRZfkFGymDEdA5HF8NQPP7udygjeeO4LDo/xA2Kg5+DA6LSHViw6BRS0+chwcm6T0qs5fR6LPp7D7z08igEqEaic+R4hIWuTXw6XwT4E06dOA2z3HHUiMBNOwR5bco7jLyIzihLT8I98VHoYRiC5OXZKNVEt7Hg0okCVMXEw9B6Es0LhvhInMkvsLo01Hms5vPRAaK+YoOTOVgLSM0jt8j7kTRxIEJ0AMzVOJWVjk3FQzFheBDcI4YgadpwRLasbizFO/HViXiMHKaifn29yMgxN417lFO7olite3Scc3J6kLz3Q9UbG/iOwCurJ+C/swzo0r0rOvdfhrq0VXimj+1HsDovAx5MHoNH5m3FzyUlOPrZVJS99RukbboEkjGOKqFSbF+wGGdmr8G83p7iYpQUa8S+d1bhQvKLmBqhidJuRoZHn/vH4/7CDKzYeAI1ploU7lmBNdmNaKhvAMl5P1SI0I2McSyV5bhSsBPfhy/FrrzTyM98CpY1yZiz+bIGzqQRamuN0Hn7wLv1MR18fLxhNhqtrnF2EqvxfBQh7Cu3+sXdblxHHlVvnIoAfRDiUnMw6K0/IzW6/ZKmqeQLzJ/8BhoXrsNzCXYuIWIkoUWPcmpXaqwWPTpGTg+S936oemNjzl+FyTMPYGJWES4WluDSqQz03zIVMzKKbC5ZcYuaijfXrcTckd3h4+aBkMFPY3GyL/Zk5sIoYxzXgHBu/aPoEhqK0NBQdJm0AecddlnCpW3PY2nx77FmbryTe2GkxVL5DqzdEooZMwdBOyd35XgE3CJTsfbjJJQvH4no7gMw7ZMgjB0ThuCQQFyWMY4acewmSNaEptN7wSt4NGbP7IsANx18Y1Mwb4ofcnYe0sCXWejg6+cLMhpR1/oYobbGCHc/P+glx/qiSuP5eA3befViT8d9xf6XNGgVefPjVfyTN6OqsQZFO59BzSsj8fim8y2LHELFgZWYNOJFlKbtwPY/9GuzeNIKcvq84zG04fHX1a5o/djQMr5WPTrOOTk9SIrja6j4IwfCxZwsHImahIy7O8IdgHuXkUga7Ytxuw/DlNqtnbjGi0dxoCQQdw28+jjBZGqCewd3XHYyjuuhQ8S0j/Djw81nuHX6QHRyeHqsGvs278KFYzkYZ1gFADBVXcClphTEn16IHVnzce3eLWmxNXs/x77O4/BStJbOWMjxCADuiHz4dWQ+/HrzP80n8faw5egzsTO+dTKO+nHkxiBrQvMw9EavhgMoMwKtO2wC3D20kJduCI+PQ9AHR3HcBNzTAQBqcTyvCDF946xOOIhiu+Hfms/Hq9jOq4GXjmK/3b7ioe6zirKRMz8SqvO+wObTUfjdIwnwdvNGxODHkPbwG3g06zAakx5Gfe5rmDDja4xYn41XE0M1+iminD5vD0KlZjz+utp1vH70gJvGPTrOOTk9yJljK0jF1GfPpajQsfT+MSMREVkqf6CldwXQXW/kUZOlnH76/G/0RX4tEREZ982l6OBh9Oq3l8hETXTl4Ds0LrwrzdhWRnWicYgoOzv7Vh2i8lgu0Nox/jTigyIy2w1oorxlg6nbU7upgYjIyqMwloiIGin3BQOFzthORqtoVXl0itijpXQzPR43nF769xUyW2rp+Iap1LNXGu2qcjIOqd+j0I2jfLSX100n6b0Hwmjg/J10rtFCxpMZlNSjC6VsvUIWUr9HMn5Df4iNpEf/kk81lia6/O1LdG/4cFpV0GTrURTbDu3lowhRX7HIyVXSmkfx/Gjc+wxFhSTSa/8uJRMR1Z35nJ7q7U/3v1NApiuZNDsmgZ7dW04WOyNry6MD7OWYdQ/SuEc5tSuKNWvcYyv2ck5GDxK+H9Teo6o3NmQppx8+mEnDYntQz5gY6tEzgUY/+ynlG4moKZ9eH+R7TbKlkg7/ZTYNjQ4hf/9A6hQ9lGalH6Byi5NxSCWJWbOJkgL1pNfrqYO7jtw66Emv96aec/a22ZQQ2TQca4+iWCIiqqMtSf5keCGXGq2iVeFRMs481lHehlk0pFsIBYWEUdR9s2ndT9XOxyEteBS4sfboJK9NhTto0fg4CgsKopCu/WnK8hwqbek+6vdIVP3jWkod0p1CAoMoLHYsLdx+lkxEduvaYWw7tJiPAkR9RWauasujk/nRUkEH02fT8F6dKDAggIIietPY+f+kk/VExs1TycfNnTz1zS6bf3wo5rkcaiStebRClGNWjjXvUU7tCmI179HJvCa5B4neD2rvUUdEfA/jryQnJweJiYm3+mW4POxRGdijMrBHZWCPysAelYE9KgN7VAb2qAxtPfJlvgzDMAzDMAzDuDy8sWEYhmEYhmEYxuXRZWdn86VoDMMwDMMwDMO4NHyPjQLwNZLKwB6VgT0qA3tUBvaoDOxRGdijMrBHZWCPysD32DAMwzAMwzAMoyp4Y8MwDMMwDMMwjMvDGxuGYRiGYRiGYVwedWxsqAJHPkzFnYFeGLm6GJbWJ0w4u2MJHunbGUEBgejY/W5MW/kdrti9q4hQdWg1HhsShbDQUETcMQJzNxagofVP/ID3pt+FnmEdERIeh/FLvsQ5i71xXBiHHi24sGcZpgzsiuCAQIR0G4TfrvgGl+16dOy8YVsKgr294OV17Ufv4YHuc3NgumkHeSuR41GQj41ZmBXqAc82Hr3878Gb+eabezi3jCYUZy3FhAEGGOJi0Sv2XqS8m+ugriHIazNKvnoFE/tFolNIMMLjH8KSrGJoxSIAgRubQMH8KCevXRiRK8kepfUkupKFJ6M90SVtDxpvyMHcpkj2KJ4DNNGvHSJn3SOK1UhdXwdy1zKayEeHtSteW1sNIoiV3vddf2NDFfhyzgN4IicK98d7tHvKcmoNUlOzEP3WQVysKsfpbZNwblkK/vitHaW1e7E4+W3Up+3C2culKNg4FkfnpeCdo00AXcbWOUn4a+DL+La4DBd/fAt37F+JjCMqajkij+c+xu+T/wafF7JRXFmBs1/MQOWfUrD063qbYUTO9ZM+QXldPerrW34u78G8vn2RnDwYHW7Wcd5C5HgU5mNjJSpMw7DqF+M1l9XfY3Fv95t/ULcAuvgPPPPYdtzx/iEUHD+B43vSULfid1i6z45HUV4XbcAT0zch7I+5KLlyEYf/FIPMmU9ifaHaOo4DBG5sEOSjrLx2VUSuZHiU1JOoDFkvLsQ+XagKGrQMZHgUzgFa6NcC5Kx7RLGaqOvrRNZaRgv5KKpd0VrGGkGsvL7v6liq6dihY1RtvkBrx/jTiA+KyNzylLloP238/DCVWVoeaCqgt+7xo4c+KiOL1TD1O5+krr0X0QHT1UdqaNv0MOr/6n+o8dyHNLbTBMootf6tZrKzs5U/rpuNyOP572njpzlU1PpAIb2f6EcPrjln41G68zo6uHQQxaXtpsqWJ1ThUYAcj8J8LEmnkQET6ZMq+39H7R5NBxdTfKdUyqxvecB8ht4d5kej0ktsPIryunrjZAoc+Bodbboae5H+Oi6QRqUXk5nU71HkxhpRPjY4yWtVeBS5kuHR+fxoodJ/zaKExDdp08uDqdtTu6mhJVQVHkXI8CiaA8xa6NcC5Kx7RLFNWqhrRbBdy7TFooV8FNSuqHeYrIYRxdY56fttPbr+CSGdH+IGxcFPZ/uUW+T9SJo4ECE6AOZqnMpKx6bioZgwPAjtwy24dKIAVTHxMLRuNr1giI/EmfwCGPMOIy+iM8rSk3BPfBR6GIYgeXk2StX0kazIY8QQJE0bjsiWbLEU78RXJ+IxclgYrMOlOrecXo9Ff++Bl14ehQA7f1ONSPcozseGynJUWX5BRspgxHQORxfDUDz+7ncoU1M+CvCIfxCjgnOx9csSNAKoO5mJXf9LwKihtvkoymsAgIXQqk3niwB/wqkTp7VxOZozN62I89EsY35wWUSuJHt0Pj9S6Q4sWHQKqenzkOCp8DHc7sjwKJoDmrTQrwVIX/eIY921UNcK4GwtY9JCPjqsXXHvMMmIJRl93/U3NhKo3jgVAfogxKXmYNBbf0ZqtPVhE2prjdB5+8C79TEdfHy8YTYaUV9ZjisFO/F9+FLsyjuN/MynYFmTjDmbL0NNuSmFppIvMH/yG2hcuA7PJTi+9Ens3Ih976zCheQXMTVCm1Ok2KM4Hxu9DHgweQwembcVP5eU4OhnU1H21m+QtumSNvLRdwReWT0B/51lQJfuXdG5/zLUpa3CM32cXE5lhc/943F/YQZWbDyBGlMtCveswJrsRjTUN2jDo2TE+dj2Ahep84PWsTs/Uim2L1iMM7PXYF5vT148ihDMARbu1wCkrHukx3JdO8L5Wkbb+Si9dziNldH3NbGx8U/ejKrGGhTtfAY1r4zE45vOWyWUDr5+viCjEXWtjxFqa4xw9/ODXu8Fr+DRmD2zLwLcdPCNTcG8KX7I2XnIRW96J5xb/yi6hIYiNDQUXSZtwHmnFUaoOLASk0a8iNK0Hdj+h35tks8WkXMq34G1W0IxY+YgaO2kpDSP4nz0jpqKN9etxNyR3eHj5oGQwU9jcbIv9mTmOrghT12Y81dh8swDmJhVhIuFJbh0KgP9t0zFjIwiwc3GtrhFpmLtx0koXz4S0d0HYNonQRg7JgzBIUHamBgl42R+bPm3nPnh9uZ65kd52M6P53Bx2/NYWvx7rJkbr4l7Dn8NojmAVNevrw/n6x4psWqq6+vF8XwgZS2jU10+ypkfpfQOabEeMvq+ivs3oTovExt25DVLcvNGxODHkPZwB+zJOmz1TTNuCI+PQ9DJozjemmm1OJ5XhJg+cfAx9EavhjKUGdsND3cPVz1zoUPEtI/w49GjOHr0KH7c8DuEC08PEipzX8OEadsxcF02PpmVAB8HcVKc1+z9HPs6j8P4aFf1d71I9SjOR1w8iv1HitpsYggmUxPcO3iouaBbIFzMycKRqElIubsj3AF4dhmJpNG++Gb3YZmNwh2RD7+OzJ9LcOl8AfavfwRup+vQZ4AB8j77UTvifPSUnNeugtz5USqi+XE/dm/ehQvHVmKcoSd69ozB6Hd+xvlPUxA/diU084WHkhDPAaS6fi0HOeseZ7Fqq+vrxfF8IGUt46G6fJQzPzrrHVJjY1Euo++reB2kg8elr7As9Rm8891lNAGoP5uFT3eVIq5fLDyoAv/ZnoGsY83Z5nnfNEzBZ1ix4RhqyYyy/W9jZXZvpPw2Fp69JmN6v/3402u7cN5EqPvlM/x5ax1GjnPdb/Ny8w5GeEQEIiIiEB7sLUwEKs/C8zP+iQHrtuPVxND2l0i08+jEOQDAhLzvDwN3DmxzHaU2kO5RnI849iEef3A6lu8vRRPMKD/0AVZsNmP8xHtdNh+lo0PH3r3R6diX2FHQfF6Hqo7gi30XYOhzh01di6DLW5Aan4il35XDQkac+HgJ0kun4IlxgTf6IG5/ZOSjmyivXRQ586MQyfPjAPzuswsoLTmLM2fO4MyZU9j9fF90nv4Jju2cD4184aFjrDyK5gC9Cvu1dOSse8Sx7iqs6+vF/nzgYC1jNXe6qzAf5cyPot7hLrnPxCFM1Pet/+gN+o6Em0fNJkoK1JNer6cO7jpy66Anvd6bes7ZSw2WCjqYPpuG9+pEgQEBFBTRm8bO/yedrCeipnx6fZBv+29J+nEtpQ7pTiGBQRQWO5YWbj/b+q0NpsIdtGh8HIUFBVFI1/40ZXkOlarp27wEHis2TyUfN3fy1Dc/3/zjQzHP5VCjtUeRcyIiqqMtSf5keCGXGq1egio8CjDK8UiCfLRU0uG/zKah0SHk7x9InaKH0qz0A1SupnwUYSmnHz6YScNie1DPmBjq0TOBRj/7KeUbybauRfMD1VHehlk0pFsIBYWEUdR9s2ndT9Wtf0b1HkVuZOSjMK9JJR5FruR4dDo/XqWJ8pZp7FvRZHkUzAGkgX4tQs66RxCribr+VThYy9iZO1Wfj8I+K1jLyFr3iGu+rUcdEan//qUbTE5ODhITE2/1y3B52KMysEdlYI/KwB6VgT0qA3tUBvaoDOxRGdp6VPGlaAzDMAzDMAzDaAXe2DAMwzAMwzAM4/LosrOz+VI0hmEYhmEYhmFcGr7HRgH4GkllYI/KwB6VgT0qA3tUBvaoDOxRGdijMrBHZeB7bBiGYRiGYRiGURW8sWEYhmEYhmEYxuXhjQ3DMAzDMAzDMC6POjY2VIEjH6bizkAvjFxdDEvrE2aUfPUKJvaLRKeQYITHP4QlWcUwOxvuShaejPZEl7Q9aPwV47gcDj0Sqg6txmNDohAWGoqIO0Zg7sYCNMgcp2FbCoK9veDlde1H7+GB7nNzYLrRx3ZbYMGFPcswZWBXBAcEIqTbIPx2xTe4bPcutyYUZy3FhAEGGOJi0Sv2XqS8m4srxB7leRTFOnasDeR4BKjiB7w3/S70DOuIkPA4jF/yJc5ZAM3Mjw643nq07jOar+vGLMwK9YBnm+P38r8Hb+bbyyTHuat5j7LqWlrt2q6JtIXT43eSu47nTg0gq66vYetcRl7ftP+Z9EZhKaesp/vRgGmv0lND2v8PpubCD2lcSCw9sa2QGqiBijLn0J1h42jtWbNgvMuU+UQCxUR3pq4t/+uzs3FU8T/HCjxSzR56OqYHTf2ogIxkocrDb9IDYXfR6z+b5I1jTfW3tKB/f1qwv4aIVOJRgLnkI3qkYwzN+LSAaiwWqvrPKhoT2o2e2l1nE2u5kEETOval57+pIAsRmQoz6DcRPejpr21j2aNjj6JYZ47ZYxsspbRleg/qk/YvKmwgaizZTs8Of5DeONigjflRDlb1aBc7fcbZOKr3WP0PmhTwAH1QJOjPLcjKXY15lDU/SlkjOchVtXtsRVKtCnJXMHcSacCjjLpuxd463Elet/Wogk9sPBA1ayO++ftTGBDY/nCM3+1Ebs8UPPdIN3jCE5EPLcWzA3Pxzy/Ow/5mmXA5cyFePJmCN1K6tn6cJX8cV8Sxx4Z/b8J2/e+wIMUAb+gQMHAu5o0+i83/Xz6aZIzTnnoceus57Lj3bbx0n6/Cx3Kb4haP6e9vwBvJBvjqdPDvMxn/l1COX34ph/VJB3PRcZx0G4QRdwdCB8CjayKGG8pw4sQVq1j2KPIoim2S7FilyPBIF7Zh3a5+WPD//g/dPIEOXSbgvZzdWDzYUyPzo1Sk1KP9PiN/HHVBVRWoRCCChH2jBcm5qz2Pcuraee1KyVU1I+34Rbkrmju1gKy6bv4N+85l5LXr56nOD3GD4uCnc/C8ha4dtM4XAf6EUydO271Mgkp3YMGiU0hNn4cE65yTMY5L4tCjBZdOFKAqJh4Gj6uPecEQH4kz+QW2H+07ez+ujnp6PRb9vQdeenkUApzEqgW3iCFImjYckS1VZyneia9OxGPksDBYK/CIfxCjgnOx9csSNAKoO5mJXf9LwKih7WPZo9ijKLaDRMdqRY5HU95h5EV0Rll6Eu6Jj0IPwxAkL89G6dVJUe3zo0Sk1KOwz8gYR21YKstRZfkFGSmDEdM5HF0MQ/H4u9+hzM5ZBqm5q0WPcuq6OcBx7UrJVTUj9fhFuet07lQ5cuoacOxcVt+/IUdym+Bz/3jcX5iBFRtPoMZUi8I9K7AmuxEN9Q22Z2SpFNsXLMaZ2Wswr7dnO1GyxlEdhNpaI3TePvBufUwHHx9vmI1Gx/fZCDFi3zurcCH5RUyN0Ei3saKp5AvMn/wGGheuw3MJ7rYBviPwyuoJ+O8sA7p074rO/ZehLm0Vnunj0SaIPTr1KIqV5FgbOPNoqSzHlYKd+D58KXblnUZ+5lOwrEnGnM2X4a3p+bEtEupR0GdkjaNCdF4GPJg8Bo/M24qfS0pw9LOpKHvrN0jbdEmYR45zV5se2+KsroVrG0m5qmJkHL8od82CuVML86Osupbo3Fleq3pj4xaZirUfJ6F8+UhEdx+AaZ8EYeyYMASHBFkdOOHStuextPj3WDM3Hh2uexxXgXBu/aPoEhqK0NBQdJm0AecdVpgOvn6+IKMRdW1+v7bGCHc/P+iv56+X78DaLaGYMXMQ1HsSyJFjQsWBlZg04kWUpu3A9j/0a7NhvIY5fxUmzzyAiVlFuFhYgkunMtB/y1TMyChqvbxHGx4dIc2jKFaKY/UjzaNO7wWv4NGYPbMvAtx08I1NwbwpfsjZeQhm1c2PIhzPnc7rUdxnWqM0Ude2Hi/2nIo3163E3JHd4ePmgZDBT2Nxsi/2ZOY6OIEmzl2tepTTZxyvbQJxWUKuqgdrj+vx81bpx+8W5Th3GwVzp/q+zOLX1LWU+VFaXqv81KQ7Ih9+HZkPv978T/NJvD1sOfpMNFgdeDX2bd6FC8dyMM6wCgBgqrqAS00piD+9EDuy5qO3pHFcBR0ipn2EHx9uPqOq0weik8PTEW4Ij49D0AdHcdwE3NMBAGpxPK8IMX3jrqth1Oz9HPs6j8NL0eIz7K6NPceEytzXMGHG1xixPhuvJoY6OCNBuJiThSNRk5Bxd0e4A3DvMhJJo30xbvdhmFK7QQ+teLSHVI+iWOeO1Y90jx6G3ujVcABlRqC16Alw93CH9HlWDTieO53Xo4Q+466Vurb1GHjpKPaXBOKugd1aTpgRTKYmuHfwsLNBdp67WvUovc8Ajmu3M751kqvqwtqjDvueXuK0Vq/SePEoDjjIXU/h3Kk2fk1dO5sf/4CuByTmtcLff3DrsFygtWP8230Ll6V0Mz0eN5xe+vcVMltq6fiGqdSzVxrtqiIiSzn99Pnf6Iv8WjuDNVHessHUreXbGITjkMq+1cKORzJ+Q3+IjaRH/5JPNZYmuvztS3Rv+HBaVdDk2KO9cYiIqJFyXzBQ6IztZLT606ryaAfLlUyaHZNAz+4tJ4vNk+091mfPpajQsfT+sWZLlsofaOldAXTXG3nURETsUZpHUawzx+yxTV03naT3HgijgfN30rlGCxlPZlBSjy6UsvUKmbU0PzrEQT3K6DPCcUj9Ho375lJ08DB69dtLZKImunLwHRoX3pVmbCsji4y6bka7HmXNj05q9xq2uap2j+2xOn4rj8LcFcydFlK/Rzl13R6rdbiTmm/r0fU3NjWbKClQT3q9njq468itg570em/qOWcvNVAd5W2YRUO6hVBQSBhF3Teb1v1U3fx7Tfn0+iBHX0dsXcSCcUgliSn0SFT941pKHdKdQgKDKCx2LC3cfpZMRLYenYxDVEdbkvzJ8EIuNVq9BFV4FGDcPJV83NzJU9/sp/nHh2Key6FGa4+Wcvrhg5k0LLYH9YyJoR49E2j0s59SfmuXZo9SPApjnThmj+3nR1PhDlo0Po7CgoIopGt/mrI8h0otRJqYH53ioB5l9RnBOKQBj5ZKOvyX2TQ0OoT8/QOpU/RQmpV+gMotZONRmLtEpGWP8upaXLvX4I1Nu+O36deC3CXR3KkBjzLquj3tnTur+bYedUSkhfuXbig5OTlITEy81S/D5WGPysAelYE9KgN7VAb2qAzsURnYozKwR2Vo61F993YyDMMwDMMwDKM5eGPDMAzDMAzDMIzLo8vOzuZL0RiGYRiGYRiGcWn4HhsF4GsklYE9KgN7VAb2qAzsURnYozKwR2Vgj8rAHpWB77FhGIZhGIZhGEZV8MaGYRiGYRiGYRiXhzc2DMMwDMMwDMO4POrY2FAFjnyYijsDvTBydTEsrU+YUfLVK5jYLxKdQoIRHv8QlmQVw+xwmB/w3vS70DOsI0LC4zB+yZc4Z3H+nNpp2JaCYG8veHld+9F7eKD73ByY5MQ2ZmFWqAc82zzn5X8P3sx39I6oEIe5aoXQlby8ViVSPQpjm1CctRQTBhhgiItFr9h7kfJuLq5o6a5DyR6duJLzfqgOE87uWIJH+nZGUEAgOna/G9NWfucgjwhVh1bjsSFRCAsNRcQdIzB3YwEaAGimrkW5okg+asSjQyy4sGcZpgzsiuCAQIR0G4TfrvgGl+3lo8SeTFey8GS0J7qk7UHjzTmI2xxRHVuj9XyUt35WYh3u+hsbqsCXcx7AEzlRuD/eo91TlqINeGL6JoT9MRclVy7i8J9ikDnzSawvtGOCLmPrnCT8NfBlfFtchos/voU79q9ExpFG8XMaQD/pE5TX1aO+vuXn8h7M69sXycmD0UFObGMlKkzDsOoX47Xnq7/H4t7ut+S4bjqCXLVB4EpWXqsROR4FsXTxH3jmse24hMai5gAAIABJREFU4/1DKDh+Asf3pKFuxe+wdF/9DXzxtxEyPApdyXk/VIjl1BqkpmYh+q2DuFhVjtPbJuHcshT88Vs7y5zavVic/Dbq03bh7OVSFGwci6PzUvDO0SZt1LUoVxTKR014FGA59zF+n/w3+LyQjeLKCpz9YgYq/5SCpV/bmdek9GQqQ9aLC7FPF6qCBaNCCOrYGq3no6z1s1LrcHJ1LNV07NAxqjZfoLVj/GnEB0VkbnmqeuNkChz4Gh1tuhp7kf46LpBGpRe3xrQOc+5DGttpAmWUWmz/hOA5IqLs7GzFDuf2p44OLh1EcWm7qdK+DoexlpJ0GhkwkT6psh+teo+CXLUJFbhyltfsUVqs6eBiiu+USpn1LQ+Yz9C7w/xoVHoJWYg9tkXoysk4avdoLtpPGz8/TGVX58OmAnrrHj966KMysp4i63c+SV17L6IDpquP1NC26WHU/9X/ULkW6lqUKwrlY5UWPAown/+eNn6aQ0VX5ZkL6f1EP3pwzTmbfHTWk4ksVPqvWZSQ+CZtenkwdXtqNzW0PKN2jyJEdWyyitV6v3a2fpYaK2cd7vobcJ0f4gbFwU/n4HkLofUTWJ0vAvwJp06ctvkY0JR3GHkRnVGWnoR74qPQwzAEycuzUUri57SG5fR6LPp7D7z08igEOHLuINZSWY4qyy/ISBmMmM7h6GIYisff/Q5lWvHoLFfb4NSVxLxWJTI8imI94h/EqOBcbP2yBI0A6k5mYtf/EjBqaBikDO3yyPAodCXn/VAhbpH3I2niQIToAJircSorHZuKh2LC8CCrPLLg0okCVMXEw9D6gYQXDPGROJNf0HxZr9rrWpQrSuUjoH6PAtwihiBp2nBEtqzuLMU78dWJeIwcZjuvOeszVLoDCxadQmr6PCR43tTDuI2RUMc2v6LdfJSzflZqHe76GxsBPvePx/2FGVix8QRqTLUo3LMCa7Ib0VDfAGsXlspyXCnYie/Dl2JX3mnkZz4Fy5pkzNl8GWbBc1pZkzdjxL53VuFC8ouYGuGs+9jG6rwMeDB5DB6ZtxU/l5Tg6GdTUfbWb5C26ZLGPDpH5MpbRl4zAnxH4JXVE/DfWQZ06d4VnfsvQ13aKjzTR3uXUzmFXTmleuNUBOiDEJeag0Fv/Rmp0dbtlVBba4TO2wferY/p4OPjDbPRCHeua+kI8lFO31c7TSVfYP7kN9C4cB2eS7C95FvYk6kU2xcsxpnZazCvt6c2TvZIQlzH1hegaj0fRWvrG7UOV/XGxi0yFWs/TkL58pGI7j4A0z4JwtgxYQgOCbI5cJ3eC17BozF7Zl8EuOngG5uCeVP8kLPzEJoEz9ndnbs0hHPrH0WX0FCEhoaiy6QNOH/17E35DqzdEooZMwfB2ckbe7FuUVPx5rqVmDuyO3zcPBAy+GksTvbFnsxcBzfdaReRK5OMvGYcY85fhckzD2BiVhEuFpbg0qkM9N8yFTMyijR287tz2NVVHM+P/smbUdVYg6Kdz6DmlZF4fNN5q4arg6+fL8hoRF2b8WprjHD384O36urasatfiygfoTqPIhw5JlQcWIlJI15EadoObP9DvzaL8Gs47jPfoXjb81ha/HusmRtvcy+ttrB2/DfU+jquY73Vb8tZh7o+tvl40VP6+lmpdbjKT7e5I/Lh15H58OvN/zSfxNvDlqPPRIPNgXsYeqNXwwGUGYHWlTgB7h7uwufUhw4R0z7Cjw83n03Q6QPRqeVUTc3ez7Gv8zi8FO38uO3FNl48igMlgbhrYLeW4ieYTE1w7+ChwgL/dYhdSc9rxhGEizlZOBI1CRl3d4Q7APcuI5E02hfjdh+GKbXbrX6BtxHOXVk3c/ViPT8GwCs/ExtOR+F3jyTA280bEYMfQ9rDb+DRrMNoTPq/Nm7cEB4fh6APjuK4CbinAwDU4nheEWL6xsFTdXXtuJf8Opzno7o8irDnmFCZ+xomzPgaI9Zn49XEUIeftjjuMyZ8s3kXLhzLwTjDKgCAqeoCLjWlIP70QuzImn9zDu+2wNZx4JFDCFrtqI6tUVtdi7B1FXKpVPL6Wal1uKrXk3R5C1LjE7H0u3JYyIgTHy9BeukUPDEuEKAK/Gd7BrKOGQEA7r0mY3q//fjTa7tw3kSo++Uz/HlrHUaOGwwvwXNqPJPh5h2M8IgIREREIDzYuyVJTMj7/jBw58A215XCxiMEseZjH+LxB6dj+f5SNMGM8kMfYMVmM8ZPvFeVHmVh5VHkykOU11rHbj7aQ4eOvXuj07EvsaOg+bwbVR3BF/suwNDnDhU2HJm088iu2tJ+fvSB56WvsCz1Gbzz3WU0Aag/m4VPd5Uirl8sPKzy0fO+aZiCz7BiwzHUkhll+9/GyuzeSPltLNxUWNf2e8l1ICMf3VXoUYS1Y115Fp6f8U8MWLfddlMjuc+MwrTPLqC05CzOnDmDM2dOYffzfdF5+ic4tnM+tPJFplexduwlqGN3K8fCdagKsXbVQbR+vlHr8Ov/roPbhJpNlBSoJ71eTx3cdeTWQU96vTf1nLOXGqiO8jbMoiHdQigoJIyi7ptN636qbv69pnx6fZBv+29JKtxBi8bHUVhQEIV07U9TlufQ1S9gED2n9m+1aKaOtiT5k+GFXGps+7Adjw5jLZV0+C+zaWh0CPn7B1Kn6KE0K/0AlWvFoyhXrT0KXQnymthjO4+iWEs5/fDBTBoW24N6xsRQj54JNPrZTynf2Pxn2GPbfBS4Es7BGvBoqaCD6bNpeK9OFBgQQEERvWns/H/SyXqyOz9W/7iWUod0p5DAIAqLHUsLt59t+SYlDdS1KFeUykcteBRg3DyVfNzcyVPf7LL5x4dinsuhRll9pi1NlLeMvxWtLQ7r2KbmtZ2PRIL18w1ah+uISAv3L91QcnJykJiYeKtfhsvDHpWBPSoDe1QG9qgM7FEZ2KMysEdlYI/K0Najqi9FYxiGYRiGYRhGG/DGhmEYhmEYhmEYl0eXnZ3Nl6IxDMMwDMMwDOPS8D02CsDXSCoDe1QG9qgM7FEZ2KMysEdlYI/KwB6VgT0qA99jwzAMwzAMwzCMquCNDcMwDMMwDMMwLg9vbBiGYRiGYRiGcXnUv7GhChz5MBV3Bnph5OpiWFoebtiWgmBvL3h5XfvRe3ig+9wcmGwGaUJx1lJMGGCAIS4WvWLvRcq7ubiiwbuT6EoWnoz2RJe0PWi0G2HBhT3LMGVgVwQHBCKk2yD8dsU3uExynasTqvgB702/Cz3DOiIkPA7jl3yJcxZ7kY49yhtHjYjdtKMxC7NCPeDZJue8/O/Bm/nm5ucdzA/MNZzXvNbz0YySr17BxH6R6BQSjPD4h7Akqxhme6HCfJSR16pEhkdAULta9wjp85ogH7lfE6oOrcZjQ6IQFhqKiDtGYO7GAjTYjZWWu1LmUrUhJ4+cxUrtM+re2FAFvpzzAJ7IicL98R7tntJP+gTldfWor2/5ubwH8/r2RXLyYHSwHubiP/DMY9txx/uHUHD8BI7vSUPdit9h6b76m3cstwNUhqwXF2KfLtRh4ljOfYzfJ/8NPi9ko7iyAme/mIHKP6Vg6df1spyrErqMrXOS8NfAl/FtcRku/vgW7ti/EhlHbKc4kUc546gRoRtrGitRYRqGVb8Yr+Vd9fdY3NtdOD8wLUioec3nY9EGPDF9E8L+mIuSKxdx+E8xyJz5JNYX2um4gnyUldcqRJZHQe1q3aOseU2Qj5rv17V7sTj5bdSn7cLZy6Uo2DgWR+el4J2jTTahknJXylyqQuTkkTBWTp8hNWOppmOHjlG1+QKtHeNPIz4oIrPdwDo6uHQQxaXtpkqL7bOmg4spvlMqZda3PGA+Q+8O86NR6SVkIaLs7Owbdgi3DxYq/dcsSkh8kza9PJi6PbWbGuxEmc9/Txs/zaGiq6LNhfR+oh89uOYctVdr61ztHi3nPqSxnSZQRqmdJLNC5NHsZBy1e5SeY0SWknQaGTCRPqmyM5CT+UHtHp0jread5bXaPVZvnEyBA1+jo00tD1gu0l/HBdKo9GKbfiPKR2d5zR7bIKhdrXuUvu5xMj+2Q3v9un7nk9S19yI6YLr6SA1tmx5G/V/9D5msYp3nruO5VO0e2yNea4ti5fQZdW8cdX6IGxQHP504zHJ6PRb9vQdeenkUAuzEesQ/iFHBudj6ZQkaAdSdzMSu/yVg1NAwOBlaNVDpDixYdAqp6fOQ4Ok4zi1iCJKmDUdkS2ZZinfiqxPxGDmsvStnztWIKe8w8iI6oyw9CffER6GHYQiSl2ej1M4lEiKPTTLGUSNScwwALJXlqLL8goyUwYjpHI4uhqF4/N3vUEaQPD9oFak1LyevVYuF0Hq4Ol8E+BNOnThtcymKKB/l5LVqkehRVLua9yhjXhPOj23jNNevLbh0ogBVMfEwtH7o5QVDfCTO5BfYvxRPkLtS51K1IyePrGNlrZ9uzMt3JYzY984qXEh+EVMjHJj2HYFXVk/Af2cZ0KV7V3Tuvwx1aavwTB+NXL5Cpdi+YDHOzF6Deb09JTeHppIvMH/yG2hcuA7PJbi3eUaCcxViqSzHlYKd+D58KXblnUZ+5lOwrEnGnM2XIVoDWnu83nHUiOMca0bnZcCDyWPwyLyt+LmkBEc/m4qyt36DtE2XNOdKFjJqXuv56HP/eNxfmIEVG0+gxlSLwj0rsCa7EQ31DTbHLzUfneW1GpHjUSpa9CgHafmoxX5NqK01QuftA+/Wx3Tw8fGG2Wi0uc9GmLvXuX5SH3LyyDZWTp/R/MaGyndg7ZZQzJg5CI420ub8VZg88wAmZhXhYmEJLp3KQP8tUzEjo0iFNxsTzq1/FF1CQxEaGoouk9bj563PY2nx77FmbrzEa2sJFQdWYtKIF1GatgPb/9CvzeQgzbka0em94BU8GrNn9kWAmw6+sSmYN8UPOTsPObgZ075H+eOoEXGOXcUtaireXLcSc0d2h4+bB0IGP43Fyb7Yk5nr4CZQLfLral5b+WjtagMudk3F2o+TUL58JKK7D8C0T4IwdkwYgkOCbBqs83yUlteuz6/zKGV8bXj8dUiZH7XRr63z8W+o9fUFGY2oaxNTW2OEu58f9Fa/7RbpKHcDcXmb3PWTK2Nb1+evfuGRjDyyFyunz2jkIwfH1Oz9HPs6j8NL0Y7O5hAu5mThSNQkZNzdEe4A3LuMRNJoX4zbfRim1G438+XeBHSImPYRfny4+SyZTq/DvqeX4MKxHIwzrAIAmKou4FJTCuJPL8SOrPno3U4doTL3NUyY8TVGrM/Gq4mhNmconDtXJx6G3ujVcABlRqC1Wglw97DnwbFHeeOoEec5dpXGi0dxoCQQdw3s1tKMCCZTE9w7ePBZnVZ+Xc1rKx+tXQWik84dbg+/jsyHX28OMZ/E28OWo89Eg02DFeej9Lx2fX6dRzFa8vjrkDI/aqNf2+Zj4JFDCFp9FMdNwD0dAKAWx/OKENM3zs7C3B2RdnO3M77dvEs4l6oLe3Xd/IycPLIXK6vPKHdT0G2MxdFNdI2U+4KBQmdsJ2O7+HL66fO/0Rf5tUREVJ89l6JCx9L7x5qjLJU/0NK7AuiuN/KoibR281cT5S1rc/OblSvLlUyaHZNAz+4tt7mRuxkHzkkDHptO0nsPhNHA+TvpXKOFjCczKKlHF0rZeoUscjyKxiH1exS6sfJo3DeXooOH0avfXiITNdGVg+/QuPCuNGNb2bXfdTA/qN2jdMQ1r/l8LN1Mj8cNp5f+fYXMllo6vmEq9eyVRruqSFY+mp3MneyxTc61/pJt7TrrQWr32Iq9eU32/Kjhfm38hv4QG0mP/iWfaixNdPnbl+je8OG0qqDJdt0jyt12WM2lpAGPRCR1rS2MldFn1L2xqdlESYF60uv11MFdR24d9KTXe1PPOXtbkqqOtiT5k+GFXGps+3tN+fT6IN9rE4KlnH74YCYNi+1BPWNiqEfPBBr97KeU32JdG4l5FavCtHJl3DyVfNzcyVPf7L35x4dinstpcezAOWnDo6lwBy0aH0dhQUEU0rU/TVmeQ6UWku3R4Tikfo9CNza1W0mH/zKbhkaHkL9/IHWKHkqz0g9QuYWczg9q9ygdcc0TaTsfieoob8MsGtIthIJCwijqvtm07qfq5qdk5KOzmmePbTwKardC6x5F85qc+ZGItN6vq39cS6lDulNIYBCFxY6lhdvPNn8jms0cKMjddmh1YyNxrS2KJel9RkdEWri/84aSk5ODxMTEW/0yXB72qAzsURnYozKwR2Vgj8rAHpWBPSoDe1SGth75MnOGYRiGYRiGYVwe3tgwDMMwDMMwDOPy6LKzs/lSNIZhGIZhGIZhXBq+x0YB+BpJZWCPysAelYE9KgN7VAb2qAzsURnYozKwR2Xge2wYhmEYhmEYhlEVvLFhGIZhGIZhGMbl4Y0NwzAMwzAMwzAujzo2NlSBIx+m4s5AL4xcXQyL1OfaYcLZHUvwSN/OCAoIRMfud2Payu9whZw9pwUIVYdW47EhUQgLDUXEHSMwd2MBGuyFNmbh/2/nzKOiOs8//p1hYFiEAURA3Fgc2bQu0JjFpWqsWhONVcOoY4Ka5kjVYpO4ncTYNsa4RM2qTa00ZqkarZaDjhFNAGMlMS6/NoCCS0FAQUAWZVgG5vn9gQszw7xzb5xquPf9nDP/zH25Z+5nnu3euZe5ASq4ubvD/c7L+1G8ldcKwIyyo6sxbUgP+Plo4N8rDs+uO4ZK2Xi8B90w4DfhbghJOormDle0oMSwEpMGa6GNikTfyMegfye7LeaYjuWAiHhk5a7sPYqsa4xaSjXf4d1ZP0doYFf4B0VhwquHcNV+sZUYjFy1QVjsOq4P0sbx8bN6iZjvQ36IylXB85O0cRiPjnqJjD027dfDz6OdF3d3qFUq9F6UBZPYtQI9dv4TG6rBoYW/wAtZYXgiWiV8mxXmS1uRmGhA+PrvUV5Xjcv7p+Dqaj3++E0Tc5ssqP8aK3Qb0JiUjqLKChTsGoecZD025rTYrm2uRY1pODZfNKKxsbHtdfNbrIhxgfnqJ3hR9zE8X8lESW0Nig7ORu3beqz8qvHBH9PDhKpgWLYUGYoAuwlI5X/HgudS0e+9Uyg4n4/zR5PQsG4GVmY0Mh3LAhHxyMxdmXsUVdeYdbYS+xYm4K+a1/FNSRXKz65Hv+ObsOOMPEZyZq5aIyR2BdQHSSPg+Fm9RNT3ITfE5KqI+UnSCMlHVi+RuUf1lM9Q3dB4z0vlUSQPGACdLh6uYtaK8CiBuqlC2NxdOPbpfAzWWB8Oa5sV6jjMT9mOVeN7Qg0lNIOmYWJkBS5ergextv3PjuunQ9O/diNVPQNL9Fp4QAGfIYuQPLYIe/6RB+tRkupqUAsNfDvyrYzGrPdSsEanhZdCAe/+U/FUbDUuXqyWhcc2CJUHlmLZBT3W6HvYTcDW4vO4oIzDqEc0UABQ9RiJEdoq5OffgJnlWAaIiUdWXsvdI7Pm2Sy2X0upbD+2pQ/Ekj89hV5ugGvIJLybdQQr4t0e1JE8VFi5au3RcewKqw/SReDxM3pJi4jvQ26Iy1UR85NkERaPzLmHe2xHI06tX4y0xzbgtce9RK4V7rHzW1Z0QVRcFLooRG6zQtnzCSRMHgJ/BYDWm7hk2ILdJcMwaYQvXBjbBOy6k2PG9fwC1EVEQ3v3JNkd2uieKMwrsPkp0VxbjTrzRezQxyOiexBCtMPw/DsnUEWAMngoEmaOQM/bUWcuOYwv86MxenigDDy2QRVpWLL8EhK3JCOWMfepop/EGL9s7DtUimYADRcOIP2/sRgzLBDEcCx9xMUjK6/l7ZHtxiYfGbXUlHsaucHdUbUlAY9Gh6GPdih0azNRIROPrFy11OU4doXWB6ki9PhZvcRV8PchP0Tlqoj5SaoIjUfW3MM93sN8eTuWf9oHr70+Bj4OfNisFTPPO+XTSoibu6bDR+2LqMQsxK1/H4nhSkHbpAuhvt4IhYcnPO6+p4CnpwdajUabe8MV7lo8qfslnk7ehx9KS5Gzczqq1v8aSbuvW1wtayk9iJemrkHz0m1YHCuPW39AFUhdsgKF87YiOcaN3WS9RmHVh5Pwn7lahPTuge6DVqMhaTMW9FcJdixNxMXjHTrKXXl7vMf91jVzbTVuFBzGt0ErkZ57GXkH5sO8VYeFeyrl4ZGRq5Y4iF0x9UGK/Mjjt+klgr8P+SH7XBWDiHjkvUQIRmRs3Iwy3TJMD3aU3WLW2iKHyVwU3ro9qGu+heLDC3Br1Wg8v/va3cBkbZMOhKvbn0FIQAACAgIQMuVj1Ht5gYxGNLRbU3/LCJcuXaC2+mtl2HS8tW0TFo3uDU+lCv7xv8UKnReOHsi+PXQSak5uwpRRy1CRlIbU3w9s1+SlDOH6/pexsuRFbF0UbXNvqTWteZsxdc5JTDYUo/xKKa5f2oFBe6dj9o5iwKFjKaOAVxfh8XiHjnJXISuP1nmdgmu3i9f91jWF2h3ufmMxb84A+CgV8IrUI3laF2QdPmXzC1rnx9ZjSa79XLV8uJUVu16oE1EfOj/WHrfjh31ij7/jXsKqnXJ6aLsj5JWrYri/eHQ898gF+32GqtPw0d4AzJ4TB0c/RotZ2xH8xAYAQLiZewApabltDUfpgeD455A00RVHDadQZXfbaQn+xxoFgmf+DWdzcpCTk4OzKTMRGxMF3ws5OH+38tXjfG4xIvpH2QRdc3kOjp8pbpfMBJOpBS6uKihBqM1+A5NmpmLItkx8NjcWng/qsB46N5GxJx1l5zZhvDYUoaERGLvxB1z7XI/ocZtg+Y+4COVZBpwJmwL9I13hAsAtZDQSxnrh2JHTqGc6ljpKBEULjUdWXp/GLVl5tM5rHTzznFPXVNoY9G2qQpWx3ZsEuKik+EusrUccs5+rlsMiK3Z74V+C64MUsPb4FHL3ijl+e72EXTvlPbzLLVfFcH/xyJ575IS1xxkIuv2Dy62v/4mM7uMxIdxxrIlZ2xHyct4eqsG/U3fAcM4IQAHV9S+xOnEBNp6oRAuAxiIDPk+vQNTAKLjb3RYJKf64rfTwQ1BwMIKDgxHk5wH3x2diGnZiXco51FMrqo5vwKbMGOifjYSLhUeg9dxf8PyTs7D2eAVa0IrqUx9g3Z5WTJj8GFTVBrw8+wsM3paKP4wMkNmtFj5I2FmGitIiFBYWorDwEo68PADdZ32Gc4dfQozSMh67xsSg27lDSCtou7ZLdWdwMKMM2v79oGA4lv6VXsBNcDyy8jpSdh4t89oTbqy6ZpXXLFz6TsWsgcfx9hvpuGYiNFzciff3NWD0eNv/eiMFrD12Y+SqtUf7sRuHGaz6IMG509JjEHSC6yNAdnsJu3ZKsV+LgZmrInJeitxPPLLmHinWQBbW82PbSYYJud+eBn42pN3zhbCaw+9gZ60YqLNzazclaNSkVqvJ1UVBSlc1qdUeFLrwa2pibWvJozfjvGjUB8XUSkRkrqHvt8yjEX27kcbHh3yDY2jcS1/QhUYH24goMzPzIQp4MNw8+xElDu1N/hpfCowcR0tTi8hERGTjsZZO/3keDQv3J29vDXULH0Zzt5ykajORcc908lS6kJu67Ttpe3lSxOIsaiZ5eLxHC+Wujqde849QE1EHHqvpuw/m0PDIPhQaEUF9QmNp7O8+pzwjMR0TycOj8Hhk5bXMPbLcWHtk1VIiMl1Jo+UToijQ15f8ewyiaWuzqEI2Hhm5au2RGLFrgVV9IBl4tIBdH5m9hPV9kNw82mI3V0XmvLw8OurXjF7CPRJRA+1N8CbtK9nU3P7tDuqj3bUiPCqISHqPiTxgsrKyMHLkyIf9MTo93KNz4B6dA/foHLhH58A9Ogfu0Tlwj86Be3QO7T3K91Y0DofD4XA4HA6HIxn4iQ2Hw+FwOBwOh8Pp9CgyMzP5rWgcDofD4XA4HA6nU8OfsXEC/B5J58A9Ogfu0Tlwj86Be3QO3KNz4B6dA/foHLhH58CfseFwOBwOh8PhcDiSgp/YcDgcDofD4XA4nE4PP7HhcDgcDofD4XA4nR5pn9g0GzA3QAU3d3e433l5P4q38lo7WNyCEsNKTBqshTYqEn0jH4P+nWzcILH7kShUgzN/ScTPNO4Y/WEJzMyl3+HdWT9HaGBX+AdFYcKrh3DV6g/ohgG/CXdDSNJRNP9PP/hPDIEem/br4efRLt7c3aFWqdB7URZMso9HQt2pD/Hc0DAEBgQguN8oLNpVgCZ7q+3GoxllR1dj2pAe8PPRwL9XHJ5ddwyV/KlDACYUpb2Kpwd0h6+PBl17P4KZm0601UMb5O2Rmas2qxl9Bq0o/XIVJg/siW7+fgiK/hVeNZRALlkNQESfYbliOZYXjvusA1ci+r6UcehRYE+W5dwjal6x30vE1FmJn9jUosY0HJsvGtHY2Nj2uvktVsS42Cyl8r9jwXOp6PfeKRScz8f5o0loWDcDKzMaRe1HklANDi38BV7ICsMT0SoHayuxb2EC/qp5Hd+UVKH87Hr0O74JO860S2OqgmHZUmQoAiQegFaI8Kie8hmqGxrvxVvlUSQPGACdLh6uco/H+q+xQrcBjUnpKKqsQMGucchJ1mNjTovtWkY8mq9+ghd1H8PzlUyU1Nag6OBs1L6tx8qvGh/8Mf3EMF/aisREA8LXf4/yumpc3j8FV1fr8cdvbE8f5e6RmatWa1l9xlycghdm7UbgH7NReqMcp9+OwIE5v8H2KzIZJ0XUR5YrZi+XEwL6LNOVmL4vZYTMK0J6slznHhHzCquXiKmzkvZLdTWohQa+GseH2Vp8HheUcRj1iAYKAKoeIzFCW4X8/Bswi9iPNFEhbO4uHPt0PgY7cEBl+7EtfSCW/Okp9HIDXEMm4d2sI1gR73ZnBSoPLMWyC3qs0feQdgDaINyjJY04tX4x0h7bgNce9xIV11Kk6V+7kaqegSV6LTyggM+QRUgeW4Q9/8iD9akNMx52L4oTAAAICklEQVSV0Zj1XgrW6LTwUijg3X8qnoqtxsWL1ZDhxV1L1HGYn7Idq8b3hBpKaAZNw8TICly8XG/rhntsh2WuWsPqM/UnDiM7VI/FT/eCG9zQ81cr8bsh2fji4DWZXCkXXh+NDFcmhmP5xKOwPsuKR/rR/UpKCPPouCfLd+4RNa8I7iXsOitpv+baatSZL2KHPh4R3YMQoh2G5985gaoOqpsq+kmM8cvGvkOlaAbQcOEA0v8bizHDAkEi9iNJFF0QFReFLgrHS025p5Eb3B1VWxLwaHQY+miHQrc2ExW3XVFFGpYsv4TELcmIdWPvS3KI8Nge8+XtWP5pH7z2+hj4KMTFtfQw43p+AeoioqG9exHRHdronijMK7D5SZoVj8rgoUiYOQI9b1dBc8lhfJkfjdHDAyHyK5Icyp5PIGHyEPgrALTexCXDFuwuGYZJI3xt3HCP97DOVWtYfUYBAGa618AVXvDxJlzKvyyP29HE1kc7rhSOHMsAoX2WGY8/sl9JCaEeHfVkOc89YuYVob3EUZ2V9ImNwl2LJ3W/xNPJ+/BDaSlydk5H1fpfI2n3ddsrN16jsOrDSfjPXC1CevdA90Gr0ZC0GQv6q8TtR+aYa6txo+Awvg1aifTcy8g7MB/mrTos3FMJogqkLlmBwnlbkRzjJpsmc38YkbFxM8p0yzA9uM2YvOORUF9vhMLDEx5331PA09MDrUajzXM2zHhst66l9CBemroGzUu3YXGsTG7pE8DNXdPho/ZFVGIW4ta/j8RwdsuQt0fbXLWB0Wc8n5iAJ67swLpd+bhlqseVo+uwNbMZTY1NMshrcTBdMRzLAjF9Vu6uWIjwyOzJMp97fuy8Yr+XOK6zkj6xUYZNx1vbNmHR6N7wVKrgH/9brNB54eiBbJsBqDVvM6bOOYnJhmKUXynF9Us7MGjvdMzeUQyI2I/cUajd4e43FvPmDICPUgGvSD2Sp3VB1uHvcXX/y1hZ8iK2Loq2uSeS0zFUnYaP9gZg9pw43LnQIyauOz+Eq9ufQUhAAAICAhAy5WPUe3mBjEY0tFtTf8sIly5doLb6a/vxeOr2rzuEmpObMGXUMlQkpSH19wPbnTDJBWvHKbh2u+N46/agrvkWig8vwK1Vo/H87mt2mpFcPNp31VGuWsPsMz0T8dEnCaheOxrhvQdj5me+GPfLQPj5+0q7Uf8IlAxXxHAs/Vv6CNdF9FlWPErfVXus83o7ftgn3KP9nnwCJbKae2zrY3mo2HmF3UuE1FlJn5Y3l+fgZKkGPx/S6/bAQzCZWuDiqrJqFITyLAPOhE3Bjke6wgWAS8hoJIz1wvgjp1E/oRb/FrQfjkobg75NJ1FlBHDvsRq4qJqRuScdZeeyMF67GQBgqivD9RY9oi8vRZrhpYf2mX/K3Pr6n8joPh6vhd+7YiE8rqWAAsEz/4azE9uuWivUGmjOnILvhzk4bwIedQWAepzPLUbEgCibQmc/Hl0AEGqz38Ck2V9h1PZM/GFkgOyuprVh7dgH7nkHkHI5DDOejoWH0gPB8c8haeIaPGM4jeaEp6xOIOXk0TYeu90+2I5y1RJ2nzEl9kLPiW/iwMQ325a3XsCG4WvRf7JW2o36R+Fix1VfVGUtZzqWNjeR4aDP3ntm23E8Wl8oki7Wea1Axm9fFeiR1ZNNOCaruaeDfn09B8cFzyuOe4njOivxX2xaz/0Fzz85C2uPV6AFrag+9QHW7WnFhMmPwZVq8O/UHTCcMwJQoGtMDLqdO4S0grbrwFR3BgczyqDt3w8K1n4e7iE+fCw8Ai59p2LWwON4+410XDMRGi7uxPv7GjB6/AjM3FmGitIiFBYWorDwEo68PADdZ32Gc4cti4QssfLYhgm5354Gfjak3fMkDuL6gX/w/z1KDz8EBQcjODgYQX4ecH98JqZhJ9alnEM9taLq+AZsyoyB/tlIuAiOx3ioqg14efYXGLwtVeLDuGMsHXvC7fqXWJ24ABtPVKIFQGORAZ+nVyBqYCRUVo5JZh6t47GtiXacqxDRZ1wq9yIxeiRWnqiGmYzI/+RVbKmYhhfGax78Qf7UsI45u658mY6lf4LogwRWn1UKj0fpu7LEMq+DoBPskdWTx8hu7rGujyR4DhfSS+zUWWtIyphr6fSf59GwcH/y9tZQt/BhNHfLSao2E1FLHr0Z50WjPiimViIiczV998EcGh7Zh0IjIqhPaCyN/d3nlGd0sB8iyszMfHjH+CC4tZsSNGpSq9Xk6qIgpaua1GoPCl34NTVZeyQi05U0Wj4higJ9fcm/xyCatjaLKszWO22h3NXx1Gv+EWq6/Q73aOmRqIH2JniT9pVsam6/H7nHIxHdPPsRJQ7tTf4aXwqMHEdLU4vIRGSb12Q/Ho17ppOn0oXc1G3fSdvLkyIWZ1EzycOjXcw19P2WeTSibzfS+PiQb3AMjXvpC7rQSDaOuUciu7kqps9QA+WmzKWhvfzJ1z+Qwh6fR9v+7+bdXUneo6j6yHDFdCwDjxZY9Vkx8cj6Poh7tPTI7sl290My8ChiDnfUS+zWWbL0qCAi/lzifZKVlYWRI0c+7I/R6eEenQP36By4R+fAPToH7tE5cI/OgXt0Dtyjc2jvUdK3onE4HA6Hw+FwOBx5wE9sOBwOh8PhcDgcTqdHkZmZyW9F43A4HA6Hw+FwOJ0a/oyNE+D3SDoH7tE5cI/OgXt0Dtyjc+AenQP36By4R+fAPToH/owNh8PhcDgcDofDkRT/D71rQ6eFZywXAAAAAElFTkSuQmCC;" vertex="1" parent="1">
                    <mxGeometry x="287.63" y="440" width="541.04" height="180" as="geometry"/>
                </mxCell>
                <mxCell id="50" value="" style="shape=image;imageAspect=0;aspect=fixed;verticalLabelPosition=bottom;verticalAlign=top;image=data:image/png,iVBORw0KGgoAAAANSUhEUgAAAzkAAADgCAYAAAAgy6hjAAAABHNCSVQICAgIfAhkiAAAABl0RVh0U29mdHdhcmUAZ25vbWUtc2NyZWVuc2hvdO8Dvz4AACAASURBVHic7d17dFTlvf/xzyRDMkkgN9IkxIAEE0hARC71UtTReClUASnQRIglonWJwEFrRSlFbcULFKFqhVaEGmoLiAfKAYIgyoxyAC2XX48BBAFBEm5JSMIlCQmZ/fsDRBKSIYM7Fzbv11rzj8/O496ftb77eb4zewaby+UyBAAAAAAWYZckp9PZ1Odx2XO73eRoAnI0BzmagxzNQY7mIEdzkKM5yNEc5GiO2nL0a6JzAQAAAIAGQZMDAAAAwFJocgAAAABYinWaHKNYm9/O1HVhDqW+lStPfceq8ejQ6kka3OMqRYSGKbJtT/1i8qcqML6b5nO9PuzHah/dWpExyeo7YYUO1D0ZgAZU73qsyNaIKLsCHA45vnu1ukmvbKvybR4ADerU4gxFBJ1Xpw6HAu12tRvjVuUFR59WbvZE9e+epKTkTkrsdLMy/rReR42LjQFoTL7Vtbd9uO91bY0mxyjWitG36xF3gnqn2Os/VoPnwFw9mv6ugn/jUm5JsfYtf1AlUzM08eNyySjQotFpeifsOX2WW6jDW6ao49ppytpc0YAXBqBWvtRjRYmKK2/V9F2lKi8vP/M6vkHjO/tT10AzEjjwPRWVlX9fpwWrNbZrV6Wn91KLGscah/+pUb9coo5vbNTOr3boq9UjVTb5AU1cU+51DEDj8qWuve3DL6Wuve/6Lxt2JYyYr0+7R+iffV/TjnqP1eCXomFvzFHv9CSF2CRdO0j3dZmo/9lVJE+XZZq1qpue3naf2gZIiuuv1939G/CaANTFOLS43vVoHCtWicIUHnbhezq+zAOgMZVr45QntPTmP+rzn4RcMFq1/yt97ddTj94QJpsk+1VO3ZZUqKU7jup0aN1jRmpco18JgO94r2tv+/DT4b7XtTU+ybG1VHLPZLW0+ThWg1/sjUobepviz6biyV2pD3ekKPXWaJ3euklbY9uocEaabkpJ0NVJNyr9VZfy+fgbaHSVPtSjp6RIxzy7lJXRS9e0iVFc0i0a/qd1KjR8mwdA4/Hsma1n/361fvfcnQqtZf22p9ylOyPWa9GKPFVIKvt6mVZ900V33hKtFl7G6rEVANBALlbX3vbhl1LX1mhyGsDpvOX69aCXVTFulp7o4i9PSZGO7lypDTETtWrrHm1b9pg8M9M1emGB2A8BjcuXerQ5knRX+j3qN3aRvszLU868ISqc8nONXHBEVdQ10AyVas1r03Uo/RkNia1j+xJyh55/q7/+b0SS4tpdpTbXT1LZyOkada3d+xiAJlKPuj5PzX34pdQ1Tc4FDBV/MU0D73hG+SOXasmT3RQkyRbokCPibj38UFeF+tkU0ilDYwe3lHvlxlq+OAWgIflSj34JQ/TKrGkak9pOwX52RfZ6XOPTQ7R62XpVUNdAs2MULdVfP4jSgw/1VEAdx1Rtm65BD32hAdn7dfjbPB3ZnaXrPxiiB7P2q9LLGL8pAjQkQwdm36+4qChFRUUpbuAcHfzux7vqUdffzVHbPtxbzddV1zQ51RgqWf+i+g9doh6zXHpvRBcFnx2xJ3VW4qlCFZZWO1z+dv+mOFHgiuZLPVYcztHazft16rwDKytPy7+FXQHUNdDsnPjkX1rTpo/6dqirDg0ddmdrc8JAZdzQWv6SAuJSlXZ3iD79aKPy6hzbxJsXQIOyKXbo37QlJ0c5OTnaMucBxZz90ObidS3VvQ/3VvN11/WV3eQYxfrPkixlbz+zwzGKsvXUg++r+6wlesEZVe0ZP//EQRrWba2mvrhKBysNle2apzcXlSm1z4W/DgGgYXmtxxp1XbX9bQ2/a5heXZuv06pS0cY/a/LCKvUdcLMc1DXQzFRq64ZN0nU9lHT+UyjV6tqm1p0760fbV2jpzrIzw8c2a/maQ0q6tpOi6xzraJVfWwKaLb+gCMXExio2NlYxEUFnG4361LW3fbi3mq+7rq3R5Jx8X+nhDjmCrtboj0/I/WSigh3BShizRhXexjwHtfzFUZr6yVF5JJV/nKV533ylv/SNVdC53/MOUeKTn6rSP1GPz52te7aP1fXRkYq/fbqqRs7T9Psj+CIj0Ni81WONug5yTtLCVzpq9fBkRYa2Vqe0xYp7frHeGBApG3UNNDNVytt/SBEx0dU3LjXqOvC2P2j+C3FaeH+KEhITldBthDbcPFNZT3RWsJcxPqMFmkL96trbPtzvEura5nK5DKfT2fDXZ3Fut1vk+MORoznI0RzkaA5yNAc5moMczUGO5iBHc9SWozU+yQEAAACAs2hyAAAAAFiKzeVy8c9BAAAAALAMuySeBTQBz1SagxzNQY7mIEdzkKM5yNEc5GgOcjQHOZqD7+QAAAAAsDyaHAAAAACWQpMDAAAAwFJocgAAAABYCk0OAAAAAEuhyQEAAABgKTQ5AAAAACyFJgcAAACApdDkAAAAALAUmhwAAAAAlkKTAwAAAMBSaHIAAAAAWApNDgAAAABLockBAAAAYCk0OQAAAAAsxeZyuYymPgkAAAAAMItdkpxOZ1Ofx2XP7XaTownI0RzkaA5yNAc5moMczUGO5iBHc5CjOWrLkcfVAAAAAFgKTQ4AAAAAS6HJAQAAAGApNDkAAAAALIUmBwAAAICl0OQAAAAAsBSaHAAAAACWQpMDAAAAwFJocgAAAABYCk0OAAAAAEuhyQEAAABgKTQ5AAAAACyFJgcAAACApdDkAAAAALAUmhwAAAAAlmJzuVxGU58EAAAAAJjFLklOp7Opz+Oy53a7ydEE5GgOcjQHOZqDHM1BjuYgR3OQoznI0Ry15cjjagAAAAAshSYHAAAAgKXQ5AAAAACwFIs0OR4dWj1Jg3tcpYjQMEW27alfTP5UBYYkGTq28S398sYERUdFKbbjHRozf6dO1TLLqcUZighyyOH4/hVot6vdGLcqJRnFn+v1YT9W++jWioxJVt8JK3TA07hXCqA642i2ftUhQHEjV6ui9iO83wOMYm1+O1PXhTmU+lauKGmgCXmpx/qvwZXat3SC+nVto/DQMLVud4OGTluno/zMEtD4KrI1IsqugPP21o5WN+mVbVW1HFylvA+f14Bu8fpRZIRiUn6mCdm5qnnkxdf9MyzR5HgOzNWj6e8q+Dcu5ZYUa9/yB1UyNUMTPy6XTn6i8el/VPnIVdpXkK+d83+qnLEZei3n9AXzBA58T0Vl5SovP/sqWK2xXbsqPb2XWhgFWjQ6Te+EPafPcgt1eMsUdVw7TVmbvcULoEEZhcp+ZpzW2KLqvpl5uwcYxVox+nY94k5Q7xR7Y545gJq81aMPa7Bn90xlZmarw5R/6/CxIu1ZPFAHJmXo95/V9vYmgAZVUaLiyls1fVfp9/vr4xs0vrP/BYd69s/RI8MWKPr365V39LA2Tb1Gyx76lWZ/e967GfVZ98+yRJMjvxQNe2OOXk5PUojNplbXDtJ9XYq0a1eRyv93gZYEPqCnM5IUJJtCe4zR2Lv3aeF/b9OFbc75yrVxyhNaevMf9bufhMg4tFizVnXT03+4T20DpBZx/fW6+yON7xXQSBcJoDpDBcvG6ZmvM/RyxlV13sxOeb0H2JUwYr4+/ftj6h5mjdshcPmqux59WoMDe+qxObP1fJ94BcpPYdcP1r2d8rVrz0nxYQ7QuIxjxSpRmMLrscaWrlup9e0z9ES/tgpQgOJ/NlH/1WO93l9+8OynuvVb979jiVXdL/ZGpQ29TfFnr8aTu1If7khR6q1Ryt+xU8euSVHSuTeFHEpKidfebTtV6WVOz57ZevbvV+t3z92pUJtUuXWTtsa2UeGMNN2UkqCrk25U+qsu5XPHBJqEkb9UTz+7W5kzxqpLne81eHTE2z3A1lLJPZPV0tY45wzACy/16Msa7BffW2kDeijSJqnquHZnz9CC3FvU/7ZwUepA4/KUFOmYZ5eyMnrpmjYxiku6RcP/tE6Fde2fPcb3b0bYQhTaytDuHXtUpfqu+9+zRJNzvtN5y/XrQS+rYtwsPdHFTydPlsoWFKygc0fYFBwcpKrS0lq/l3NGqda8Nl2H0p/RkNgzt0RPSZGO7lypDTETtWrrHm1b9pg8M9M1emEB7wwBjc3I15Knx2vvwzM1tnOAl42LcYn3AADNyaWswcfnD1FoYLiSM93qOeVNZXaw3JYHaPZsjiTdlX6P+o1dpC/z8pQzb4gKp/xcIxccuaB2g3v3Ve9vszR5/g6dqDypb1dP1kxXhU6Vn5JR73X/exaqeEPFX0zTwDueUf7IpVryZDcFyaaQliEySktVdt5xJ0+Uyr9lSwXWNVPRUv31gyg9+FBPfdco2gIdckTcrYcf6qpQP5tCOmVo7OCWcq/c6PUTIQBmM3Rk8VOamPuoZo5JUQuvx17aPQBA83Ipa3Cr9IU6VnFC+1eO0onnUzV8wUHelAQalKEDs+9XXFSUoqKiFDdwjg63H6JXZk3TmNR2CvazK7LX4xqfHqLVy9Zf8EajX3ym/jo3TUWvpqpDu+4a+l64fnpPtCIiw1RQ73X/vPnMvrymYahk/YvqP3SJesxy6b0RXRQsSfJTTEqywr/O0Vfn7oIn9dXW/brm2mTV9UnXiU/+pTVt+qhvh++/FGVP6qzEU4UqLK32v5W//cIvTgFoSMe1ZuEqHdo+TX2S2qt9+2t092tf6uA/MpTy02mq/oMtl3YPANC81H8NNnR86zLNWbr1zBsbfkGK7fVLjby3hVZnb/L6S0wAfiibYof+TVtycpSTk6Mtcx5QxJEcrd28/7yGxlBl5Wn5t7DX0oT4K/7el7TsyzwdObhTa2f3k9+eMl3bvY0+q/e6/z1LNDlGUbaeevB9dZ+1RC84o6p9hBXwk6EarHmaPGe7ThpVKlz7R01zdVbGLzrJ3yjWf5ZkKXv7+XfNSm3dsEm6rsd5z/BL/omDNKzbWk19cZUOVhoq2zVPby4qU2qfXvXuKAGYIVRp8w4pP2+f9u7dq717d+ujp7qqzbD3tH3lr9XZr3pde70HNPGVAKgfr2twtbXcJvuRDzUpc5ReW1eg05LK92XrH6vyldytk/gNRaBh+QVFKCY2VrGxsYqJCJKx/W0Nv2uYXl2br9OqUtHGP2vywir1HXBzjdqVjIIPlJni1MR1RfIYpdoxd4Jm5A/WI33iva/7dSzmlmhyyj/O0rxvvtJf+sYq6NzvcIco8clPVRl0q/4wf6LC/9ZH7SKi1PmRf+vWt/+u0Un+kueglr84SlM/OXreb/FXKW//IUXERFe/Gfon6vG5s3XP9rG6PjpS8bdPV9XIeZp+fwRfZASak5p17e0ecPJ9pYc75Ai6WqM/PiH3k4kKdgQrYcwa3vEFGpu3evS2Bteo+aDbX9L7kxL10fDOigoLU5ubfqtv+szWu6OSeGMDaGRBzkla+EpHrR6erMjQ1uqUtlhxzy/WGwMiL6hdW9R9GjcuUR+lJ6p1VIL6vhOqCR9M0d2tLu3/bXO5XIbT6TT1gq5Ebrdb5PjDkaM5yNEc5GgOcjQHOZqDHM1BjuYgR3PUlqMlPskBAAAAgO/Q5AAAAACwFJvL5eIXFQEAAABYhl0SzwKagGcqzUGO5iBHc5CjOcjRHORoDnI0BzmagxzNwXdyAAAAAFgeTQ4AAAAAS6HJAQAAAGApNDkAAAAALIUmBwAAAICl0OQAAAAAsBSaHAAAAACWQpMDAAAAwFJocgAAAABYCk0OAAAAAEuhyQEAAABgKTQ5AAAAACyFJgcAAACApdDkAAAAALAUmhwAAAAAlmJzuVxGU58EAAAAAJjFLklOp7Opz+Oy53a7ydEE5GgOcjQHOZqDHM1BjuYgR3OQoznI0Ry15cjjagAAAAAshSYHAAAAgKXQ5AAAAACwFJocAAAAAJZCkwMAAADAUmhyAAAAAFgKTQ4AAAAAS6HJAQAAAGApNDkAAAAALIUmBwAAAICl0OQAAAAAsBSaHAAAAACWQpMDAAAAwFJocgAAAABYCk0OAAAAAEuxuVwuo6lPAgAAAADMYpckp9PZ1Odx2XO73eRoAnI0BzmagxzNQY7mIEdzkKM5yNEc5GiO2nLkcTUAAAAAlkKTAwAAAMBSaHIAAAAAWIp1mhyjWJvfztR1YQ6lvpUrT7Whz/X6sB+rfXRrRcYkq++EFTrgqW2SSu1bOkH9urZReGiYWre7QUOnrdNRw9d5ADQ0X+rR27HUNdA8nFqcoYgghxyO71+BdrvajXGr0svfGUez9asOAYobuVoVkqTTys2eqP7dk5SU3EmJnW5Wxp/Wn1vLATSuS1lnzahrazQ5RrFWjL5dj7gT1DvFXmOsQItGp+mdsOf0WW6hDm+Zoo5rpylrc8UF03h2z1RmZrY6TPm3Dh8r0p7FA3VgUoZ+/9kpn+YB0MB8qUdvx1LXQLMROPA9FZWVq7z87KtgtcZ27ar09F5qUdcfGYXKfmac1tiizm1ojMP/1KhfLlHHNzZq51c79NXqkSqb/IAmrilvpCsBcM6lrLMm1bW9zpHLil0JI+br0+4R+mff17TjvBHj0GLNWtVNT2+7T20DJMX11+vu/rVPE9hTj825RXf3iVegpMDrB+veTi/LteekPEk+zAOgQflS196ONQ5S10DzVK6NU57Q0pv/qM9/ElLHMYYKlo3TM19n6OWM/9Zvjpz5r1X7v9LXfj316A1hskmyX+XUbUmFWrrjqIzUuMa6AADycR9+5i9Mq2trfJJja6nknslqabtwqHLrJm2NbaPCGWm6KSVBVyfdqPRXXcqv5eMtv/jeShvQQ5E2SVXHtTt7hhbk3qL+t4XrtA/zAGhYvtS1t2N9mQdA4/Hsma1n/361fvfcnQqtZW2XJCN/qZ5+drcyZ4xVl4Dv/7s95S7dGbFei1bkqUJS2dfLtOqbLrrzlmjVMRWABuLrOmtmXVujyfHCU1KkoztXakPMRK3aukfblj0mz8x0jV5YoLr2McfnD1FoYLiSM93qOeVNZXbwu6R5ADQMX+rR27FV1DXQDJVqzWvTdSj9GQ2JrbPD0ZKnx2vvwzM1tnNA9U1OyB16/q3++r8RSYprd5XaXD9JZSOna9S1Fnl4BbiM+LR/NrmuLd/k2AIdckTcrYcf6qpQP5tCOmVo7OCWcq/cWOcXGVulL9SxihPav3KUTjyfquELDkqXMA+AhuFLXXs79jR1DTQ7RtFS/fWDKD34UE8F1H6Ejix+ShNzH9XMMSkXfF+natt0DXroCw3I3q/D3+bpyO4sXf/BED2YtV/8pgjQkAwdmH2/4qKiFBUVpbiBc3Q4oL7rrPl1bfm3NexJnZV46gsVlkrn7paG5G/3r3GkoeNbl2vhngQ90K+LgvyCFNvrlxp578u6P3uTPL+t7zwAGlr969r7sb7MA6BxnPjkX1rTpo9+16GuOjyuNQtX6dB2t/okTZckVR47pCOnM5Sy52nN7r9CmxMGKuuG1vKX5B+XqrS7Q9Tno02qzGzbaNcBXHlsih36N22595QMSbbAMEUeya/nOmt+XVv+kxz/xEEa1m2tpr64SgcrDZXtmqc3F5UptU8vtTCK9Z8lWcreXirJJvuRDzUpc5ReW1eg05LK92XrH6vyldytkwK9zdPUFwlcYepf196PdVDXQDNTqa0bNknX9VDS+W/DVqvrUKXNO6T8vH3au3ev9u7drY+e6qo2w97T9pVP6eZrO+tH21do6c6yM396bLOWrzmkpGs7Wv+dXaCJ+QVFKCY2VrGxsYqJCFKLeq/X5te1NZqck+8rPdwhR9DVGv3xCbmfTFSwI1gJY9aowj9Rj8+drXu2j9X10ZGKv326qkbO0/T7I2TzHNTyF0dp6idH5ZEUdPtLen9Soj4a3llRYWFqc9Nv9U2f2Xp3VJL8vc3T1NcPXGl8qGuvx1LXQDNTpbz9hxQRE11941Kzrr0IvO0Pmv9CnBben6KExEQldBuhDTfPVNYTncVntEAj82W99uJS6trmcrkMp9Np9iVdcdxut8jxhyNHc5CjOcjRHORoDnI0BzmagxzNQY7mqC1Ha3ySAwAAAABn0eQAAAAAsBSby+Xin4MAAAAAYBl2STwLaAKeqTQHOZqDHM1BjuYgR3OQoznI0RzkaA5yNAffyQEAAABgeTQ5AAAAACyFJgcAAACApdDkAAAAALAUmhwAAAAAlkKTAwAAAMBSaHIAAAAAWApNDgAAAABLockBAAAAYCk0OQAAAAAshSYHAAAAgKXQ5AAAAACwFJocAAAAAJZCkwMAAADAUmhyAAAAAFiKzeVyGU19EgAAAABgFrskOZ3Opj6Py57b7SZHE5CjOcjRHORoDnI0BzmagxzNQY7mIEdz1JYjj6sBAAAAsBSaHAAAAACWQpMDAAAAwFJocgAAAABYCk0OAAAAAEuhyQEAAABgKTQ5AAAAACyFJgcAAACApdDkAAAAALAUmhwAAAAAlkKTAwAAAMBSaHIAAAAAWApNDgAAAABLockBAAAAYCk0OQAAAAAsxeZyuYymPgkAAAAAMItdkpxOZ1Ofx2XP7XaTownI0RzkaA5yNAc5moMczUGO5iBHc5CjOWrLkcfVAAAAAFgKTQ4AAAAAS6HJAQAAAGAp1mlyjGJtfjtT14U5lPpWrjznBqqU9+HzGtAtXj+KjFBMys80ITtXVReb7mi2ftUhQHEjV6viB8wDoCH4WI913h8ko/hzvT7sx2of3VqRMcnqO2GFDnjqmghAY7hwDa6pUvuWTlC/rm0UHhqm1u1u0NBp63TUkCSPDq2epME9rlJEaJgi2/bULyZ/qgJ+ZglofBXZGhFlV4DDIcd3r1Y36ZVt3nfQF94DfK9razQ5RrFWjL5dj7gT1DvFXm3Is3+OHhm2QNG/X6+8o4e1aeo1WvbQrzT7Wy+7GKNQ2c+M0xpb1LmALmkeAA3Cp3r0cn+QUaBFo9P0Tthz+iy3UIe3TFHHtdOUtbn2bRWARlDLGlyTZ/dMZWZmq8OUf+vwsSLtWTxQByZl6PefnZLnwFw9mv6ugn/jUm5JsfYtf1AlUzM08ePyRr0MAJIqSlRceaum7ypVeXn5mdfxDRrf2b/uv6ltH34JdW2NJkd2JYyYr0///pi6h1W/pNJ1K7W+fYae6NdWAQpQ/M8m6r96rNf7yw+q9vbEUMGycXrm6wy9nHHVuYB8nwdAQ/GtHuu+PxiHFmvWqm56+g/3qW2A1CKuv153f6TxvQIa61IAVFP7GnyBwJ56bM5sPd8nXoHyU9j1g3Vvp3zt2nNShl+Khr0xRy+nJynEZlOrawfpvi5F2rWrSHyYAzQu41ixShSm8LD6thx13AMuoa6t0eTYWiq5Z7Ja2uoY9xjfB2ALUWgrQ7t37Kn10RYjf6mefna3MmeMVZea+xwf5gHQwOpbj17uD5VbN2lrbBsVzkjTTSkJujrpRqW/6lI+OyGgSXhdg8/jF99baQN6KNImqeq4dmfP0ILcW9T/tnD5x96otKG3Kf7sDseTu1If7khR6q3RqmubAKBheEqKdMyzS1kZvXRNmxjFJd2i4X9ap8I61tm67gF+l1DX1mhyvAju3Ve9v83S5Pk7dKLypL5dPVkzXRU6VX7qws7PyNeSp8dr78MzNbZzQLXQfJoHQIMyqx49JUU6unOlNsRM1Kqte7Rt2WPyzEzX6IUF1DXQ2LyswXU5Pn+IQgPDlZzpVs8pbyqzQ/Vtzem85fr1oJdVMW6Wnuji5fEYAA3C5kjSXen3qN/YRfoyL08584aocMrPNXLBEZ/24eerb11bvsnxi8/UX+emqejVVHVo111D3wvXT++JVkRkeI2LN3Rk8VOamPuoZo5JUYtLngdAQzOrHm2BDjki7tbDD3VVqJ9NIZ0yNHZwS7lXblRlg509gAt5X4Pr0ip9oY5VnND+laN04vlUDV9w8OzGyVDxF9M08I5nlD9yqZY82U1BDXfyACRJhg7Mvl9xUVGKiopS3MA5Otx+iF6ZNU1jUtsp2M+uyF6Pa3x6iFYvW69TNf724vcA3+r6Ctif+yv+3pe07Ms8HTm4U2tn95PfnjJd2z1J1b+CfFxrFq7Soe3T1Cepvdq3v0Z3v/alDv4jQyk/naZtVfWdB0DDM6ce7UmdlXiqUIWl5/1HQ/K3844v0Lgutgaff6yh41uXac7SrSqTJL8gxfb6pUbe20KrszepQoZK1r+o/kOXqMcsl94b0UXBTXNRwBXGptihf9OWnBzl5ORoy5wHFHEkR2s37z+voTFUWXla/i3sNZqQi90DfK9ryzc5RsEHykxxauK6InmMUu2YO0Ez8gfrkT5hklGs/yzJUvb2UkmhSpt3SPl5+7R3717t3btbHz3VVW2GvaftK3+tlCIv8wBoVPWva+/8EwdpWLe1mvriKh2sNFS2a57eXFSm1D696v1OMgAzeF+DO/udX9c22Y98qEmZo/TaugKdllS+L1v/WJWv5G6d5F+UracefF/dZy3RC84ovocDNCK/oAjFxMYqNjZWMRFBMra/reF3DdOra/N1WlUq2vhnTV5Ypb4DblYLX/bhx3yva2s0OSffV3q4Q46gqzX64xNyP5moYEewEsasUWXUfRo3LlEfpSeqdVSC+r4TqgkfTNHdrSR5Dmr5i6M09ZOjF/2FNJu3eQA0Kq/1WLOuvdwfKvwT9fjc2bpn+1hdHx2p+Nunq2rkPE2/P4KNEdCc1KjroNtf0vuTEvXR8M6KCgtTm5t+q2/6zNa7o5JU+XGW5n3zlf7SN1ZB5/5tjhAlPvkpj6ECjSzIOUkLX+mo1cOTFRnaWp3SFivu+cV6Y0CkbD7sw8svoa5tLpfLcDqdZl/TFcftdoscfzhyNAc5moMczUGO5iBHc5CjOcjRHORojtpytMYnOQAAAABwFk0OAAAAAEuxuVwu/jkIAAAAAJZhl8SzgCbgmUpzkKM5yNEc5GgOcjQHOZqDHM1BjuYgR3PwnRwAAAAAlkeTAwAAAMBSaHIAAAAAWApNDgAAAABLockBAAAAYCk0wV/5ZgAABsBJREFUOQAAAAAshSYHAAAAgKXQ5AAAAACwFJocAAAAAJZCkwMAAADAUmhyAAAAAFgKTQ4AAAAAS6HJAQAAAGApNDkAAAAALIUmBwAAAICl2Fwul9HUJwEAAAAAZrFLktPpbOrzuOy53W5yNAE5moMczUGO5iBHc5CjOcjRHORoDnI0R2058rgaAAAAAEuhyQEAAABgKTQ5AAAAACyFJgcAAACApdDkAAAAALAUmhwAAAAAlkKTAwAAAMBSaHIAAAAAWApNDgAAAABLockBAAAAYCk0OQAAAAAshSYHAAAAgKXQ5AAAAACwFJocAAAAAJZCkwMAAADAUmwul8to6pMAAAAAALPYJcnpdDb1eVz23G43OZqAHM1BjuYgR3OQoznI0RzkaA5yNAc5mqO2HHlcDQAAAICl0OQAAAAAsBSaHAAAAACWYp0mxyjW5rczdV2YQ6lv5cpzbqBKeR8+rwHd4vWjyAjFpPxME7JzVVXnNJ/r9WE/Vvvo1oqMSVbfCSt0wHPxMQCNyaNDqydpcI+rFBEapsi2PfWLyZ+qoLafUanI1ogouwIcDjm+e7W6Sa9sO3sXqPPeAaA58WkNpq6BZsOX2jVzH26NJsco1orRt+sRd4J6p9irDXn2z9EjwxYo+vfrlXf0sDZNvUbLHvqVZn9bSypGgRaNTtM7Yc/ps9xCHd4yRR3XTlPW5grvYwAalefAXD2a/q6Cf+NSbkmx9i1/UCVTMzTx4/ILD64oUXHlrZq+q1Tl5eVnXsc3aHxnf6/3DgDNiC9rMHUNNB8+1a65+3CLVL9dCSPm69PuEfpn39e047yR0nUrtb59hv63X1sFSIr/2UT9V4+Omrf8oB4ZeVW1Ls84tFizVnXT09vuU9sASXH99bq7/5mxg3WPAWhkfika9sYc9U5PUohN0rWDdF+XifqfXUUy7moj23mHGseKVaIwhYfV9p5O3fcOAM2Ht/X5QtQ10Fz4Urtm78Ot8UmOraWSeyarpa2OcY+hc0+x2EIU2srQ7h17LnhkrXLrJm2NbaPCGWm6KSVBVyfdqPRXXco3vI8BaFx+sTcqbehtij97B/PkrtSHO1KUemu0at4GPCVFOubZpayMXrqmTYzikm7R8D+tU6Ghi987ADQLPq3B1DXQbPhSu2bvw63R5HgR3Luven+bpcnzd+hE5Ul9u3qyZroqdKr8lGrm4ikp0tGdK7UhZqJWbd2jbcsek2dmukYvLFCVlzH6HKDpnM5brl8PelkV42bpiS7+F4zbHEm6K/0e9Ru7SF/m5Sln3hAVTvm5Ri44Qu0Clwlv6zN1DDRfvtSu2ftwyzc5fvGZ+uvcNBW9mqoO7bpr6Hvh+uk90YqIDL/g4m2BDjki7tbDD3VVqJ9NIZ0yNHZwS7lXbtRpL2OVTXJlwJXOUPEX0zTwjmeUP3KpljzZTUG1HOWXMESvzJqmMantFOxnV2SvxzU+PUSrl63XqUY/ZwCXwtv6zBoMNBeGDsy+X3FRUYqKilLcwDk6HFD/2jV7H275JkfyV/y9L2nZl3k6cnCn1s7uJ789Zbq2e9IFX0iyJ3VW4qlCFZae9x8Nyd/u73UMQGMzVLL+RfUfukQ9Zrn03oguCq7jyIrDOVq7ef95DY2hysrT8m9hvxJugIAlsAYDlwObYof+TVtycpSTk6Mtcx5QXMf6167Z+3DLr/FGwQfKTHFq4roieYxS7Zg7QTPyB+uRPmGSUaz/LMlS9vYzifknDtKwbms19cVVOlhpqGzXPL25qEypfXrJ4WWsRRNfI3ClMYqy9dSD76v7rCV6wRlV/Xs4Neq6avvbGn7XML26Nl+nVaWijX/W5IVV6jvgZmoXuEx4W59b1Kh5AE3HLyhCMbGxio2NVUxEkFr4ULum78NdLpdx2TuxwEgLCzQCAwONFv42w69FoBEYGGS0H/2JccooM7bOGWHc2DbSCI+MNhJ+8rAx6/8dP/N3p7cZL/UMMe74836j6uxUld8uNZ7tm2xEh4cbkVddbwx+1W3key4+ZokcmwFyNIfVcyxdOMQI9vM3AgLP1P2ZV7BxzRNuo6JmXXtKjE1/edi4pUOk0apVmPGjDrcYI2Z8YRR5jIvcO6yfY2MhR3Nc6TnWuQbXrHnqulGQozmuhBzrXbvejr3IWG052lwul+F0Ohutw7Mqt9stcvzhyNEc5GgOcjQHOZqDHM1BjuYgR3OQozlqy9Hyj6sBAAAAuLLQ5AAAAACwFJvL5eIn5gEAAABYhl0SzwKagGcqzUGO5iBHc5CjOcjRHORoDnI0BzmagxzNwXdyAAAAAFje/wf2rxd1j6B/AQAAAABJRU5ErkJggg==;" vertex="1" parent="1">
                    <mxGeometry x="300" y="750" width="516.31" height="140" as="geometry"/>
                </mxCell>
                <mxCell id="51" value="[11.26, 6.56, 7.88, -7.28, 20.76, 4.01, 16.3, -5.94, 16.36, 6.66, 7.48, -6.48, 19.49, 9.16, 4.32, -5.42, 19.66, 2.51, 6.1, -6.66]" style="text;html=1;strokeColor=none;fillColor=none;align=center;verticalAlign=middle;whiteSpace=wrap;rounded=0;" vertex="1" parent="1">
                    <mxGeometry x="168.67" y="980" width="660" height="20" as="geometry"/>
                </mxCell>
                <mxCell id="52" value="" style="shape=flexArrow;endArrow=classic;html=1;" edge="1" parent="1">
                    <mxGeometry width="50" height="50" relative="1" as="geometry">
                        <mxPoint x="510" y="910" as="sourcePoint"/>
                        <mxPoint x="510.17" y="970" as="targetPoint"/>
                        <Array as="points">
                            <mxPoint x="510" y="920"/>
                        </Array>
                    </mxGeometry>
                </mxCell>
                <mxCell id="53" value="" style="shape=flexArrow;endArrow=classic;html=1;" edge="1" parent="1">
                    <mxGeometry width="50" height="50" relative="1" as="geometry">
                        <mxPoint x="498.17" y="655" as="sourcePoint"/>
                        <mxPoint x="498.3400000000001" y="715" as="targetPoint"/>
                        <Array as="points">
                            <mxPoint x="498.17" y="665"/>
                        </Array>
                    </mxGeometry>
                </mxCell>
                <mxCell id="54" value="" style="shape=flexArrow;endArrow=classic;html=1;" edge="1" parent="1">
                    <mxGeometry width="50" height="50" relative="1" as="geometry">
                        <mxPoint x="610" y="310" as="sourcePoint"/>
                        <mxPoint x="720" y="416" as="targetPoint"/>
                    </mxGeometry>
                </mxCell>
                <mxCell id="55" value="" style="shape=flexArrow;endArrow=classic;html=1;" edge="1" parent="1">
                    <mxGeometry width="50" height="50" relative="1" as="geometry">
                        <mxPoint x="280" y="310" as="sourcePoint"/>
                        <mxPoint x="310" y="310" as="targetPoint"/>
                    </mxGeometry>
                </mxCell>
            </root>
        </mxGraphModel>
    </diagram>
</mxfile>